<svg xmlns="http://www.w3.org/2000/svg" xmlns:xlink="http://www.w3.org/1999/xlink" width="1122.52" height="793.701" viewBox="0 0 841.89 595.276"><symbol id="a"><path d="M.038.074h.14v.484l.01.059L.148.57.038.491 0 .542l.22.17h.036V.074h.137V0H.038v.074z"/></symbol><use xlink:href="#a" transform="matrix(12 0 0 -12 818.32 575.06)" fill="#231f20"/><use xlink:href="#a" transform="matrix(12 0 0 -12 824.86 575.06)" fill="#231f20"/><symbol id="b"><path d="M0 .6h.115V0h.11v.6H.34v.1H0V.6z"/></symbol><symbol id="c"><path d="M.11.547c0 .05.022.069.057.069S.224.597.224.547V.169C.224.119.202.1.167.1S.11.119.11.169v.378M0 .176C0 .064.059 0 .167 0c.108 0 .167.064.167.176V.54c0 .112-.059.176-.167.176C.059.716 0 .652 0 .54V.176z"/></symbol><symbol id="d"><path d="M.166.7H0V0h.173C.283 0 .34.058.34.166v.057C.34.297.317.35.258.373c.049.023.071.069.071.141v.025C.329.647.28.7.166.7M.159.315C.209.315.23.295.23.23V.169C.23.117.21.1.173.1H.11v.215h.049M.163.6C.202.6.219.578.219.528V.489C.219.433.194.415.153.415H.11V.6h.053z"/></symbol><symbol id="e"><path d="M.273.7H.112L0 0h.101L.12.127h.135L.274 0h.111L.273.7M.187.576.24.222H.134l.053.354z"/></symbol><symbol id="f"><path d="M.162.7H0V0h.11v.263h.052c.11 0 .164.061.164.173v.091C.326.639.272.7.162.7m0-.1C.197.6.216.584.216.534V.429C.216.379.197.363.162.363H.11V.6h.052z"/></symbol><symbol id="g"><path d="M.11.3h.125V0h.112v.7H.235V.4H.11v.3H0V0h.11v.3z"/></symbol><symbol id="h"><path d="M.162 0c.11 0 .164.061.164.173v.091c0 .112-.054.173-.164.173H.11V.7H0V0h.162M.11.1v.237h.052C.197.337.216.321.216.271V.166C.216.116.197.1.162.1H.11M.499 0v.7h-.11V0h.11z"/></symbol><symbol id="i"><path d="M.113 0H0v.7h.098V.257l.04.154.09.289h.121V0H.25v.493L.205.321.113 0m.113.856C.223.819.206.81.176.81.147.81.132.819.129.856H.061C.063.788.099.745.176.745c.078 0 .117.043.117.111H.226z"/></symbol><symbol id="j"><path d="M0 0z"/></symbol><symbol id="k"><path d="M.218.497C.218.441.193.423.152.423H.119v-.1h.027c.05 0 .072-.024.072-.089V.179C.218.117.196.1.161.1S.104.119.104.169v.084H0V.176C0 .064.056 0 .164 0c.108 0 .164.064.164.176v.055c0 .071-.022.123-.077.147C.304.4.328.447.328.522V.54c0 .112-.056.176-.164.176C.056.716.002.654.002.542V.49h.101v.057c0 .05.023.069.058.069S.218.599.218.536V.497z"/></symbol><symbol id="l"><path d="M.251 0h.113L.211.388.364.7h-.11L.11.395V.7H0V0h.11v.215l.034.064L.251 0z"/></symbol><use xlink:href="#b" transform="matrix(72 0 0 -72 36.576 90)" fill="#231f20"/><use xlink:href="#c" transform="matrix(72 0 0 -72 65.664 90.576)" fill="#231f20"/><use xlink:href="#d" transform="matrix(72 0 0 -72 96.624 90)" fill="#231f20"/><use xlink:href="#e" transform="matrix(72 0 0 -72 125.568 90)" fill="#231f20"/><use xlink:href="#f" transform="matrix(72 0 0 -72 158.76 90)" fill="#231f20"/><use xlink:href="#g" transform="matrix(72 0 0 -72 187.704 90)" fill="#231f20"/><use xlink:href="#h" transform="matrix(72 0 0 -72 220.248 90)" fill="#231f20"/><use xlink:href="#i" transform="matrix(72 0 0 -72 263.736 90)" fill="#231f20"/><use xlink:href="#j" transform="matrix(72 0 0 -72 293.544 90)" fill="#231f20"/><use xlink:href="#k" transform="matrix(72 0 0 -72 308.952 90.576)" fill="#231f20"/><use xlink:href="#g" transform="matrix(72 0 0 -72 339.696 90)" fill="#231f20"/><use xlink:href="#e" transform="matrix(72 0 0 -72 370.152 90)" fill="#231f20"/><use xlink:href="#l" transform="matrix(72 0 0 -72 403.344 90)" fill="#231f20"/><symbol id="m"><path d="M.11.424h.269a.23.23 0 0 1-.053.131.154.154 0 0 1-.057.037.2.2 0 0 1-.077.014.329.329 0 0 1-.159-.037L.004.685a.44.44 0 0 0 .32.024.238.238 0 0 0 .101-.063.29.29 0 0 0 .067-.113.518.518 0 0 0 .024-.169A.47.47 0 0 0 .488.19.278.278 0 0 0 .305.018.5.5 0 0 0 0 .033l.036.119A.349.349 0 0 1 .26.133a.159.159 0 0 1 .058.034.18.18 0 0 1 .042.06C.37.251.377.28.38.314H.11v.11z"/></symbol><symbol id="n"><path d="m.428.229.008.104H.431L.391.247.297.092H.25L.147.247.109.333H.103L.116.23V0H0v.5h.135L.25.312.278.249h.004l.029.065L.417.5h.136V0H.428v.229z"/></symbol><symbol id="o"><path d="M.109.42c.02.03.042.05.068.063.027.013.059.02.096.02.06 0 .109-.019.144-.056C.453.41.471.353.471.275.471.185.451.117.41.07A.216.216 0 0 0 .238 0C.161 0 .102.026.061.077.021.128 0 .208 0 .317c0 .057.003.106.01.147.007.04.016.075.028.103.013.028.027.05.044.067.017.017.036.03.057.039a.26.26 0 0 0 .068.021l.076.01c.035.003.064.007.089.012a.114.114 0 0 1 .055.025L.432.625A.122.122 0 0 0 .375.601a1.298 1.298 0 0 0-.1-.011.37.37 0 0 1-.067-.009.118.118 0 0 1-.05-.025.127.127 0 0 1-.034-.051A.366.366 0 0 1 .106.42h.003M.134.258C.134.215.142.18.159.152A.083.083 0 0 1 .236.11c.036 0 .062.013.077.038a.207.207 0 0 1 .024.11.189.189 0 0 1-.022.1C.3.381.276.393.242.393.205.393.178.381.16.357A.166.166 0 0 1 .134.258z"/></symbol><symbol id="p"><path d="M.346.391H.247A4.806 4.806 0 0 0 .233.25.656.656 0 0 0 .207.124.25.25 0 0 0 .16.034.1.1 0 0 0 .082 0 .164.164 0 0 0 0 .015l.016.108a.086.086 0 0 1 .03-.006c.013 0 .025.006.035.017.01.011.018.032.025.061.007.03.013.069.017.119.005.05.008.115.01.192h.343v-.5h-.13v.385z"/></symbol><symbol id="q"><path d="M.424.057A.26.26 0 0 0 .342.016.362.362 0 0 0 .233 0c-.08 0-.14.023-.177.07A.305.305 0 0 0 0 .264c0 .088.021.154.063.198A.233.233 0 0 0 .24.528c.025 0 .05-.003.074-.01A.162.162 0 0 0 .423.423.243.243 0 0 0 .44.326.473.473 0 0 0 .43.231h-.3A.148.148 0 0 1 .162.136C.182.115.214.104.258.104a.207.207 0 0 1 .123.038L.424.057M.238.424C.204.424.178.414.162.393A.15.15 0 0 1 .133.312h.186C.322.348.316.376.302.395.289.415.267.424.238.424z"/></symbol><symbol id="r"><path d="M.031.479a.585.585 0 0 0 .21.039.252.252 0 0 0 .087-.013.124.124 0 0 0 .084-.09.266.266 0 0 0 .009-.072C.421.313.42.284.418.254A1.151 1.151 0 0 1 .417.083.314.314 0 0 1 .432.007H.326L.305.076H.3A.181.181 0 0 0 .244.022.169.169 0 0 0 .153 0 .186.186 0 0 0 .09.01a.147.147 0 0 0-.048.03A.144.144 0 0 0 0 .146c0 .03.007.056.02.077a.148.148 0 0 0 .059.051.281.281 0 0 0 .092.027.628.628 0 0 0 .12.005C.296.343.293.37.283.386.273.403.251.411.216.411A.465.465 0 0 1 .062.382L.031.479M.196.107c.026 0 .047.006.062.017a.127.127 0 0 1 .034.038v.065a.363.363 0 0 1-.06.001.216.216 0 0 1-.05-.009.085.085 0 0 1-.035-.02.045.045 0 0 1-.013-.033A.06.06 0 0 1 .15.122.067.067 0 0 1 .196.107z"/></symbol><symbol id="s"><path d="M0 0z"/></symbol><symbol id="t"><path d="M.308.096A.368.368 0 0 0 .226.091a.2.2 0 0 0-.161.067.266.266 0 0 0-.048.087A.41.41 0 0 0 0 .37c0 .045.006.086.017.121a.266.266 0 0 0 .05.091.221.221 0 0 0 .078.058c.03.013.063.02.1.02A.626.626 0 0 0 .308.655V.74h.134V.652A.527.527 0 0 0 .525.66a.221.221 0 0 0 .09-.018.183.183 0 0 0 .071-.053.242.242 0 0 0 .048-.088A.372.372 0 0 0 .75.38.36.36 0 0 0 .732.255.269.269 0 0 0 .68.164.224.224 0 0 0 .51.091a.225.225 0 0 0-.068.007V0H.308v.096M.493.55A.697.697 0 0 0 .466.548.16.16 0 0 1 .437.544v-.34A.098.098 0 0 1 .458.202L.482.201c.019 0 .036.004.052.011.016.007.03.017.042.032a.158.158 0 0 1 .028.055.26.26 0 0 1 .009.08c0 .053-.01.095-.031.125A.106.106 0 0 1 .493.55M.261.202h.024a.1.1 0 0 1 .028.005v.339a.315.315 0 0 1-.047.003.117.117 0 0 1-.092-.043C.149.478.137.433.137.371A.2.2 0 0 1 .171.246a.108.108 0 0 1 .09-.044z"/></symbol><symbol id="u"><path d="M.173.299H.137V0H0v.7h.137V.39l.032.014L.362.7h.156L.314.406.26.368.316.329.549 0H.38L.173.299z"/></symbol><symbol id="v"><path d="m.194.223.154.216.071-.056L.338.261.292.222.338.187.425.066.354.01l-.16.213M0 .221l.16.23.079-.062L.152.263.104.222.152.186.245.062.166 0 0 .221z"/></symbol><symbol id="w"><path d="M.102.324v.107h.072a4.959 4.959 0 0 1 .048.006.147.147 0 0 1 .06.028.07.07 0 0 1 .025.056c0 .032-.01.054-.031.065a.155.155 0 0 1-.08.018.33.33 0 0 1-.143-.035L.018.685a.517.517 0 0 0 .199.041c.03 0 .058-.003.086-.008A.224.224 0 0 0 .378.69.152.152 0 0 0 .431.636a.162.162 0 0 0 .02-.085.175.175 0 0 0-.028-.096.155.155 0 0 0-.088-.064V.386A.17.17 0 0 0 .436.33.17.17 0 0 0 .473.215.197.197 0 0 0 .45.117.2.2 0 0 0 .389.051.252.252 0 0 0 .303.013.388.388 0 0 0 .203 0a.603.603 0 0 0-.12.011A.33.33 0 0 0 0 .037l.035.119A.415.415 0 0 1 .247.127c.015.004.029.01.041.018C.3.154.31.165.317.178c.007.013.011.03.011.048a.08.08 0 0 1-.035.071C.27.313.228.322.168.323A.237.237 0 0 1 .15.324H.102z"/></symbol><symbol id="x"><path d="M0 .507a3.53 3.53 0 0 0 .191.009c.073 0 .125-.01.156-.032C.378.464.394.432.394.39a.13.13 0 0 0-.02-.068.114.114 0 0 0-.063-.048V.27A.13.13 0 0 0 .389.227.121.121 0 0 0 .413.149c0-.05-.02-.087-.058-.112A.349.349 0 0 0 .171 0 1.4 1.4 0 0 0 0 .009v.498M.127.108A.448.448 0 0 1 .183.104c.036 0 .062.005.077.015.015.01.023.025.023.046a.051.051 0 0 1-.02.042C.25.218.227.224.194.224H.127V.108m.069.196c.021 0 .039.005.052.015.014.01.021.024.021.04 0 .017-.006.03-.018.039C.24.408.219.412.188.412A.543.543 0 0 1 .127.409V.304h.069z"/></symbol><symbol id="y"><path d="M.087.218v.091h.061c.023 0 .042.005.057.014.015.01.023.022.023.037 0 .018-.007.03-.02.038A.122.122 0 0 1 .147.41.218.218 0 0 1 .03.379L.002.478A.42.42 0 0 0 .187.52c.057 0 .1-.01.128-.032A.109.109 0 0 0 .358.395.13.13 0 0 0 .314.298.105.105 0 0 0 .28.279V.275C.315.267.34.253.355.232A.134.134 0 0 0 .377.151.127.127 0 0 0 .324.044.203.203 0 0 0 .258.012.373.373 0 0 0 .067.011.34.34 0 0 0 0 .038l.028.101A.22.22 0 0 1 .083.118.31.31 0 0 1 .156.11c.06 0 .091.02.091.058a.04.04 0 0 1-.024.038.212.212 0 0 1-.087.012H.087z"/></symbol><symbol id="z"><path d="M.556 0H.461L.446.114H.11L.095 0H0v.229h.059a.415.415 0 0 1 .045.11c.009.03.016.069.022.114.006.045.009.099.009.161h.348V.229h.073V0M.353.223v.281H.248A1.178 1.178 0 0 0 .211.278.294.294 0 0 0 .189.223h.164z"/></symbol><symbol id="A"><path d="M.23.228.077.012.005.068.087.19l.045.039-.045.035L0 .385l.07.056.16-.213M.425.23.265 0 .186.062l.087.126.048.041-.048.036L.18.389l.079.062L.425.23z"/></symbol><symbol id="B"><path d="M0 .115h.602V0H0v.115z"/></symbol><symbol id="C"><path d="M0 .7h.095L.11.64h.004a.167.167 0 0 0 .061.056.193.193 0 0 0 .087.018c.063 0 .11-.02.141-.06C.434.614.45.551.45.463A.418.418 0 0 0 .435.347.24.24 0 0 0 .39.26.19.19 0 0 0 .318.205.233.233 0 0 0 .221.186.216.216 0 0 0 .13.205V0H0v.7M.223.604a.089.089 0 0 1-.06-.019A.126.126 0 0 1 .13.528V.32A.138.138 0 0 1 .16.302.135.135 0 0 1 .204.296c.037 0 .065.013.084.039.019.027.028.07.028.131a.196.196 0 0 1-.022.102C.279.592.256.604.223.604z"/></symbol><symbol id="D"><path d="M.323.385H.134V0H0v.5h.323V.385z"/></symbol><symbol id="E"><path d="m.301.228.005.071H.303L.26.226.082 0H0v.5h.13V.262L.124.194h.004l.041.071.18.235h.082V0h-.13v.228z"/></symbol><symbol id="F"><path d="M.378.045A.21.21 0 0 0 .305.012.315.315 0 0 0 .218 0a.247.247 0 0 0-.102.019.176.176 0 0 0-.067.053.231.231 0 0 0-.038.084A.494.494 0 0 0 0 .264c0 .085.019.15.057.195.038.046.093.069.166.069A.298.298 0 0 0 .372.496L.341.39a.257.257 0 0 1-.046.017.195.195 0 0 1-.051.006C.208.413.181.401.162.377.143.354.134.316.134.264c0-.021.002-.041.007-.059A.144.144 0 0 1 .162.158.104.104 0 0 1 .198.126.121.121 0 0 1 .251.115c.022 0 .04.003.056.008a.215.215 0 0 1 .041.021l.03-.099z"/></symbol><symbol id="G"><path d="M.416.385H.275V0H.141v.385H0V.5h.416V.385z"/></symbol><symbol id="H"><path d="M0 .264c0 .085.02.15.062.195.041.046.1.069.174.069.04 0 .075-.006.104-.019A.192.192 0 0 0 .413.455.218.218 0 0 0 .456.372.368.368 0 0 0 .471.264c0-.085-.02-.15-.062-.196A.22.22 0 0 0 .236 0a.261.261 0 0 0-.104.019.206.206 0 0 0-.074.053.24.24 0 0 0-.044.084A.392.392 0 0 0 0 .264m.134 0C.134.242.136.222.14.203A.17.17 0 0 1 .158.154.092.092 0 0 1 .189.121.096.096 0 0 1 .236.11c.034 0 .06.012.076.037a.213.213 0 0 1 .025.117.23.23 0 0 1-.023.111C.299.404.273.418.236.418A.088.088 0 0 1 .161.382C.143.358.134.319.134.264z"/></symbol><symbol id="I"><path d="M.293.197H.13V0H0v.5h.13V.312h.163V.5h.13V0h-.13v.197z"/></symbol><symbol id="J"><path d="M.13.116A.291.291 0 0 1 .187.11c.03 0 .051.005.063.016.012.011.018.029.018.052C.268.199.262.215.25.226.238.237.218.243.19.243A.24.24 0 0 1 .13.236v-.12m0 .213A.258.258 0 0 0 .308.324.135.135 0 0 0 .363.292a.12.12 0 0 0 .03-.05.237.237 0 0 0-.003-.14.13.13 0 0 0-.039-.057.19.19 0 0 0-.07-.034A.435.435 0 0 0 .175 0 2.117 2.117 0 0 0 0 .007v.5h.13V.329m.329.178h.13v-.5h-.13v.5z"/></symbol><symbol id="K"><path d="m.301.228.005.071H.303L.26.226.082 0H0v.5h.13V.262L.124.194h.004l.041.071.18.235h.082V0h-.13v.228M.162.704A.103.103 0 0 1 .185.649.06.06 0 0 1 .228.633a.06.06 0 0 1 .044.016c.011.01.019.029.023.054L.394.678A.143.143 0 0 0 .335.581.195.195 0 0 0 .225.55c-.02 0-.04.002-.06.007a.165.165 0 0 0-.052.022.149.149 0 0 0-.039.04.151.151 0 0 0-.022.059l.11.026z"/></symbol><symbol id="L"><path d="M.165.207H.13V0H0v.5h.13V.287l.031.014L.278.5h.139L.296.31.245.272.301.233.436 0H.287L.165.207z"/></symbol><symbol id="M"><path d="M.014.711h.134V.382L.122.219H.04L.014.382v.329M0 .077a.07.07 0 0 0 .022.055.08.08 0 0 0 .058.021.083.083 0 0 0 .06-.021.07.07 0 0 0 .022-.055A.074.074 0 0 0 .14.021.083.083 0 0 0 .08 0a.08.08 0 0 0-.058.021A.074.074 0 0 0 0 .077z"/></symbol><use xlink:href="#m" transform="matrix(16 0 0 -16 361.737 233.576)" fill="#231f20"/><use xlink:href="#n" transform="matrix(16 0 0 -16 371.513 233.352)" fill="#231f20"/><use xlink:href="#o" transform="matrix(16 0 0 -16 381.785 233.576)" fill="#231f20"/><use xlink:href="#p" transform="matrix(16 0 0 -16 389.577 233.448)" fill="#231f20"/><use xlink:href="#q" transform="matrix(16 0 0 -16 398.617 233.576)" fill="#231f20"/><use xlink:href="#n" transform="matrix(16 0 0 -16 407.129 233.352)" fill="#231f20"/><use xlink:href="#r" transform="matrix(16 0 0 -16 417.241 233.48)" fill="#231f20"/><use xlink:href="#s" transform="matrix(16 0 0 -16 424.809 233.352)" fill="#231f20"/><use xlink:href="#t" transform="matrix(16 0 0 -16 429.063 233.672)" fill="#231f20"/><use xlink:href="#u" transform="matrix(16 0 0 -16 442.44 233.352)" fill="#231f20"/><use xlink:href="#s" transform="matrix(16 0 0 -16 451.127 233.352)" fill="#231f20"/><use xlink:href="#v" transform="matrix(16 0 0 -16 455.64 232.744)" fill="#231f20"/><use xlink:href="#w" transform="matrix(16 0 0 -16 463.271 233.576)" fill="#231f20"/><use xlink:href="#x" transform="matrix(16 0 0 -16 472.311 233.48)" fill="#231f20"/><use xlink:href="#q" transform="matrix(16 0 0 -16 480.007 233.576)" fill="#231f20"/><use xlink:href="#y" transform="matrix(16 0 0 -16 487.96 233.528)" fill="#231f20"/><use xlink:href="#z" transform="matrix(16 0 0 -16 494.487 235.176)" fill="#231f20"/><use xlink:href="#r" transform="matrix(16 0 0 -16 503.975 233.48)" fill="#231f20"/><use xlink:href="#A" transform="matrix(16 0 0 -16 512.087 232.744)" fill="#231f20"/><use xlink:href="#s" transform="matrix(16 0 0 -16 519.351 233.352)" fill="#231f20"/><use xlink:href="#B" transform="matrix(16 0 0 -16 524.438 229.656)" fill="#231f20"/><use xlink:href="#s" transform="matrix(16 0 0 -16 534.534 233.352)" fill="#231f20"/><use xlink:href="#y" transform="matrix(16 0 0 -16 538.934 233.528)" fill="#231f20"/><use xlink:href="#r" transform="matrix(16 0 0 -16 545.862 233.48)" fill="#231f20"/><use xlink:href="#C" transform="matrix(16 0 0 -16 554.342 236.552)" fill="#231f20"/><use xlink:href="#q" transform="matrix(16 0 0 -16 562.598 233.576)" fill="#231f20"/><use xlink:href="#D" transform="matrix(16 0 0 -16 571.11 233.352)" fill="#231f20"/><use xlink:href="#E" transform="matrix(16 0 0 -16 577.126 233.352)" fill="#231f20"/><use xlink:href="#F" transform="matrix(16 0 0 -16 585.462 233.576)" fill="#231f20"/><use xlink:href="#G" transform="matrix(16 0 0 -16 591.798 233.352)" fill="#231f20"/><use xlink:href="#C" transform="matrix(16 0 0 -16 599.382 236.552)" fill="#231f20"/><use xlink:href="#E" transform="matrix(16 0 0 -16 608.022 233.352)" fill="#231f20"/><use xlink:href="#C" transform="matrix(16 0 0 -16 616.741 236.552)" fill="#231f20"/><use xlink:href="#H" transform="matrix(16 0 0 -16 624.998 233.576)" fill="#231f20"/><use xlink:href="#x" transform="matrix(16 0 0 -16 633.973 233.48)" fill="#231f20"/><use xlink:href="#r" transform="matrix(16 0 0 -16 641.51 233.48)" fill="#231f20"/><use xlink:href="#I" transform="matrix(16 0 0 -16 649.99 233.352)" fill="#231f20"/><use xlink:href="#I" transform="matrix(16 0 0 -16 658.582 233.352)" fill="#231f20"/><use xlink:href="#J" transform="matrix(16 0 0 -16 667.173 233.464)" fill="#231f20"/><use xlink:href="#K" transform="matrix(16 0 0 -16 678.421 233.352)" fill="#231f20"/><use xlink:href="#s" transform="matrix(16 0 0 -16 686.23 233.352)" fill="#231f20"/><use xlink:href="#G" transform="matrix(16 0 0 -16 690.02 233.352)" fill="#231f20"/><use xlink:href="#H" transform="matrix(16 0 0 -16 697.092 233.576)" fill="#231f20"/><use xlink:href="#x" transform="matrix(16 0 0 -16 706.068 233.48)" fill="#231f20"/><use xlink:href="#r" transform="matrix(16 0 0 -16 713.604 233.48)" fill="#231f20"/><use xlink:href="#C" transform="matrix(16 0 0 -16 722.084 236.552)" fill="#231f20"/><use xlink:href="#I" transform="matrix(16 0 0 -16 730.724 233.352)" fill="#231f20"/><use xlink:href="#J" transform="matrix(16 0 0 -16 739.316 233.464)" fill="#231f20"/><use xlink:href="#K" transform="matrix(16 0 0 -16 750.564 233.352)" fill="#231f20"/><use xlink:href="#s" transform="matrix(16 0 0 -16 758.372 233.352)" fill="#231f20"/><use xlink:href="#y" transform="matrix(16 0 0 -16 762.772 233.528)" fill="#231f20"/><use xlink:href="#I" transform="matrix(16 0 0 -16 770.244 233.352)" fill="#231f20"/><use xlink:href="#r" transform="matrix(16 0 0 -16 778.292 233.48)" fill="#231f20"/><use xlink:href="#L" transform="matrix(16 0 0 -16 786.772 233.352)" fill="#231f20"/><use xlink:href="#M" transform="matrix(16 0 0 -16 795.06 233.528)" fill="#231f20"/><use xlink:href="#s" transform="matrix(16 0 0 -16 798.388 233.352)" fill="#231f20"/><symbol id="N"><path d="M.477.041A.18.18 0 0 0 .401.009.51.51 0 0 0 .303 0a.328.328 0 0 0-.118.021.264.264 0 0 0-.096.066.316.316 0 0 0-.065.112A.497.497 0 0 0 0 .362c0 .065.009.12.026.166a.322.322 0 0 0 .07.112c.03.03.062.05.098.064.036.013.073.02.11.02A.559.559 0 0 0 .467.7L.447.627a.326.326 0 0 1-.218.008.19.19 0 0 1-.072-.049.253.253 0 0 1-.05-.089.417.417 0 0 1-.019-.135c0-.048.006-.09.018-.126a.264.264 0 0 1 .049-.09.208.208 0 0 1 .074-.054A.299.299 0 0 1 .4.083a.216.216 0 0 1 .057.023l.02-.065z"/></symbol><symbol id="O"><path d="M0 0z"/></symbol><symbol id="P"><path d="M.384.541a.323.323 0 0 0-.02-.109A1.087 1.087 0 0 0 .243.211 2.664 2.664 0 0 0 .165.11L.116.067V.063L.18.074h.218V0H0v.029a3.34 3.34 0 0 1 .117.132 1.513 1.513 0 0 1 .125.183.567.567 0 0 1 .043.095C.295.47.301.5.301.528c0 .033-.01.06-.028.081C.254.631.226.642.188.642A.18.18 0 0 1 .114.626.274.274 0 0 1 .052.591L.019.648c.023.02.051.036.083.047a.306.306 0 0 0 .103.017.206.206 0 0 0 .076-.013.15.15 0 0 0 .091-.09.187.187 0 0 0 .012-.068z"/></symbol><symbol id="Q"><path d="M0 .362c0 .12.02.21.058.271.04.06.096.091.171.091.08 0 .139-.03.175-.09A.529.529 0 0 0 .459.362C.459.242.439.152.4.091A.19.19 0 0 0 .229 0C.149 0 .092.032.055.095A.537.537 0 0 0 0 .362m.083 0c0-.043.003-.083.008-.119A.366.366 0 0 1 .118.151a.17.17 0 0 1 .045-.06A.107.107 0 0 1 .229.07c.05 0 .088.023.111.07a.516.516 0 0 1 .036.222.808.808 0 0 1-.008.118.32.32 0 0 1-.025.093.146.146 0 0 1-.045.06.112.112 0 0 1-.069.021C.179.654.142.63.118.583A.526.526 0 0 1 .083.362z"/></symbol><symbol id="R"><path d="M.038.074h.14v.484l.01.059L.148.57.038.491 0 .542l.22.17h.036V.074h.137V0H.038v.074z"/></symbol><symbol id="S"><path d="M.049 0 .3.586l.044.049L.285.626H0V.7h.418V.673L.13 0H.049z"/></symbol><symbol id="T"><path d="M.292.43H.08V0H0v.5h.292V.43z"/></symbol><symbol id="U"><path d="M0 .262c0 .085.019.15.056.194a.2.2 0 0 0 .163.068c.037 0 .07-.006.097-.019A.17.17 0 0 0 .385.452a.224.224 0 0 0 .04-.083.41.41 0 0 0 .013-.107.296.296 0 0 0-.057-.195C.344.022.29 0 .219 0a.247.247 0 0 0-.098.018.184.184 0 0 0-.068.053.235.235 0 0 0-.04.083A.42.42 0 0 0 0 .262m.083 0c0-.025.002-.05.007-.073A.201.201 0 0 1 .114.128.118.118 0 0 1 .219.07c.09 0 .136.063.136.192 0 .026-.003.05-.008.074a.184.184 0 0 1-.023.061.118.118 0 0 1-.105.057C.129.454.083.391.083.262z"/></symbol><symbol id="V"><path d="M.514 0H.46L.445.127H.069L.054 0H0v.197h.059a.461.461 0 0 1 .046.119 1.693 1.693 0 0 1 .034.311h.302v-.43h.073V0M.361.197v.36h-.15A1.782 1.782 0 0 0 .19.366.76.76 0 0 0 .169.273a.41.41 0 0 0-.03-.076h.222z"/></symbol><symbol id="W"><path d="M.03.471a.288.288 0 0 0 .088.034c.034.007.07.011.106.011A.205.205 0 0 0 .307.502.11.11 0 0 0 .355.465.113.113 0 0 0 .377.416.248.248 0 0 0 .383.362C.383.322.382.283.38.245a2.06 2.06 0 0 1 0-.178.331.331 0 0 1 .011-.061H.332l-.021.07H.306A.17.17 0 0 0 .251.024.224.224 0 0 0 .15 0a.177.177 0 0 0-.06.01.144.144 0 0 0-.047.028.145.145 0 0 0-.032.045A.15.15 0 0 0 0 .142a.126.126 0 0 0 .068.12c.022.012.048.02.078.025.03.005.064.008.101.008h.027c.01 0 .019 0 .028-.002l.003.054c0 .037-.007.062-.022.077S.242.446.203.446A.316.316 0 0 1 .087.425.178.178 0 0 1 .055.411L.03.471M.172.07c.019 0 .035.002.05.007a.12.12 0 0 1 .064.045c.007.01.013.018.016.027v.083a.407.407 0 0 1-.057.002A.461.461 0 0 1 .184.23.175.175 0 0 1 .132.217.09.09 0 0 1 .096.191.063.063 0 0 1 .083.15c0-.023.008-.043.025-.058A.093.093 0 0 1 .172.07z"/></symbol><symbol id="X"><path d="M.41.194H.152L.082 0H0l.265.711h.038L.569 0H.482L.41.194M.179.266h.206L.307.479.282.585H.281L.256.477.179.266z"/></symbol><symbol id="Y"><path d="M.419.321H.083V0H0v.7h.083V.395h.336V.7h.083V0H.419v.321z"/></symbol><symbol id="Z"><path d="M0 .362C0 .479.025.568.074.63c.05.063.12.094.211.094.05 0 .092-.009.128-.026A.234.234 0 0 0 .502.624.31.31 0 0 0 .555.51.594.594 0 0 0 .572.362.422.422 0 0 0 .497.093.255.255 0 0 0 .285 0a.29.29 0 0 0-.127.026.249.249 0 0 0-.089.073.332.332 0 0 0-.052.114A.606.606 0 0 0 0 .362m.088 0a.53.53 0 0 1 .011-.11A.315.315 0 0 1 .135.16.197.197 0 0 1 .196.097.169.169 0 0 1 .285.074c.062 0 .11.023.146.07.035.047.053.12.053.218a.483.483 0 0 1-.012.109.27.27 0 0 1-.036.092.181.181 0 0 1-.062.063.16.16 0 0 1-.089.024A.171.171 0 0 1 .14.579C.105.532.088.46.088.362z"/></symbol><symbol id="aa"><path d="m.183.221.158.228.053-.042L.297.263.249.222.297.186.4.045.348.002.183.221M0 .221l.16.23.054-.043L.116.263.068.222.116.186.22.044.166 0 0 .221z"/></symbol><symbol id="ab"><path d="M.308.098a.248.248 0 0 0-.171.011.19.19 0 0 0-.072.05.254.254 0 0 0-.048.086A.41.41 0 0 0 0 .37c0 .045.006.086.017.121a.266.266 0 0 0 .05.091.216.216 0 0 0 .078.056c.03.013.063.02.1.02A.626.626 0 0 0 .308.654V.74H.39V.651a.187.187 0 0 0 .042.006l.041.001A.219.219 0 0 0 .562.64.187.187 0 0 0 .633.588.232.232 0 0 0 .681.501.39.39 0 0 0 .698.38a.359.359 0 0 0-.02-.125.258.258 0 0 0-.052-.09.213.213 0 0 0-.077-.054.246.246 0 0 0-.094-.018L.422.094A.137.137 0 0 0 .39.1V0H.308v.098m.153.49L.425.587A.126.126 0 0 1 .389.581V.166A.201.201 0 0 1 .415.163h.033c.023 0 .044.004.063.013.02.009.037.022.052.04.015.018.027.04.036.068.009.027.013.06.013.096 0 .03-.004.059-.011.084a.2.2 0 0 1-.03.067.131.131 0 0 1-.11.057M.241.163h.032a1.743 1.743 0 0 1 .036.006v.415a.283.283 0 0 1-.061.004.15.15 0 0 1-.064-.014.135.135 0 0 1-.051-.041.204.204 0 0 1-.035-.068A.34.34 0 0 1 .086.37.32.32 0 0 1 .097.283.203.203 0 0 1 .128.218.143.143 0 0 1 .177.177c.02-.01.04-.014.064-.014z"/></symbol><symbol id="ac"><path d="M.13.324H.083V0H0v.7h.083V.374l.045.014L.363.7h.096L.225.399.183.366l.051-.04L.49 0H.385L.13.324z"/></symbol><symbol id="ad"><path d="M.095.343v.07h.038l.026.001.026.001c.009 0 .016.002.021.003a.23.23 0 0 1 .049.013.15.15 0 0 1 .04.025c.011.01.02.022.027.035A.122.122 0 0 1 .321.59a.11.11 0 0 1-.076.054.454.454 0 0 1-.207-.02L.016.69a.522.522 0 0 0 .267.025.193.193 0 0 0 .069-.028.134.134 0 0 0 .049-.053A.162.162 0 0 0 .42.552.162.162 0 0 0 .387.456.184.184 0 0 0 .288.391V.387A.185.185 0 0 0 .4.334.16.16 0 0 0 .441.219.203.203 0 0 0 .359.052a.245.245 0 0 0-.084-.04A.387.387 0 0 0 .179 0 .613.613 0 0 0 0 .026l.021.075A.275.275 0 0 1 .085.082.548.548 0 0 1 .186.074c.02 0 .041.003.061.008A.17.17 0 0 1 .3.108a.134.134 0 0 1 .038.044c.01.017.015.038.015.062 0 .042-.015.073-.044.092a.23.23 0 0 1-.115.035.277.277 0 0 1-.023.001.211.211 0 0 1-.021.001H.095z"/></symbol><symbol id="ae"><path d="m0 .506.073.005c.026.002.058.003.096.003.066 0 .113-.01.142-.031C.34.463.354.433.354.391A.13.13 0 0 0 .333.322.12.12 0 0 0 .266.273V.269C.306.262.333.248.349.228a.124.124 0 0 0 .024-.08C.373.096.354.058.317.035A.322.322 0 0 0 .149 0 2.372 2.372 0 0 0 0 .008v.498M.08.074A.752.752 0 0 1 .161.07.2.2 0 0 1 .26.089c.022.013.033.034.033.065a.07.07 0 0 1-.028.058C.247.227.215.235.168.235H.08V.074m.098.222a.104.104 0 0 1 .087.047c.006.01.009.02.009.03C.274.4.266.418.25.428.234.438.206.444.166.444A1.02 1.02 0 0 1 .08.441V.296h.098z"/></symbol><symbol id="af"><path d="M.393.052A.226.226 0 0 0 .317.014a.321.321 0 0 0-.195.004.183.183 0 0 0-.069.053.235.235 0 0 0-.04.083A.413.413 0 0 0 0 .262c0 .085.019.15.057.195.038.045.092.067.163.067A.296.296 0 0 0 .288.516.146.146 0 0 0 .349.488a.15.15 0 0 0 .044-.06A.25.25 0 0 0 .41.327.496.496 0 0 0 .404.254H.083c0-.03.003-.055.009-.078A.129.129 0 0 1 .169.082.208.208 0 0 1 .244.07a.203.203 0 0 1 .119.04l.03-.058M.221.454A.14.14 0 0 1 .126.423C.103.403.089.367.084.317h.248c0 .05-.01.086-.029.106a.107.107 0 0 1-.082.031z"/></symbol><symbol id="ag"><path d="M.087.232v.065h.07a.12.12 0 0 1 .067.022c.01.007.017.016.022.025a.06.06 0 0 1 .009.031C.255.401.246.419.228.43a.162.162 0 0 1-.081.016.21.21 0 0 1-.072-.012.303.303 0 0 1-.05-.023L.002.473a.322.322 0 0 0 .167.043c.11 0 .166-.041.166-.123A.122.122 0 0 0 .312.324.12.12 0 0 0 .248.277V.273C.288.266.315.252.33.231A.13.13 0 0 0 .354.149.13.13 0 0 0 .302.043.203.203 0 0 0 .236.011.337.337 0 0 0 .145 0 .339.339 0 0 0 0 .031l.023.066a.197.197 0 0 1 .055-.02A.342.342 0 0 1 .149.07a.17.17 0 0 1 .093.021c.021.014.032.035.032.064 0 .024-.01.043-.03.056C.224.225.191.232.145.232H.087z"/></symbol><symbol id="ah"><path d="M.218.23.058.002.006.044l.096.144.049.041-.049.036L0 .406l.052.043L.218.23M.4.23.24 0 .186.043l.098.145.048.041-.048.036L.18.407l.053.044L.4.23z"/></symbol><symbol id="ai"><path d="m.312.296.003.062H.312L.271.294.046 0H0v.5h.08V.195L.077.136h.004L.12.198.345.5h.047V0h-.08v.296z"/></symbol><symbol id="aj"><path d="m.413.297.006.095H.414L.378.315.257.119H.229L.103.315.07.392H.066L.074.298V0H0v.5h.079l.14-.224.029-.058H.25l.03.06L.411.5h.08V0H.413v.297z"/></symbol><symbol id="ak"><path d="M.394.43H.237V0h-.08v.43H0V.5h.394V.43z"/></symbol><symbol id="al"><path d="M.369.045A.211.211 0 0 0 .298.012a.305.305 0 0 0-.184.006.178.178 0 0 0-.066.053.242.242 0 0 0-.037.083A.494.494 0 0 0 0 .262c0 .085.019.15.056.194.037.045.091.068.161.068A.35.35 0 0 0 .359.495L.336.426a.203.203 0 0 1-.051.02.218.218 0 0 1-.06.008C.13.454.083.39.083.262c0-.025.002-.05.007-.073A.2.2 0 0 1 .115.128.14.14 0 0 1 .161.086.145.145 0 0 1 .232.07a.181.181 0 0 1 .111.036L.369.045z"/></symbol><symbol id="am"><path d="M.126.225H.08V0H0v.5h.08V.274l.043.014.16.212H.37L.215.299.173.266l.052-.04L.392 0H.293L.126.225z"/></symbol><symbol id="an"><path d="M.351.434H.206A9.016 9.016 0 0 1 .2.343a1.64 1.64 0 0 0-.025-.19.382.382 0 0 0-.026-.078A.161.161 0 0 0 .111.02.076.076 0 0 0 .058 0C.045 0 .034 0 .025.002A.091.091 0 0 0 0 .009l.012.067A.082.082 0 0 1 .038.072c.013 0 .025.006.036.017.01.011.02.033.028.064a.938.938 0 0 1 .02.132c.005.056.009.129.011.219h.298v-.5h-.08v.43z"/></symbol><symbol id="ao"><path d="M.388 0a.244.244 0 0 0-.093.016.172.172 0 0 0-.063.047.227.227 0 0 0-.037.074.467.467 0 0 0-.015.096h-.1V.012H0v.5h.08V.303h.101a.274.274 0 0 0 .058.164C.273.505.323.524.39.524A.206.206 0 0 0 .483.505.152.152 0 0 0 .546.452.22.22 0 0 0 .582.369.48.48 0 0 0 .593.262.32.32 0 0 0 .542.067C.509.022.457 0 .388 0M.259.262c0-.026.002-.05.006-.074A.194.194 0 0 1 .286.126a.112.112 0 0 1 .04-.041A.126.126 0 0 1 .39.07c.043 0 .073.015.092.046a.438.438 0 0 1 .022.22.182.182 0 0 1-.019.061.108.108 0 0 1-.037.042.106.106 0 0 1-.059.015c-.046 0-.08-.016-.1-.047a.272.272 0 0 1-.03-.145z"/></symbol><symbol id="ap"><path d="M.08.5V.364C.08.346.081.33.083.315A.105.105 0 0 1 .095.278.065.065 0 0 1 .121.254.107.107 0 0 1 .166.246a.23.23 0 0 1 .074.01.15.15 0 0 1 .044.022V.5h.08V0h-.08v.21A.246.246 0 0 0 .15.176a.237.237 0 0 0-.065.008.102.102 0 0 0-.047.028.13.13 0 0 0-.029.053A.322.322 0 0 0 0 .348V.5h.08z"/></symbol><symbol id="aq"><path d="M.08.076A.444.444 0 0 1 .151.07c.042 0 .073.008.093.024.02.017.03.04.03.07 0 .027-.01.049-.029.066-.02.017-.05.026-.091.026L.117.255A.159.159 0 0 1 .08.249V.076m0 .239A.28.28 0 0 0 .256.31.15.15 0 0 0 .314.279.113.113 0 0 0 .347.231a.166.166 0 0 0 .01-.058C.357.113.339.068.302.041.266.014.21 0 .133 0 .09 0 .046.002 0 .006v.5h.08V.315z"/></symbol><symbol id="ar"><path d="M.306.221H.08V0H0v.5h.08V.291h.226V.5h.08V0h-.08v.221z"/></symbol><symbol id="as"><path d="M.301.43H.08V0H0v.5h.381V0h-.08v.43z"/></symbol><symbol id="at"><path d="M0 .7h.055L.07.64h.004a.15.15 0 0 0 .059.053.181.181 0 0 0 .084.019c.067 0 .116-.02.149-.059C.399.613.415.549.415.46A.36.36 0 0 0 .398.346.242.242 0 0 0 .352.261.203.203 0 0 0 .279.207.277.277 0 0 0 .126.193.216.216 0 0 0 .08.208V0H0v.7M.202.642A.117.117 0 0 1 .121.615.147.147 0 0 1 .08.535V.287A.142.142 0 0 1 .121.265.216.216 0 0 1 .182.258c.046 0 .082.017.109.051a.242.242 0 0 1 .041.152.358.358 0 0 1-.007.074.153.153 0 0 1-.023.057.102.102 0 0 1-.04.037.125.125 0 0 1-.06.013z"/></symbol><use xlink:href="#N" transform="matrix(16 0 0 -16 362.313 271.944)" fill="#231f20"/><use xlink:href="#O" transform="matrix(16 0 0 -16 369.913 271.752)" fill="#231f20"/><use xlink:href="#P" transform="matrix(16 0 0 -16 375.177 271.752)" fill="#231f20"/><use xlink:href="#Q" transform="matrix(16 0 0 -16 383.593 271.944)" fill="#231f20"/><use xlink:href="#R" transform="matrix(16 0 0 -16 392.745 271.752)" fill="#231f20"/><use xlink:href="#S" transform="matrix(16 0 0 -16 401.321 271.752)" fill="#231f20"/><use xlink:href="#O" transform="matrix(16 0 0 -16 408.201 271.752)" fill="#231f20"/><use xlink:href="#T" transform="matrix(16 0 0 -16 413.705 271.752)" fill="#231f20"/><use xlink:href="#U" transform="matrix(16 0 0 -16 418.905 271.944)" fill="#231f20"/><use xlink:href="#V" transform="matrix(16 0 0 -16 426.68 273.784)" fill="#231f20"/><use xlink:href="#W" transform="matrix(16 0 0 -16 435.88 271.88)" fill="#231f20"/><use xlink:href="#O" transform="matrix(16 0 0 -16 443.193 271.752)" fill="#231f20"/><use xlink:href="#X" transform="matrix(16 0 0 -16 447.08 271.752)" fill="#231f20"/><use xlink:href="#Y" transform="matrix(16 0 0 -16 457.673 271.752)" fill="#231f20"/><use xlink:href="#Z" transform="matrix(16 0 0 -16 467.961 271.944)" fill="#231f20"/><use xlink:href="#O" transform="matrix(16 0 0 -16 478.009 271.752)" fill="#231f20"/><use xlink:href="#aa" transform="matrix(16 0 0 -16 482.905 271.144)" fill="#231f20"/><use xlink:href="#ab" transform="matrix(16 0 0 -16 490.585 272.072)" fill="#231f20"/><use xlink:href="#ac" transform="matrix(16 0 0 -16 503.769 271.752)" fill="#231f20"/><use xlink:href="#O" transform="matrix(16 0 0 -16 512.169 271.752)" fill="#231f20"/><use xlink:href="#aa" transform="matrix(16 0 0 -16 517.065 271.144)" fill="#231f20"/><use xlink:href="#ad" transform="matrix(16 0 0 -16 524.793 271.944)" fill="#231f20"/><use xlink:href="#ae" transform="matrix(16 0 0 -16 533.977 271.864)" fill="#231f20"/><use xlink:href="#af" transform="matrix(16 0 0 -16 541.513 271.944)" fill="#231f20"/><use xlink:href="#ag" transform="matrix(16 0 0 -16 549.465 271.896)" fill="#231f20"/><use xlink:href="#V" transform="matrix(16 0 0 -16 555.993 273.784)" fill="#231f20"/><use xlink:href="#W" transform="matrix(16 0 0 -16 565.193 271.88)" fill="#231f20"/><use xlink:href="#ah" transform="matrix(16 0 0 -16 573.129 271.144)" fill="#231f20"/><use xlink:href="#O" transform="matrix(16 0 0 -16 580.153 271.752)" fill="#231f20"/><use xlink:href="#ai" transform="matrix(16 0 0 -16 585.657 271.752)" fill="#231f20"/><use xlink:href="#aj" transform="matrix(16 0 0 -16 594.393 271.752)" fill="#231f20"/><use xlink:href="#af" transform="matrix(16 0 0 -16 604.265 271.944)" fill="#231f20"/><use xlink:href="#af" transform="matrix(16 0 0 -16 612.214 271.944)" fill="#231f20"/><use xlink:href="#ak" transform="matrix(16 0 0 -16 619.59 271.752)" fill="#231f20"/><use xlink:href="#O" transform="matrix(16 0 0 -16 625.43 271.752)" fill="#231f20"/><use xlink:href="#ai" transform="matrix(16 0 0 -16 630.934 271.752)" fill="#231f20"/><use xlink:href="#al" transform="matrix(16 0 0 -16 639.222 271.944)" fill="#231f20"/><use xlink:href="#am" transform="matrix(16 0 0 -16 646.886 271.752)" fill="#231f20"/><use xlink:href="#an" transform="matrix(16 0 0 -16 653.702 271.816)" fill="#231f20"/><use xlink:href="#ao" transform="matrix(16 0 0 -16 663.062 271.944)" fill="#231f20"/><use xlink:href="#ap" transform="matrix(16 0 0 -16 674.118 271.752)" fill="#231f20"/><use xlink:href="#ai" transform="matrix(16 0 0 -16 682.406 271.752)" fill="#231f20"/><use xlink:href="#ak" transform="matrix(16 0 0 -16 689.942 271.752)" fill="#231f20"/><use xlink:href="#af" transform="matrix(16 0 0 -16 696.806 271.944)" fill="#231f20"/><use xlink:href="#an" transform="matrix(16 0 0 -16 703.718 271.816)" fill="#231f20"/><use xlink:href="#aq" transform="matrix(16 0 0 -16 713.078 271.848)" fill="#231f20"/><use xlink:href="#ar" transform="matrix(16 0 0 -16 720.502 271.752)" fill="#231f20"/><use xlink:href="#U" transform="matrix(16 0 0 -16 728.694 271.944)" fill="#231f20"/><use xlink:href="#af" transform="matrix(16 0 0 -16 737.27 271.944)" fill="#231f20"/><use xlink:href="#O" transform="matrix(16 0 0 -16 744.614 271.752)" fill="#231f20"/><use xlink:href="#as" transform="matrix(16 0 0 -16 750.118 271.752)" fill="#231f20"/><use xlink:href="#at" transform="matrix(16 0 0 -16 758.678 274.952)" fill="#231f20"/><use xlink:href="#W" transform="matrix(16 0 0 -16 766.726 271.88)" fill="#231f20"/><use xlink:href="#ae" transform="matrix(16 0 0 -16 775.27 271.864)" fill="#231f20"/><use xlink:href="#U" transform="matrix(16 0 0 -16 782.806 271.944)" fill="#231f20"/><use xlink:href="#O" transform="matrix(16 0 0 -16 790.598 271.752)" fill="#231f20"/><symbol id="au"><path d="M.212.381.24.285h.005l.022.097.097.323h.081L.297.256A5.035 5.035 0 0 0 .263.161.522.522 0 0 0 .227.079.2.2 0 0 0 .182.022.085.085 0 0 0 .124 0a.15.15 0 0 0-.059.01l.014.069A.07.07 0 0 1 .104.074c.019 0 .037.01.054.03.017.02.032.053.043.101L0 .705h.092l.12-.324z"/></symbol><symbol id="av"><path d="M.074.423A.19.19 0 0 0 .147.49c.027.013.06.02.1.02C.308.51.355.49.388.45.421.41.438.351.438.273.438.183.418.115.38.069A.196.196 0 0 0 .22 0C.147 0 .092.025.055.076.018.126 0 .206 0 .315c0 .057.003.106.008.147.006.04.014.075.025.103a.22.22 0 0 0 .04.067c.016.017.034.03.053.039.02.01.042.017.065.021l.075.01a.803.803 0 0 1 .081.011c.02.005.036.013.048.024L.404.665A.099.099 0 0 0 .382.65.133.133 0 0 0 .353.64.844.844 0 0 0 .258.628.461.461 0 0 1 .182.617.12.12 0 0 1 .126.588.146.146 0 0 1 .089.527.448.448 0 0 1 .071.423h.003M.083.261c0-.025.003-.05.008-.073A.215.215 0 0 1 .115.126.12.12 0 0 1 .219.07c.046 0 .08.016.102.049a.262.262 0 0 1 .034.147.328.328 0 0 1-.007.07.164.164 0 0 1-.022.055.098.098 0 0 1-.038.036.11.11 0 0 1-.055.013C.181.44.143.425.119.394A.212.212 0 0 1 .083.261z"/></symbol><symbol id="aw"><path d="M0 .058C0 .076.005.09.015.1c.01.01.025.016.042.016A.058.058 0 0 0 .1.1.055.055 0 0 0 .116.058.057.057 0 0 0 .1.016.058.058 0 0 0 .057 0a.057.057 0 0 0-.042.016A.059.059 0 0 0 0 .058z"/></symbol><use xlink:href="#ar" transform="matrix(16 0 0 -16 362.649 290.952)" fill="#231f20"/><use xlink:href="#W" transform="matrix(16 0 0 -16 370.681 291.08)" fill="#231f20"/><use xlink:href="#O" transform="matrix(16 0 0 -16 377.993 290.952)" fill="#231f20"/><use xlink:href="#ai" transform="matrix(16 0 0 -16 383.497 290.952)" fill="#231f20"/><use xlink:href="#al" transform="matrix(16 0 0 -16 391.785 291.144)" fill="#231f20"/><use xlink:href="#as" transform="matrix(16 0 0 -16 399.449 290.952)" fill="#231f20"/><use xlink:href="#U" transform="matrix(16 0 0 -16 407.561 291.144)" fill="#231f20"/><use xlink:href="#an" transform="matrix(16 0 0 -16 415.175 291.016)" fill="#231f20"/><use xlink:href="#aq" transform="matrix(16 0 0 -16 424.535 291.048)" fill="#231f20"/><use xlink:href="#ag" transform="matrix(16 0 0 -16 431.335 291.096)" fill="#231f20"/><use xlink:href="#U" transform="matrix(16 0 0 -16 438.567 291.144)" fill="#231f20"/><use xlink:href="#ae" transform="matrix(16 0 0 -16 447.591 291.064)" fill="#231f20"/><use xlink:href="#W" transform="matrix(16 0 0 -16 454.967 291.08)" fill="#231f20"/><use xlink:href="#ar" transform="matrix(16 0 0 -16 463.511 290.952)" fill="#231f20"/><use xlink:href="#ai" transform="matrix(16 0 0 -16 472.151 290.952)" fill="#231f20"/><use xlink:href="#af" transform="matrix(16 0 0 -16 480.44 291.144)" fill="#231f20"/><use xlink:href="#O" transform="matrix(16 0 0 -16 487.783 290.952)" fill="#231f20"/><use xlink:href="#ak" transform="matrix(16 0 0 -16 491.72 290.952)" fill="#231f20"/><use xlink:href="#U" transform="matrix(16 0 0 -16 498.583 291.144)" fill="#231f20"/><use xlink:href="#ae" transform="matrix(16 0 0 -16 507.607 291.064)" fill="#231f20"/><use xlink:href="#W" transform="matrix(16 0 0 -16 514.983 291.08)" fill="#231f20"/><use xlink:href="#at" transform="matrix(16 0 0 -16 523.527 294.152)" fill="#231f20"/><use xlink:href="#ar" transform="matrix(16 0 0 -16 532.183 290.952)" fill="#231f20"/><use xlink:href="#U" transform="matrix(16 0 0 -16 540.375 291.144)" fill="#231f20"/><use xlink:href="#T" transform="matrix(16 0 0 -16 549.4 290.952)" fill="#231f20"/><use xlink:href="#U" transform="matrix(16 0 0 -16 554.598 291.144)" fill="#231f20"/><use xlink:href="#O" transform="matrix(16 0 0 -16 562.39 290.952)" fill="#231f20"/><use xlink:href="#ag" transform="matrix(16 0 0 -16 567.27 291.096)" fill="#231f20"/><use xlink:href="#ar" transform="matrix(16 0 0 -16 574.95 290.952)" fill="#231f20"/><use xlink:href="#W" transform="matrix(16 0 0 -16 582.982 291.08)" fill="#231f20"/><use xlink:href="#am" transform="matrix(16 0 0 -16 591.526 290.952)" fill="#231f20"/><use xlink:href="#W" transform="matrix(16 0 0 -16 598.566 291.08)" fill="#231f20"/><use xlink:href="#O" transform="matrix(16 0 0 -16 605.878 290.952)" fill="#231f20"/><use xlink:href="#am" transform="matrix(16 0 0 -16 611.382 290.952)" fill="#231f20"/><use xlink:href="#an" transform="matrix(16 0 0 -16 618.198 291.016)" fill="#231f20"/><use xlink:href="#au" transform="matrix(16 0 0 -16 626.518 294.232)" fill="#231f20"/><use xlink:href="#av" transform="matrix(16 0 0 -16 634.566 291.144)" fill="#231f20"/><use xlink:href="#W" transform="matrix(16 0 0 -16 642.982 291.08)" fill="#231f20"/><use xlink:href="#aw" transform="matrix(16 0 0 -16 651.078 291.144)" fill="#231f20"/><use xlink:href="#O" transform="matrix(16 0 0 -16 652.468 290.952)" fill="#231f20"/><symbol id="ax"><path d="M0 .693a.88.88 0 0 0 .265.005.198.198 0 0 0 .073-.033.166.166 0 0 0 .051-.06.195.195 0 0 0 .019-.09.194.194 0 0 0-.045-.133.217.217 0 0 0-.114-.068L.297.277.471 0H.374L.181.302.083.317V0H0v.693M.18.636H.153A.352.352 0 0 1 .083.63V.372h.078c.046 0 .084.011.114.034.03.023.045.058.045.106a.117.117 0 0 1-.037.089.144.144 0 0 1-.103.035z"/></symbol><symbol id="ay"><path d="M.402.709h.08V.242A.315.315 0 0 0 .465.133.191.191 0 0 0 .418.057.186.186 0 0 0 .345.014.306.306 0 0 0 .25 0C.167 0 .105.019.063.056.021.093 0 .15 0 .226v.483h.083V.265a.35.35 0 0 1 .01-.09.152.152 0 0 1 .032-.059.122.122 0 0 1 .052-.032.248.248 0 0 1 .074-.01c.054 0 .093.015.116.044.023.03.035.079.035.147v.444z"/></symbol><symbol id="az"><path d="M.136.07C.182.07.22.083.25.11c.03.027.045.065.045.116C.295.275.28.311.25.335a.187.187 0 0 1-.122.036L.044.366v.346h.312V.638H.119V.439l.043.002A.221.221 0 0 0 .318.386C.356.35.375.298.375.231a.25.25 0 0 0-.019-.1.215.215 0 0 0-.128-.116A.29.29 0 0 0 .134 0a.488.488 0 0 0-.076.005A.308.308 0 0 0 0 .02l.021.068A.279.279 0 0 1 .136.07z"/></symbol><symbol id="aA"><path d="M.146.07C.169.07.19.073.209.08c.02.007.036.016.05.029a.146.146 0 0 1 .045.106C.304.262.29.296.262.319a.174.174 0 0 1-.114.034H.074v.029l.144.222.046.044-.065-.01H.001v.074h.357V.683L.199.444.164.415V.413L.198.42A.206.206 0 0 0 .272.405a.174.174 0 0 0 .098-.1.214.214 0 0 0 .014-.08.23.23 0 0 0-.019-.096.206.206 0 0 0-.128-.114A.286.286 0 0 0 .144 0 .426.426 0 0 0 0 .025l.021.071A.298.298 0 0 1 .075.077.333.333 0 0 1 .146.07z"/></symbol><symbol id="aB"><path d="M0 .5c0 .032.005.062.014.089a.187.187 0 0 0 .108.118.247.247 0 0 0 .095.017.199.199 0 0 0 .159-.066.276.276 0 0 0 .057-.186.679.679 0 0 0-.026-.198.429.429 0 0 0-.07-.142A.332.332 0 0 0 .23.041.387.387 0 0 0 .097 0L.079.064a.318.318 0 0 1 .104.034.32.32 0 0 1 .135.149.414.414 0 0 1 .029.106.152.152 0 0 0-.06-.045.247.247 0 0 0-.085-.012.2.2 0 0 0-.142.053.183.183 0 0 0-.044.064A.223.223 0 0 0 0 .5m.083.008C.083.461.095.425.12.401A.14.14 0 0 1 .219.366a.2.2 0 0 1 .084.016c.023.01.04.025.05.042a.153.153 0 0 1 .002.023v.021a.261.261 0 0 1-.034.129.118.118 0 0 1-.045.042.13.13 0 0 1-.064.015.12.12 0 0 1-.095-.039.155.155 0 0 1-.034-.107z"/></symbol><symbol id="aC"><path d="M0 .179c0 .042.011.078.033.109.022.031.056.06.103.085a.256.256 0 0 0-.085.069.189.189 0 0 0-.026.047.183.183 0 0 0-.009.06.162.162 0 0 0 .113.162.237.237 0 0 0 .081.013.227.227 0 0 0 .076-.012.165.165 0 0 0 .057-.033.144.144 0 0 0 .05-.114.195.195 0 0 0-.026-.101.297.297 0 0 0-.086-.085A.42.42 0 0 0 .33.346a.213.213 0 0 0 .069-.09.216.216 0 0 0-.004-.141.173.173 0 0 0-.107-.101A.263.263 0 0 0 .199 0a.24.24 0 0 0-.085.014.192.192 0 0 0-.063.038.16.16 0 0 0-.038.056A.192.192 0 0 0 0 .179m.331.01c0 .02-.004.037-.012.052a.227.227 0 0 1-.076.075.96.96 0 0 1-.052.029.231.231 0 0 1-.087-.076.153.153 0 0 1-.026-.08c0-.016.003-.031.008-.046A.103.103 0 0 1 .11.105C.12.095.134.085.149.079A.164.164 0 0 1 .252.077a.129.129 0 0 1 .04.022c.012.01.021.022.028.037a.121.121 0 0 1 .011.053M.094.551a.11.11 0 0 1 .011-.05.144.144 0 0 1 .029-.038.313.313 0 0 1 .043-.032.882.882 0 0 1 .05-.027c.03.023.052.046.066.069a.135.135 0 0 1 .022.075c0 .034-.01.06-.032.078a.108.108 0 0 1-.075.028.12.12 0 0 1-.084-.032.095.095 0 0 1-.03-.071z"/></symbol><symbol id="aD"><path d="M.08.076A.444.444 0 0 1 .151.07c.042 0 .071.008.088.024.017.017.025.04.025.07A.091.091 0 0 1 .239.23C.223.247.195.256.154.256L.117.255A.159.159 0 0 1 .08.249V.076m0 .239A.258.258 0 0 0 .253.31.141.141 0 0 0 .309.279.105.105 0 0 0 .338.231.182.182 0 0 0 .347.173C.347.113.33.068.296.041.263.014.208 0 .133 0 .09 0 .046.002 0 .006v.5h.08V.315m.346.191h.08v-.5h-.08v.5z"/></symbol><symbol id="aE"><path d="m.312.296.003.062H.312L.271.294.046 0H0v.5h.08V.195L.077.136h.004L.12.198.345.5h.047V0h-.08v.296M.115.702C.122.672.133.65.149.638A.095.095 0 0 1 .206.62c.021 0 .04.006.057.019a.1.1 0 0 1 .034.062l.06-.019A.129.129 0 0 0 .305.593.165.165 0 0 0 .204.562.214.214 0 0 0 .15.569.158.158 0 0 0 .103.59a.132.132 0 0 0-.056.088l.068.024z"/></symbol><use xlink:href="#N" transform="matrix(16 0 0 -16 362.313 310.344)" fill="#231f20"/><use xlink:href="#ae" transform="matrix(16 0 0 -16 371.785 310.264)" fill="#231f20"/><use xlink:href="#ai" transform="matrix(16 0 0 -16 379.769 310.152)" fill="#231f20"/><use xlink:href="#V" transform="matrix(16 0 0 -16 387.353 312.184)" fill="#231f20"/><use xlink:href="#af" transform="matrix(16 0 0 -16 396.713 310.344)" fill="#231f20"/><use xlink:href="#ak" transform="matrix(16 0 0 -16 404.089 310.152)" fill="#231f20"/><use xlink:href="#af" transform="matrix(16 0 0 -16 410.953 310.344)" fill="#231f20"/><use xlink:href="#an" transform="matrix(16 0 0 -16 417.865 310.216)" fill="#231f20"/><use xlink:href="#aq" transform="matrix(16 0 0 -16 427.225 310.248)" fill="#231f20"/><use xlink:href="#al" transform="matrix(16 0 0 -16 434.025 310.344)" fill="#231f20"/><use xlink:href="#ak" transform="matrix(16 0 0 -16 440.233 310.152)" fill="#231f20"/><use xlink:href="#ae" transform="matrix(16 0 0 -16 447.801 310.264)" fill="#231f20"/><use xlink:href="#U" transform="matrix(16 0 0 -16 455.337 310.344)" fill="#231f20"/><use xlink:href="#O" transform="matrix(16 0 0 -16 463.129 310.152)" fill="#231f20"/><use xlink:href="#ax" transform="matrix(16 0 0 -16 468.761 310.152)" fill="#231f20"/><use xlink:href="#ay" transform="matrix(16 0 0 -16 478.281 310.296)" fill="#231f20"/><use xlink:href="#P" transform="matrix(16 0 0 -16 488.345 310.152)" fill="#231f20"/><use xlink:href="#Q" transform="matrix(16 0 0 -16 496.761 310.344)" fill="#231f20"/><use xlink:href="#R" transform="matrix(16 0 0 -16 505.913 310.152)" fill="#231f20"/><use xlink:href="#az" transform="matrix(16 0 0 -16 514.745 310.344)" fill="#231f20"/><use xlink:href="#S" transform="matrix(16 0 0 -16 523.209 310.152)" fill="#231f20"/><use xlink:href="#aA" transform="matrix(16 0 0 -16 532.361 310.344)" fill="#231f20"/><use xlink:href="#aB" transform="matrix(16 0 0 -16 540.505 310.344)" fill="#231f20"/><use xlink:href="#Q" transform="matrix(16 0 0 -16 549.08 310.344)" fill="#231f20"/><use xlink:href="#P" transform="matrix(16 0 0 -16 558.105 310.152)" fill="#231f20"/><use xlink:href="#aC" transform="matrix(16 0 0 -16 566.92 310.344)" fill="#231f20"/><use xlink:href="#O" transform="matrix(16 0 0 -16 574.553 310.152)" fill="#231f20"/><use xlink:href="#O" transform="matrix(16 0 0 -16 578.825 310.152)" fill="#231f20"/><use xlink:href="#av" transform="matrix(16 0 0 -16 583.88 310.344)" fill="#231f20"/><use xlink:href="#aD" transform="matrix(16 0 0 -16 592.905 310.248)" fill="#231f20"/><use xlink:href="#an" transform="matrix(16 0 0 -16 602.153 310.216)" fill="#231f20"/><use xlink:href="#U" transform="matrix(16 0 0 -16 611.065 310.344)" fill="#231f20"/><use xlink:href="#O" transform="matrix(16 0 0 -16 618.857 310.152)" fill="#231f20"/><use xlink:href="#ae" transform="matrix(16 0 0 -16 624.36 310.264)" fill="#231f20"/><use xlink:href="#aD" transform="matrix(16 0 0 -16 632.345 310.248)" fill="#231f20"/><use xlink:href="#V" transform="matrix(16 0 0 -16 641.753 312.184)" fill="#231f20"/><use xlink:href="#W" transform="matrix(16 0 0 -16 650.953 310.28)" fill="#231f20"/><use xlink:href="#ar" transform="matrix(16 0 0 -16 659.497 310.152)" fill="#231f20"/><use xlink:href="#U" transform="matrix(16 0 0 -16 667.689 310.344)" fill="#231f20"/><use xlink:href="#O" transform="matrix(16 0 0 -16 675.48 310.152)" fill="#231f20"/><use xlink:href="#ab" transform="matrix(16 0 0 -16 680.409 310.472)" fill="#231f20"/><use xlink:href="#af" transform="matrix(16 0 0 -16 693.017 310.344)" fill="#231f20"/><use xlink:href="#V" transform="matrix(16 0 0 -16 700.085 312.184)" fill="#231f20"/><use xlink:href="#af" transform="matrix(16 0 0 -16 709.445 310.344)" fill="#231f20"/><use xlink:href="#at" transform="matrix(16 0 0 -16 718.021 313.352)" fill="#231f20"/><use xlink:href="#W" transform="matrix(16 0 0 -16 726.07 310.28)" fill="#231f20"/><use xlink:href="#an" transform="matrix(16 0 0 -16 733.301 310.216)" fill="#231f20"/><use xlink:href="#aq" transform="matrix(16 0 0 -16 742.661 310.248)" fill="#231f20"/><use xlink:href="#ar" transform="matrix(16 0 0 -16 750.085 310.152)" fill="#231f20"/><use xlink:href="#U" transform="matrix(16 0 0 -16 758.277 310.344)" fill="#231f20"/><use xlink:href="#aE" transform="matrix(16 0 0 -16 767.301 310.152)" fill="#231f20"/><use xlink:href="#O" transform="matrix(16 0 0 -16 774.805 310.152)" fill="#231f20"/><symbol id="aF"><path d="M.239.221.092 0H0l.158.229.034.03-.051.038L.011.5h.085L.234.284h.052V.5h.078V.274l.047.014L.55.5h.084L.498.297.459.265.51.225.658 0H.563L.416.225H.364V0H.286v.235L.239.221z"/></symbol><symbol id="aG"><path d="M0 .693c.025.006.053.01.082.012l.087.003c.03 0 .062-.003.093-.009A.254.254 0 0 0 .349.666.182.182 0 0 0 .412.6.207.207 0 0 0 .437.493a.207.207 0 0 0-.084-.18.252.252 0 0 0-.087-.039.423.423 0 0 0-.101-.012H.124L.1.264a.172.172 0 0 0-.017.002V0H0v.693M.171.636.121.635A.17.17 0 0 1 .083.63V.34A.062.062 0 0 1 .099.337L.122.336a4406.247 4406.247 0 0 0 .039 0c.023 0 .045.002.067.006a.182.182 0 0 1 .061.024.12.12 0 0 1 .043.048c.011.02.017.047.017.079 0 .027-.005.05-.016.068a.113.113 0 0 1-.041.044.162.162 0 0 1-.057.024.299.299 0 0 1-.064.007z"/></symbol><use xlink:href="#al" transform="matrix(16 0 0 -16 362.201 329.544)" fill="#231f20"/><use xlink:href="#an" transform="matrix(16 0 0 -16 368.537 329.416)" fill="#231f20"/><use xlink:href="#au" transform="matrix(16 0 0 -16 376.857 332.632)" fill="#231f20"/><use xlink:href="#aF" transform="matrix(16 0 0 -16 384.137 329.352)" fill="#231f20"/><use xlink:href="#av" transform="matrix(16 0 0 -16 395.449 329.544)" fill="#231f20"/><use xlink:href="#U" transform="matrix(16 0 0 -16 404.025 329.544)" fill="#231f20"/><use xlink:href="#aE" transform="matrix(16 0 0 -16 413.049 329.352)" fill="#231f20"/><use xlink:href="#O" transform="matrix(16 0 0 -16 420.553 329.352)" fill="#231f20"/><use xlink:href="#as" transform="matrix(16 0 0 -16 426.057 329.352)" fill="#231f20"/><use xlink:href="#U" transform="matrix(16 0 0 -16 434.169 329.544)" fill="#231f20"/><use xlink:href="#O" transform="matrix(16 0 0 -16 441.961 329.352)" fill="#231f20"/><use xlink:href="#ai" transform="matrix(16 0 0 -16 447.465 329.352)" fill="#231f20"/><use xlink:href="#ar" transform="matrix(16 0 0 -16 456.201 329.352)" fill="#231f20"/><use xlink:href="#ak" transform="matrix(16 0 0 -16 463.641 329.352)" fill="#231f20"/><use xlink:href="#af" transform="matrix(16 0 0 -16 470.503 329.544)" fill="#231f20"/><use xlink:href="#an" transform="matrix(16 0 0 -16 477.415 329.416)" fill="#231f20"/><use xlink:href="#an" transform="matrix(16 0 0 -16 485.463 329.416)" fill="#231f20"/><use xlink:href="#af" transform="matrix(16 0 0 -16 494.375 329.544)" fill="#231f20"/><use xlink:href="#am" transform="matrix(16 0 0 -16 502.951 329.352)" fill="#231f20"/><use xlink:href="#ak" transform="matrix(16 0 0 -16 509.4 329.352)" fill="#231f20"/><use xlink:href="#au" transform="matrix(16 0 0 -16 515.927 332.632)" fill="#231f20"/><use xlink:href="#W" transform="matrix(16 0 0 -16 523.815 329.48)" fill="#231f20"/><use xlink:href="#an" transform="matrix(16 0 0 -16 531.047 329.416)" fill="#231f20"/><use xlink:href="#aq" transform="matrix(16 0 0 -16 540.407 329.448)" fill="#231f20"/><use xlink:href="#ar" transform="matrix(16 0 0 -16 547.831 329.352)" fill="#231f20"/><use xlink:href="#U" transform="matrix(16 0 0 -16 556.023 329.544)" fill="#231f20"/><use xlink:href="#aE" transform="matrix(16 0 0 -16 565.047 329.352)" fill="#231f20"/><use xlink:href="#O" transform="matrix(16 0 0 -16 572.551 329.352)" fill="#231f20"/><use xlink:href="#al" transform="matrix(16 0 0 -16 577.607 329.544)" fill="#231f20"/><use xlink:href="#U" transform="matrix(16 0 0 -16 584.454 329.544)" fill="#231f20"/><use xlink:href="#av" transform="matrix(16 0 0 -16 593.03 329.544)" fill="#231f20"/><use xlink:href="#al" transform="matrix(16 0 0 -16 601.606 329.544)" fill="#231f20"/><use xlink:href="#ak" transform="matrix(16 0 0 -16 607.814 329.352)" fill="#231f20"/><use xlink:href="#ae" transform="matrix(16 0 0 -16 615.382 329.464)" fill="#231f20"/><use xlink:href="#af" transform="matrix(16 0 0 -16 622.918 329.544)" fill="#231f20"/><use xlink:href="#ar" transform="matrix(16 0 0 -16 631.494 329.352)" fill="#231f20"/><use xlink:href="#ar" transform="matrix(16 0 0 -16 640.134 329.352)" fill="#231f20"/><use xlink:href="#U" transform="matrix(16 0 0 -16 648.326 329.544)" fill="#231f20"/><use xlink:href="#al" transform="matrix(16 0 0 -16 656.902 329.544)" fill="#231f20"/><use xlink:href="#ak" transform="matrix(16 0 0 -16 663.11 329.352)" fill="#231f20"/><use xlink:href="#ai" transform="matrix(16 0 0 -16 670.678 329.352)" fill="#231f20"/><use xlink:href="#O" transform="matrix(16 0 0 -16 678.182 329.352)" fill="#231f20"/><use xlink:href="#aG" transform="matrix(16 0 0 -16 683.814 329.352)" fill="#231f20"/><use xlink:href="#U" transform="matrix(16 0 0 -16 691.606 329.544)" fill="#231f20"/><use xlink:href="#al" transform="matrix(16 0 0 -16 700.182 329.544)" fill="#231f20"/><use xlink:href="#al" transform="matrix(16 0 0 -16 707.028 329.544)" fill="#231f20"/><use xlink:href="#ai" transform="matrix(16 0 0 -16 714.692 329.352)" fill="#231f20"/><use xlink:href="#aE" transform="matrix(16 0 0 -16 723.428 329.352)" fill="#231f20"/><use xlink:href="#al" transform="matrix(16 0 0 -16 731.716 329.544)" fill="#231f20"/><use xlink:href="#am" transform="matrix(16 0 0 -16 739.38 329.352)" fill="#231f20"/><use xlink:href="#U" transform="matrix(16 0 0 -16 746.404 329.544)" fill="#231f20"/><use xlink:href="#aE" transform="matrix(16 0 0 -16 755.428 329.352)" fill="#231f20"/><use xlink:href="#O" transform="matrix(16 0 0 -16 762.932 329.352)" fill="#231f20"/><symbol id="aH"><path d="M.449 0H.395L.38.127H0v.5h.08v-.43h.217v.43h.08v-.43h.072V0z"/></symbol><use xlink:href="#ab" transform="matrix(16 0 0 -16 362.073 348.872)" fill="#231f20"/><use xlink:href="#af" transform="matrix(16 0 0 -16 374.681 348.744)" fill="#231f20"/><use xlink:href="#V" transform="matrix(16 0 0 -16 381.753 350.584)" fill="#231f20"/><use xlink:href="#af" transform="matrix(16 0 0 -16 391.113 348.744)" fill="#231f20"/><use xlink:href="#at" transform="matrix(16 0 0 -16 399.689 351.752)" fill="#231f20"/><use xlink:href="#W" transform="matrix(16 0 0 -16 407.737 348.68)" fill="#231f20"/><use xlink:href="#aH" transform="matrix(16 0 0 -16 416.281 350.584)" fill="#231f20"/><use xlink:href="#ai" transform="matrix(16 0 0 -16 425.049 348.552)" fill="#231f20"/><use xlink:href="#ai" transform="matrix(16 0 0 -16 433.785 348.552)" fill="#231f20"/><use xlink:href="#aw" transform="matrix(16 0 0 -16 442.073 348.744)" fill="#231f20"/><symbol id="aI"><path d="M.422.548a.173.173 0 0 0-.032-.1.164.164 0 0 0-.041-.039A.19.19 0 0 0 .29.383V.379A.235.235 0 0 0 .347.362.155.155 0 0 0 .43.278.178.178 0 0 0 .443.207.185.185 0 0 0 .361.049.254.254 0 0 0 .278.012.387.387 0 0 0 .182 0h-.04a.603.603 0 0 0-.098.006A.254.254 0 0 0 0 .013v.689a1.107 1.107 0 0 0 .272.007.207.207 0 0 0 .074-.025.146.146 0 0 0 .076-.136M.19.072c.021 0 .042.002.062.007.02.005.038.013.053.024a.124.124 0 0 1 .036.041c.01.016.014.035.014.057 0 .027-.006.05-.017.066a.11.11 0 0 1-.043.039.18.18 0 0 1-.059.019A.44.44 0 0 1 .17.33H.083V.079A2.762 2.762 0 0 1 .162.072H.19M.135.4a1.007 1.007 0 0 1 .081.004.196.196 0 0 1 .082.046.113.113 0 0 1 .023.135.093.093 0 0 1-.033.035.138.138 0 0 1-.048.018.253.253 0 0 1-.055.006.86.86 0 0 1-.102-.006V.4h.052z"/></symbol><symbol id="aJ"><path d="M.504.215H.386V0H.308v.215H0v.033l.332.463h.054V.285h.118v-.07M.308.503l.01.082H.315L.28.517.139.326.091.277l.07.008h.147v.218z"/></symbol><symbol id="aK"><path d="M.375.626H.083V0H0v.7h.375V.626z"/></symbol><use xlink:href="#aI" transform="matrix(16 0 0 -16 362.777 387.08)" fill="#231f20"/><use xlink:href="#O" transform="matrix(16 0 0 -16 370.761 386.952)" fill="#231f20"/><use xlink:href="#al" transform="matrix(16 0 0 -16 375.817 387.144)" fill="#231f20"/><use xlink:href="#U" transform="matrix(16 0 0 -16 382.665 387.144)" fill="#231f20"/><use xlink:href="#U" transform="matrix(16 0 0 -16 391.241 387.144)" fill="#231f20"/><use xlink:href="#ak" transform="matrix(16 0 0 -16 398.809 386.952)" fill="#231f20"/><use xlink:href="#ae" transform="matrix(16 0 0 -16 406.377 387.064)" fill="#231f20"/><use xlink:href="#af" transform="matrix(16 0 0 -16 413.913 387.144)" fill="#231f20"/><use xlink:href="#ak" transform="matrix(16 0 0 -16 421.289 386.952)" fill="#231f20"/><use xlink:href="#al" transform="matrix(16 0 0 -16 428.153 387.144)" fill="#231f20"/><use xlink:href="#ak" transform="matrix(16 0 0 -16 434.361 386.952)" fill="#231f20"/><use xlink:href="#ae" transform="matrix(16 0 0 -16 441.929 387.064)" fill="#231f20"/><use xlink:href="#ai" transform="matrix(16 0 0 -16 449.913 386.952)" fill="#231f20"/><use xlink:href="#ai" transform="matrix(16 0 0 -16 458.649 386.952)" fill="#231f20"/><use xlink:href="#O" transform="matrix(16 0 0 -16 466.153 386.952)" fill="#231f20"/><use xlink:href="#al" transform="matrix(16 0 0 -16 471.209 387.144)" fill="#231f20"/><use xlink:href="#U" transform="matrix(16 0 0 -16 478.055 387.144)" fill="#231f20"/><use xlink:href="#O" transform="matrix(16 0 0 -16 485.847 386.952)" fill="#231f20"/><use xlink:href="#al" transform="matrix(16 0 0 -16 490.903 387.144)" fill="#231f20"/><use xlink:href="#ak" transform="matrix(16 0 0 -16 497.111 386.952)" fill="#231f20"/><use xlink:href="#aw" transform="matrix(16 0 0 -16 502.983 387.144)" fill="#231f20"/><use xlink:href="#O" transform="matrix(16 0 0 -16 504.375 386.952)" fill="#231f20"/><use xlink:href="#R" transform="matrix(16 0 0 -16 509.767 386.952)" fill="#231f20"/><use xlink:href="#aJ" transform="matrix(16 0 0 -16 517.687 386.952)" fill="#231f20"/><use xlink:href="#aC" transform="matrix(16 0 0 -16 527.175 387.144)" fill="#231f20"/><use xlink:href="#aJ" transform="matrix(16 0 0 -16 535.127 386.952)" fill="#231f20"/><use xlink:href="#O" transform="matrix(16 0 0 -16 543.527 386.952)" fill="#231f20"/><use xlink:href="#aK" transform="matrix(16 0 0 -16 549.16 386.952)" fill="#231f20"/><use xlink:href="#ac" transform="matrix(16 0 0 -16 556.231 386.952)" fill="#231f20"/><use xlink:href="#O" transform="matrix(16 0 0 -16 564.631 386.952)" fill="#231f20"/><use xlink:href="#aG" transform="matrix(16 0 0 -16 570.263 386.952)" fill="#231f20"/><use xlink:href="#ab" transform="matrix(16 0 0 -16 578.231 387.272)" fill="#231f20"/><use xlink:href="#O" transform="matrix(16 0 0 -16 590.055 386.952)" fill="#231f20"/><use xlink:href="#ak" transform="matrix(16 0 0 -16 593.991 386.952)" fill="#231f20"/><use xlink:href="#U" transform="matrix(16 0 0 -16 600.855 387.144)" fill="#231f20"/><use xlink:href="#ae" transform="matrix(16 0 0 -16 609.88 387.064)" fill="#231f20"/><use xlink:href="#W" transform="matrix(16 0 0 -16 617.255 387.08)" fill="#231f20"/><use xlink:href="#at" transform="matrix(16 0 0 -16 625.8 390.152)" fill="#231f20"/><use xlink:href="#ar" transform="matrix(16 0 0 -16 634.455 386.952)" fill="#231f20"/><use xlink:href="#aD" transform="matrix(16 0 0 -16 643.095 387.048)" fill="#231f20"/><use xlink:href="#aE" transform="matrix(16 0 0 -16 653.655 386.952)" fill="#231f20"/><use xlink:href="#O" transform="matrix(16 0 0 -16 661.16 386.952)" fill="#231f20"/><use xlink:href="#ag" transform="matrix(16 0 0 -16 666.04 387.096)" fill="#231f20"/><use xlink:href="#ar" transform="matrix(16 0 0 -16 673.72 386.952)" fill="#231f20"/><use xlink:href="#W" transform="matrix(16 0 0 -16 681.751 387.08)" fill="#231f20"/><use xlink:href="#am" transform="matrix(16 0 0 -16 690.295 386.952)" fill="#231f20"/><use xlink:href="#O" transform="matrix(16 0 0 -16 696.711 386.952)" fill="#231f20"/><use xlink:href="#ab" transform="matrix(16 0 0 -16 701.64 387.272)" fill="#231f20"/><use xlink:href="#ac" transform="matrix(16 0 0 -16 714.823 386.952)" fill="#231f20"/><use xlink:href="#O" transform="matrix(16 0 0 -16 723.223 386.952)" fill="#231f20"/><use xlink:href="#aa" transform="matrix(16 0 0 -16 728.12 386.344)" fill="#231f20"/><use xlink:href="#ad" transform="matrix(16 0 0 -16 735.847 387.144)" fill="#231f20"/><use xlink:href="#ae" transform="matrix(16 0 0 -16 745.031 387.064)" fill="#231f20"/><use xlink:href="#af" transform="matrix(16 0 0 -16 752.567 387.144)" fill="#231f20"/><use xlink:href="#ag" transform="matrix(16 0 0 -16 760.52 387.096)" fill="#231f20"/><use xlink:href="#V" transform="matrix(16 0 0 -16 767.047 388.984)" fill="#231f20"/><use xlink:href="#W" transform="matrix(16 0 0 -16 776.247 387.08)" fill="#231f20"/><use xlink:href="#ah" transform="matrix(16 0 0 -16 784.183 386.344)" fill="#231f20"/><use xlink:href="#O" transform="matrix(16 0 0 -16 791.207 386.952)" fill="#231f20"/><symbol id="aL"><path d="M.306.207.229.195.097 0H0l.12.171.04.037A.166.166 0 0 0 .071.25a.12.12 0 0 0-.036.092c0 .03.005.056.015.077.01.021.026.039.045.053.02.014.042.024.069.03a.448.448 0 0 0 .159.005L.386.496V0h-.08v.207m0 .225a.123.123 0 0 1-.029.007.154.154 0 0 1-.028.003.175.175 0 0 1-.098-.023C.129.404.118.379.118.346c0-.03.012-.053.035-.07A.167.167 0 0 1 .247.252h.028l.031.002v.178z"/></symbol><symbol id="aM"><path d="M0 .074h.242V0H0v.074z"/></symbol><symbol id="aN"><path d="M0 0v.5h.08V.07h.171V.5h.08V.07h.171V.5h.08V0H0z"/></symbol><use xlink:href="#ar" transform="matrix(16 0 0 -16 362.649 406.152)" fill="#231f20"/><use xlink:href="#af" transform="matrix(16 0 0 -16 370.841 406.344)" fill="#231f20"/><use xlink:href="#O" transform="matrix(16 0 0 -16 378.185 406.152)" fill="#231f20"/><use xlink:href="#aj" transform="matrix(16 0 0 -16 383.689 406.152)" fill="#231f20"/><use xlink:href="#U" transform="matrix(16 0 0 -16 393.561 406.344)" fill="#231f20"/><use xlink:href="#aF" transform="matrix(16 0 0 -16 401.273 406.152)" fill="#231f20"/><use xlink:href="#af" transform="matrix(16 0 0 -16 412.473 406.344)" fill="#231f20"/><use xlink:href="#ak" transform="matrix(16 0 0 -16 419.849 406.152)" fill="#231f20"/><use xlink:href="#O" transform="matrix(16 0 0 -16 425.689 406.152)" fill="#231f20"/><use xlink:href="#ai" transform="matrix(16 0 0 -16 431.193 406.152)" fill="#231f20"/><use xlink:href="#al" transform="matrix(16 0 0 -16 439.481 406.344)" fill="#231f20"/><use xlink:href="#as" transform="matrix(16 0 0 -16 447.145 406.152)" fill="#231f20"/><use xlink:href="#U" transform="matrix(16 0 0 -16 455.257 406.344)" fill="#231f20"/><use xlink:href="#an" transform="matrix(16 0 0 -16 462.871 406.216)" fill="#231f20"/><use xlink:href="#aq" transform="matrix(16 0 0 -16 472.231 406.248)" fill="#231f20"/><use xlink:href="#ag" transform="matrix(16 0 0 -16 479.031 406.296)" fill="#231f20"/><use xlink:href="#U" transform="matrix(16 0 0 -16 486.263 406.344)" fill="#231f20"/><use xlink:href="#ae" transform="matrix(16 0 0 -16 495.287 406.264)" fill="#231f20"/><use xlink:href="#W" transform="matrix(16 0 0 -16 502.663 406.28)" fill="#231f20"/><use xlink:href="#ak" transform="matrix(16 0 0 -16 510.007 406.152)" fill="#231f20"/><use xlink:href="#aq" transform="matrix(16 0 0 -16 517.575 406.248)" fill="#231f20"/><use xlink:href="#al" transform="matrix(16 0 0 -16 524.375 406.344)" fill="#231f20"/><use xlink:href="#aL" transform="matrix(16 0 0 -16 531.127 406.152)" fill="#231f20"/><use xlink:href="#O" transform="matrix(16 0 0 -16 538.407 406.152)" fill="#231f20"/><use xlink:href="#am" transform="matrix(16 0 0 -16 543.911 406.152)" fill="#231f20"/><use xlink:href="#af" transform="matrix(16 0 0 -16 550.935 406.344)" fill="#231f20"/><use xlink:href="#aj" transform="matrix(16 0 0 -16 559.511 406.152)" fill="#231f20"/><use xlink:href="#aM" transform="matrix(16 0 0 -16 569.543 402.136)" fill="#231f20"/><use xlink:href="#an" transform="matrix(16 0 0 -16 573.735 406.216)" fill="#231f20"/><use xlink:href="#ai" transform="matrix(16 0 0 -16 583.095 406.152)" fill="#231f20"/><use xlink:href="#av" transform="matrix(16 0 0 -16 591.383 406.344)" fill="#231f20"/><use xlink:href="#U" transform="matrix(16 0 0 -16 599.96 406.344)" fill="#231f20"/><use xlink:href="#O" transform="matrix(16 0 0 -16 607.751 406.152)" fill="#231f20"/><use xlink:href="#av" transform="matrix(16 0 0 -16 612.807 406.344)" fill="#231f20"/><use xlink:href="#af" transform="matrix(16 0 0 -16 621.383 406.344)" fill="#231f20"/><use xlink:href="#ag" transform="matrix(16 0 0 -16 629.335 406.296)" fill="#231f20"/><use xlink:href="#O" transform="matrix(16 0 0 -16 635.783 406.152)" fill="#231f20"/><use xlink:href="#at" transform="matrix(16 0 0 -16 641.287 409.352)" fill="#231f20"/><use xlink:href="#W" transform="matrix(16 0 0 -16 649.335 406.28)" fill="#231f20"/><use xlink:href="#ag" transform="matrix(16 0 0 -16 657.255 406.296)" fill="#231f20"/><use xlink:href="#at" transform="matrix(16 0 0 -16 664.935 409.352)" fill="#231f20"/><use xlink:href="#af" transform="matrix(16 0 0 -16 673.143 406.344)" fill="#231f20"/><use xlink:href="#aN" transform="matrix(16 0 0 -16 681.72 406.152)" fill="#231f20"/><use xlink:href="#af" transform="matrix(16 0 0 -16 693.047 406.344)" fill="#231f20"/><use xlink:href="#ar" transform="matrix(16 0 0 -16 701.623 406.152)" fill="#231f20"/><use xlink:href="#ai" transform="matrix(16 0 0 -16 710.263 406.152)" fill="#231f20"/><use xlink:href="#aL" transform="matrix(16 0 0 -16 718.087 406.152)" fill="#231f20"/><use xlink:href="#O" transform="matrix(16 0 0 -16 725.367 406.152)" fill="#231f20"/><use xlink:href="#al" transform="matrix(16 0 0 -16 730.423 406.344)" fill="#231f20"/><use xlink:href="#W" transform="matrix(16 0 0 -16 737.48 406.28)" fill="#231f20"/><use xlink:href="#aj" transform="matrix(16 0 0 -16 746.023 406.152)" fill="#231f20"/><use xlink:href="#U" transform="matrix(16 0 0 -16 755.895 406.344)" fill="#231f20"/><use xlink:href="#T" transform="matrix(16 0 0 -16 764.92 406.152)" fill="#231f20"/><use xlink:href="#U" transform="matrix(16 0 0 -16 770.116 406.344)" fill="#231f20"/><use xlink:href="#O" transform="matrix(16 0 0 -16 777.908 406.152)" fill="#231f20"/><use xlink:href="#am" transform="matrix(16 0 0 -16 362.649 425.352)" fill="#231f20"/><use xlink:href="#an" transform="matrix(16 0 0 -16 369.465 425.416)" fill="#231f20"/><use xlink:href="#au" transform="matrix(16 0 0 -16 377.785 428.632)" fill="#231f20"/><use xlink:href="#av" transform="matrix(16 0 0 -16 385.833 425.544)" fill="#231f20"/><use xlink:href="#W" transform="matrix(16 0 0 -16 394.249 425.48)" fill="#231f20"/><use xlink:href="#aM" transform="matrix(16 0 0 -16 402.505 421.336)" fill="#231f20"/><use xlink:href="#as" transform="matrix(16 0 0 -16 408.553 425.352)" fill="#231f20"/><use xlink:href="#at" transform="matrix(16 0 0 -16 417.113 428.552)" fill="#231f20"/><use xlink:href="#W" transform="matrix(16 0 0 -16 425.161 425.48)" fill="#231f20"/><use xlink:href="#ae" transform="matrix(16 0 0 -16 433.705 425.464)" fill="#231f20"/><use xlink:href="#U" transform="matrix(16 0 0 -16 441.241 425.544)" fill="#231f20"/><use xlink:href="#U" transform="matrix(16 0 0 -16 449.817 425.544)" fill="#231f20"/><use xlink:href="#av" transform="matrix(16 0 0 -16 458.393 425.544)" fill="#231f20"/><use xlink:href="#an" transform="matrix(16 0 0 -16 466.007 425.416)" fill="#231f20"/><use xlink:href="#W" transform="matrix(16 0 0 -16 474.76 425.48)" fill="#231f20"/><use xlink:href="#V" transform="matrix(16 0 0 -16 482.151 427.384)" fill="#231f20"/><use xlink:href="#W" transform="matrix(16 0 0 -16 491.351 425.48)" fill="#231f20"/><use xlink:href="#ak" transform="matrix(16 0 0 -16 498.695 425.352)" fill="#231f20"/><use xlink:href="#af" transform="matrix(16 0 0 -16 505.558 425.544)" fill="#231f20"/><use xlink:href="#an" transform="matrix(16 0 0 -16 512.47 425.416)" fill="#231f20"/><use xlink:href="#aL" transform="matrix(16 0 0 -16 520.918 425.352)" fill="#231f20"/><use xlink:href="#aw" transform="matrix(16 0 0 -16 528.982 425.544)" fill="#231f20"/><use xlink:href="#O" transform="matrix(16 0 0 -16 530.374 425.352)" fill="#231f20"/><clipPath id="aO"><path transform="matrix(1 0 0 -1 0 595.276)" d="M0 0h841.89v595.276H0z"/></clipPath><g clip-path="url(#aO)"><path d="M846.958-134.071c-.41.701-.915 1.569-1.302 2.445-.626 2.553-8.933 25.057-9.609 25.817-.194 2.077-3.586 10.614-4.55 13.309l-23.245 63.699c-2.05 5.666-4.171 13.71-7.856 18.341-1.126 1.41-1.766 3.404-3.127 3.646-2.36.426-1.486-.275-1.644-.384-1.847 1.244-11.78.484-14.965.484h-98.909c-2.77 0-6.824.576-6.536-.726-.861 1.202.149.584-1.955.735-3.577.258-12.546-.401-16.826.083-1.559 1.11-1.113 1.494-1.631 3.371.946.918 2.221 1.794 3.082 2.77 1.599.685 2.788 1.719 4.27 2.696a84.32 84.32 0 0 1 3.721 2.595c1.514 1.101 6.294 4.038 7.244 5.306 1.428.551 2.067 1.102 2.816 1.953 1.572.542 5.419 3.538 7.577 5.048l22.366 15.487c2.793 2.019 28.106 19.309 29.57 20.827 1.086.367 7.888 4.973 9.172 5.849 3.297 2.262 24.286 17.231 25.917 17.832l-25.358 78.043c-.559 1.61-2.6 9.579-3.982 10.689.54 1.335-4.64 16.012-5.587 18.491-1.022 2.695-5.158 17.898-6.446 18.707 1.496 2.846.342 2.57 4.199 3.038 1.302-1.144 3.058-1.786 4.698-2.887l14.141-9.129c3.374-2.036 16.564-11.19 18.708-11.941.87-1.026.577-.942 1.942-1.076 1.189-1.594 34.593-22.846 38.021-25.016 6.541-4.138 12.447-8.077 18.952-12.216a598.615 598.615 0 0 0 9.591-6.199c1.694-1.127 3.031-2.045 4.734-3.154 1.654-1.085 3.298-2.003 4.888-3.079 6.775 3.688 12.587 8.21 19.335 12.324 5.563 3.388 56.486 36.164 57.248 37.474.91.125 1.649.091 1.577 1.009 1.644.251 7.694 4.506 9.478 5.682l27.961 17.932c2.762.368 3.929-.15 4.185-2.845-2.383-6.166-3.779-12.333-6.068-18.483-1.284-3.454-5.766-15.828-5.897-18.791-1.077-1.401-12.721-37.74-14.744-44.282l-14.348-44.107c1.55-1.119 2.955-2.103 4.442-3.013l25.718-18.015c1.388-1.227 2.721-2.219 4.406-2.97 2.099-1.828 4.699-3.547 7.122-5.216l44.715-30.956c2.009-1.385 4.893-3.905 7.452-5.14.882-1.002 1.441-1.327 2.972-1.961 1.766-1.586 13.146-9.738 15.083-10.481 1.459-1.96 3.081-1.418 2.775-4.914-2.064-2.053-4.397-1.369-8.208-1.369-3.397 0-6.794-.016-10.181 0-.964-.283-.712-.075-1.261-.667-.324.892.243.317-.776.692l-120.374-.15-3.648.142c-.996-3.046-16.475-43.732-18.322-48.505l-9.099-25.124c-1.46-4.181-2.992-8.219-4.519-12.425-.752-2.069-1.464-4.188-2.18-6.199l-1.865-4.773c-.419-1.469-.086-1.394.148-1.694-1.612-.818-1.986-3.296-2.977-6.175-1.685-4.889-6.591-17.03-7.217-20.034-1.46-2.937-1.577-2.353-5.014-2.42" fill="#dd1e26"/><path d="M801.418-5.062c-16.546.918-141.498-1.243-144.502.442.031 1.736-.609.651 2.815 3.046l98.287 68.047c2.572 1.81 13.168 8.886 14.569 10.322l-41.044 126.23c4.261.201 4.271-.384 8.758-3.412l36.156-23.431c5.004-3.162 9.613-6.292 14.627-9.446l57.955-37.415c1.694.609 12.203 7.66 14.442 9.12 13.681 8.878 30.093 19.851 43.612 28.204l28.993 18.757c5.081 3.263 9.573 6.267 14.627 9.446l10.731 7.042c1.743 1.219 2.406 1.36 5.19 1.135L925.59 76.828c1.193-1.285 5.469-3.947 7.131-5.09l100.764-70.275c4.803-3.321 6.091-3.271 5.704-6.45l-143.228-.025c-7.568-21.536-15.582-42.664-23.317-64.083l-20.375-56.107c-.617-1.752-1.906-6.975-3.636-7.417-1.441.867-5.284 12.991-6.122 15.286L813.27-36.987c-1.302 3.613-10.96 30.757-11.852 31.925" fill="#030406"/><path d="M847.845-101.162c1.284.209.748-.551.878 1.877l.086 16.639c.68 44.174.329 89.233.577 133.432-.902.709 1.383.959-1.563.525.477 1.452.112.927 1.171 1.36-.55.318 1.243.685-.951.159-1.162 3.187-9.843 13.893-11.902 16.521l-36.732 47.771c-8.249 10.564-16.249 20.994-24.448 31.633-2.946 3.83-24.033 30.439-24.48 32.208.919-.776 2.487-1.285 3.203-2.645-1.545.676-.31.225-.671-.133l38.535-49.873c1.184-1.469 1.802-2.512 3.018-3.989 9.618-11.682 20.632-26.735 29.872-38.65l22.402-29.005c.505-.684.924-1.518 1.546-1.552.928 1.193.941 37.774 1.022 44.291.041 3.288.955 12.617-.365 15.028 2.338.367 5.019 2.579 6.897 3.839l56.28 36.847c4.635 2.971 35.971 24.149 38.128 24.524l-.68-1.728-.324.935-96.575-122.467c-1.018-1.244-2.915-2.245-2.861-4.039 1.829-1.06 35.007-10.414 40.008-11.899 13.528-4.005 26.817-7.777 40.215-11.774l75.172-22.02c2.541-.717 4.352-1.777 4.712-.726 1.541-.4.928.192 1.712-1.126-1.433-.71-92.751-.267-109.364-.267-3.748 0-13.114.826-15.538-.559-.135 1.418.086.659-.828 1.886l-8.024 10.28c-3.13 3.98-6.122 7.901-9.212 11.832-1.117 1.41-16.862 22.454-18.501 23.33-.284-12.775-.131-25.458-.194-38.208-.158-31.7-.991-63.967-.78-95.741l-.04-14.703c-.014-.475-.104-1.927-.072-2.286.175-1.861-.216-1.469.923-1.902-.315-1.26-.239-1.327-1.058-2.178-.059.075-.126.108-.149.242z" fill="#a41c20"/><path d="m810.612 5.035 37.21 46.277c2.946.434.662.183 1.563-.526-.248-44.199.104-89.257-.576-133.432l-.086-16.638c-.131-2.428.406-1.669-.878-1.877zM787.57 72.923l-38.507 108.332 1.419-.292c.446-1.768 21.533-28.378 24.479-32.208 8.199-10.639 16.199-21.069 24.448-31.633l36.733-47.77c2.058-2.629 10.739-13.334 11.901-16.522l-.959.142c-10.222 3.179-20.051 6.542-30.322 9.779l-22.773 7.193c-6.509 1.969-4.797.976-6.419 2.979" fill="#f15f5a"/><path d="m847.084 52.972.96-.142c2.194.526.4.159.95-.158-1.059-.434-.694.091-1.171-1.36l-37.21-46.277-123.123-.493c.91 1.11 2.501 1.444 4.555 2.028 21.569 6.166 43.9 13.376 65.046 19.358 12.473 3.53 88.826 26.06 89.993 27.044" fill="#ce1f26"/><path d="M787.57 72.923c1.622-2.003-.09-1.01 6.419-2.979l22.773-7.193c10.271-3.237 20.1-6.6 30.322-9.779-1.167-.985-77.52-23.514-89.994-27.043-21.145-5.983-43.476-13.193-65.045-19.359-2.055-.584-3.645-.918-4.555-2.028-2.423-.192-.486-.208-1.131.635 1.086.851 2.383 1.401 3.361 2.052l9.487 6.292c4.298 2.945 8.424 5.632 12.803 8.494l73.024 48.096c1.144.734 2.653 1.177 2.536 2.812" fill="#a81c21"/><path d="M753.685 178.318c1.23-.3 10.167-6.442 11.911-7.668 1.896-1.344 3.982-2.696 5.91-3.947l53.784-36.147c2.658-1.819 23.096-15.111 23.754-16.121 1.32-2.411.405-11.74.365-15.028-.081-6.516-.095-43.098-1.023-44.291-.621.033-1.04.868-1.545 1.552l-22.403 29.005c-9.239 11.915-20.253 26.968-29.871 38.65-1.217 1.477-1.834 2.52-3.019 3.988l-38.534 49.873c.36.359-.874.81.671.134M541.105 113.191 497.291 12.272 611.22-50.51c-.419-1-2.523.008-5.475.691l-87.34 20.959c-15.566 3.804-31.006 7.394-46.724 11.206-5.81 1.414-44.358 10.317-46.483 11.326-.063 1.707 2.14 2.66 3.323 3.844l112.207 116.565z" fill="#ed1c24"/><path d="M633.543 603.78c4.723-.577 14.621.21 18.568-.1 2.322-.179 1.208.557 2.158-.875 3.351-13.91 18.076-38.14 25.25-47.775 5.603-7.517 9.814-12.508 19.483-16.893 7.188-3.26 19.647-6.73 28.412-8.054 6.781-1.024 27.586-4.036 33.462-2.167 4.131 1.322 5.305 6.522 7.264 10.67 6.537 13.85 10.882 22.818 17.161 37.632 8.685 20.512 6.856 15.054 1.849 26.876.174.13-.79.964 1.815.457 1.501-.288 2.207-2.665 3.45-4.345 4.067-5.518 6.408-15.103 8.67-21.854l25.653-75.904c1.064-3.21 4.807-13.383 5.021-15.859-6.726 1.75-28.601 12.36-34.079 15.571-5.489 3.201-10.167 6.134-15.153 9.555-2.431 1.66-4.797 3.191-7.134 4.981-21.909 16.754-24.36 5.49-49.973 12.061-12.329 3.162-31.603 11.633-36.987 12.737-1.571-1.87-2.735-8.313-3.848-11.315-1.82-4.922-1.745-3.769 4.032-9.516 27.77-27.59 60.279-45.985 99.09-57.27 13.84-4.018 39.185-8.422 54.656-7.567.428-1.044.984-2.078 1.437-2.913l-5.34.467c-.188 0-.263-.01-.452-.01l-24.673 2.307c-11.032 1.79-12.21 1.82-23.942 4.683l-3.098.825c-12.225 3.251-24.912 8.68-36.326 13.463l-15.093 7.954c-.776.467-.82.497-1.636.945l-30.435 21.227c-1.242 1.015-1.685 1.542-2.839 2.566l-.994.805c-.079.06-.184.14-.259.21l-23.564 23.912c-13.806 16.386-17.42 23.077-27.651 40.566-.07.11-.423.716-.492.826z" fill="#050407"/><path d="M346.882 550.552c-.062-1.289-9.096-19.175-10.474-21.997l-32.245-66.557c-1.326.364-.87.035-1.074 1.596-.037.302.068 1.52.083 1.92l.047 12.34c-.246 26.667.724 53.748.907 80.352.073 10.701-.105 21.346.225 32.067 1.907-.735 20.22-18.397 21.52-19.58 3.594-3.299 7.073-6.59 10.715-9.93l9.332-8.628c1.064-1.03.807-.392.964-1.583" fill="#ed1c24"/></g><path d="m374.216 512.542 12.892-10.81h29.011l12.908 10.81v18.108l-11.295 9.275-22.745 3.79-1.801 1.628v6.455h16.306l1.896-6.83h17.639v23.12h-55.563V537.95l11.091-8.647 22.854-3.791 2.083-1.597v-3.885l-2.475-1.911h-13.173l-1.896 6.923h-17.732z" fill="#231f20"/><clipPath id="aP"><path transform="matrix(1 0 0 -1 0 595.276)" d="M0 0h841.89v595.276H0z"/></clipPath><g clip-path="url(#aP)" fill="#231f20"><path d="M479.452 568.089h-27.101l-14.317-11.843v-42.952l13.832-11.561h28.165l13.848 11.56v42.953c-4.841 3.885-9.587 7.958-14.427 11.843m-19.331-49.97-2.569 2.005v29.48l2.663 2.194h11.467l2.663-2.193v-29.481l-2.569-2.005zM544.601 568.089h-27.116l-14.317-11.843v-42.952L517 501.733h28.165l13.848 11.56v42.953c-4.841 3.885-9.587 7.958-14.412 11.843m-19.346-49.97-2.554 2.005v29.48l2.648 2.194h11.467l2.662-2.193v-29.481l-2.568-2.005z"/></g><path d="m623.378 528.363-6.156 5.138 6.643 5.482v17.922l-13.568 11.183h-28.539l-13.457-11.183v-17.922l6.626-5.482-6.25-5.138v-15.822l12.892-10.808h28.824l12.985 10.808zm-35.542 13.19v8.238l2.458 2.005h11.467l2.381-2.005v-8.239l-2.287-1.91h-11.561zm.187-21.524v6.172l2.271 1.88h11.467l2.271-1.88v-6.172l-2.271-1.91h-11.467z" fill="#231f20"/><clipPath id="aQ"><path transform="matrix(1 0 0 -1 0 595.276)" d="M0 0h841.89v595.276H0z"/></clipPath><g clip-path="url(#aQ)"><path d="M167.243 161.222c-24.582 2.287-50.853 14.114-69.773 27.641-17.578 12.57-33.79 30.148-45.323 51.839-25.92 48.746-23.002 108.021 5.374 152.691 13.109 20.639 28.023 35.407 48.553 48.61 45.122 29.028 105.679 30.718 152.913 5.275 17.892-9.634 33.785-22.664 46.527-38.343.382-.471 4.684-6.415 5.218-6.583l5.714-8.718c1.816-2.946 3.606-5.798 5.223-8.97 3.464-6.787 6.013-12.193 8.713-19.415 4.815-12.862 9.163-31.712 9.153-47.05-.021-26.108-3.642-47.386-14.344-70.233-1.56-3.329-2.957-6.05-4.778-9.399-.492-.905-4.966-7.96-5.066-8.781-.659-.45-1.067-1.251-1.596-2.057-8.467-12.973-19.111-24.224-31.042-33.968-18.617-15.191-41.211-25.705-65.213-30.723-7.881-1.649-16.172-2.659-24.483-2.993-7.334-.293-18.878-.21-25.77 1.177" fill="#030406"/><path d="M177.291 164.283c-13.106 1.34-18.86 1.769-31.762 5.469-17.529 5.028-35.504 14.108-49.233 25.014-2.999 2.381-7.439 5.835-10.024 8.409-2.993 2.988-6.628 6.123-9.325 9.352-1.369 1.638-2.858 3.312-4.284 4.935-9.757 11.12-18.656 26.887-24.203 40.818-7.771 19.519-11.183 40.331-9.71 63.697 1.91 30.289 13.143 58.992 30.394 81.034 1.319 1.685 2.729 3.585 4.092 5.128 6.947 7.85 10.456 11.451 18.596 18.515 1.622 1.408 3.357 2.711 5.126 4.098 3.312 2.601 7.216 5.348 11.026 7.651 7.727 4.662 15.396 8.89 24.622 12.491 44.554 17.384 93.915 12.491 133.865-12.696 4.045-2.548 7.341-4.961 10.978-7.697 3.658-2.753 6.798-5.464 9.996-8.442l9.325-9.351c22.649-24.308 41.415-62.253 38.38-109.665-1.423-22.287-6.678-39.002-16.019-58.275-1.9-3.915-4.412-8.179-6.725-11.717-6.269-9.592-12.532-17.803-20.628-25.71-8.106-7.918-16.055-14.48-25.909-20.655-16.084-10.079-34.238-17.311-53.663-20.598-10.27-1.737-24.368-2.883-34.915-1.805" fill="#b72025"/><path d="m89.477 401.625-2.007-2.392.72-1.041-1.48-1.769-.606-.12-3.943 3.302.013.644 1.471 1.753 1.148-.529 2.007 2.397-1.625 1.361c-1.018-.173-2.03-.367-3.035-.55l-2.972-3.548-.013-3.496 5.594-4.694 3.315.602 3.103 3.7v2.967z" fill="#fff"/></g><path d="m98.577 417.575-1.735 1.853-4.333-4.045 1.733-1.858.876.361.487-.963-1.845-1.722-.913.565.37.801-1.733 1.858-3.664-3.423 1.733-1.852 1.17.633 5.29-3.177-.565-.983 1.745-1.868 4.932 4.605-4.372 7.991zm-3.095-7.509 1.088 1.015 1.24-2.428zM115.71 422.557l-3.438 4.83.84 1.01-1.474 2.067-4.476-3.187 1.473-2.067.806.163 1.182-1.66-2.299-1.637-1.183 1.658.432.718-1.474 2.072-4.476-3.192 1.472-2.067 1.23.465 3.438-4.83-.839-1.01 1.483-2.083 4.477 3.193-1.484 2.077-.818-.173-1.097 1.539 2.3 1.638 1.096-1.539-.418-.706 1.481-2.083 4.477 3.187-1.481 2.083zM130.787 431.077l-2.402.513.029 4.94.895.848-1.183 2.245-4.924-2.586 1.182-2.25.895.094-.068-2.674-1.703.367-.565 1.083.583.68-1.18 2.25-5.029-2.642 1.18-2.251 1.28.299 2.757-5.249-.968-.889 1.188-2.261 5.001 2.627-1.191 2.26-.863-.078-1.058 2.015 3.363-.801-.568-.675 1.188-2.266 4.94 2.595-1.188 2.261zM144.812 438.842l.419-2.104-1.209-.444-2.106 5.74 1.235.806-.877 2.386-5.927-2.176.874-2.387 1.45.178 2.106-5.741-1.209-.445-1.044 1.879-2.32-.853 1.664-4.532 10.913 4.009-1.664 4.532zM151.832 443.17l.494-1.973 5.542 1.381-.494 1.979zM167.578 448.356l.717.434-.343 2.518-5.445-.738.343-2.517 1.303-.163.795-5.877-1.211-.497.343-2.538 12.185 1.654-.345 2.538-1.303.157-.799 5.877 1.215.502-.343 2.517-5.445-.738.343-2.517.787-.23.843-6.206-2.797-.382zM190.967 450.758l-2.394 1.947-5.113-.058-2.25-1.926.086-7.818 2.394-1.947 5.027.053 2.368 1.999-.034 3.176-1.973 1.497-4.401.67-.011 1.088.43.356 2.423.026.347-1.219 3.125.037zm-3.378-5.919.008-.617-.413-.356-2.023-.021-.437.345-.016 1.319 2.562-.387zM205.358 444.672l-.562-2.072-1.28.141.665 6.076 1.462.178.277 2.522-6.277.686-.277-2.523 1.376-.487-.664-6.081-1.28.142-.099 2.146-2.46.266-.523-4.798 11.557-1.262.523 4.799zM223.737 445.959l-1.858 2.465-4.977 1.172-2.647-1.335-1.793-7.608 1.858-2.46 4.893-1.156 2.779 1.371.727 3.093-1.554 1.925-4.111 1.706.249 1.057.502.241 2.358-.555.047-1.261 3.037-.717zm-4.699-4.929-.142-.602-.486-.246-1.968.46-.343.44.304 1.287 2.391-.994zM238.672 436.566l-1.578 2.737-3.621 1.329.403 1.099 1.306-.125.871 2.365-5.631 2.067-.874-2.381 1.076-.754-2.044-5.563-1.308.121-.882-2.397 8.062-2.962 2.974 1.078zm-6.847-.419.651 1.769 2.243-.821.279-.493-.402-1.098-.529-.178zM243.591 431.296l-1.282.288-1.172-2.271 9.608-4.956 1.729 3.354-2.182 1.126-.704-.634-2.925 1.507.675 1.309 3.428-1.769 3.082.685 1.499 2.915-1.219 2.92-7.633 3.936-1.172-2.272.976-.879zm7.905 2.58.227-.513-.536-1.041-.555-.126-2.124 1.094.865 1.68zM257.747 423.478l-1.232.445-1.456-2.104 4.533-3.134 1.454 2.103-.442.712.61.879.544.047 2.018-1.397-.809-1.167-.822.162-1.454-2.098 4.505-3.119 1.455 2.098-.853 1 3.736 5.4-.939 3.37-3.736 2.585-3.072-.272-1.206-1.742 2.553-1.769.968.811 1.814-1.256.185-.612-.894-1.293-3.242 2.246-3.085-.262zM281.097 408.433l-.439 3.124-2.868 2.585.785.869 1.167-.607 1.69 1.873-4.453 4.019-1.701-1.884.717-1.098-3.972-4.402-1.167.602-1.714-1.899 6.377-5.752 3.161-.109zm-6.51 2.161 1.267 1.403 1.774-1.602.073-.565-.78-.869-.56.032zM289.475 398.004l-1.832-1.151-1.842 2.119 4.626 4.024 1.304-.994 1.915 1.669-4.145 4.762-1.915-1.664.581-1.177-4.474-3.894-1.084.738-1.931-1.68 6.767-7.771 3.642 3.166z" fill="#fff"/><clipPath id="aR"><path transform="matrix(1 0 0 -1 0 595.276)" d="M0 0h841.89v595.276H0z"/></clipPath><g clip-path="url(#aR)"><path d="M151.463 391.2c2.219.461 3.844.576 4.668-1.392.701-1.68.33-4.328-.694-5.228-3.152-2.779-5.874 2.261-3.974 6.62" fill="#fffcfb"/><path d="M177.989 194.525c-2.172.351-4.456.424-6.63.738-18.805 2.705-38.126 9.566-53.404 20.869l-12.444 10.017c-1.261 1.203-2.358 2.517-3.593 3.736-3.229 3.187-4.016 4.145-7.117 7.782-1.203 1.407-2.111 2.632-3.218 4.108l-3.103 4.228c-1.026 1.402-2.004 3.04-2.978 4.584-13.041 20.655-19.401 45.722-17.389 71.442 1.324 16.95 6.326 33.382 13.171 46.145.51.953.662 1.424 1.22 2.324 1.318 2.13 2.901 5.202 4.236 7.112 7.138 10.225 10.584 14.966 20.589 24.093 5.158 4.704 11.131 9.001 17.063 12.727 1.51.947 2.967 1.889 4.589 2.736 4.995 2.617 9.839 5.213 15.276 7.191 15.825 5.746 32.701 8.995 51.485 7.63 8.925-.649 16.783-2.486 24.991-4.558 10.78-2.732 25.493-10.106 35.03-16.997 11.419-8.253 21.461-18.17 29.452-29.902.858-1.261 2.125-3.077 2.983-4.59.879-1.543 1.795-2.967 2.721-4.6l2.596-4.96c1.585-3.439 3.192-6.777 4.594-10.289 5.908-14.788 9.127-33.774 7.698-51.729-1.805-22.633-9.367-42.806-21.691-59.803-1.507-2.078-6.667-8.745-8.362-10.32-2.507-2.329-3.187-4.024-7.418-7.473-1.149-.937-1.395-1.465-1.895-1.879l-1.952-1.596c-7.58-6.306-15.728-12.057-24.729-16.416-14.453-6.996-30.613-11.921-47.09-12.455-3.867-.125-11.128-.46-14.681.105" fill="#040407"/><path d="M185.787 195.237c-.238.44-.531.984-.756 1.533-.364 1.602-5.189 15.715-5.581 16.191-.113 1.303-2.083 6.657-2.643 8.347l-13.501 39.95c-1.191 3.553-2.423 8.598-4.564 11.502-.654.884-1.025 2.135-1.815 2.287-1.371.267-.864-.173-.956-.241-1.072.78-6.842.304-8.692.304H89.83c-1.609 0-3.963.361-3.796-.456-.5.754.086.367-1.136.461-2.077.162-7.287-.251-9.772.052-.906.696-.647.937-.947 2.114.549.576 1.289 1.125 1.789 1.738.929.429 1.62 1.078 2.481 1.69a50.227 50.227 0 0 1 2.161 1.627c.879.691 3.655 2.533 4.207 3.329.83.345 1.201.69 1.636 1.224.913.34 3.147 2.219 4.401 3.166l12.991 9.713c1.622 1.266 16.324 12.109 17.175 13.062.63.23 4.581 3.119 5.327 3.668 1.915 1.418 14.106 10.806 15.053 11.183l-14.728 48.945c-.325 1.01-1.51 6.008-2.313 6.704.313.837-2.696 10.042-3.245 11.596-.594 1.69-2.996 11.225-3.744 11.733.868 1.784.198 1.611 2.438 1.905.757-.717 1.777-1.12 2.729-1.811l8.214-5.725c1.96-1.277 9.621-7.018 10.866-7.489.505-.643.335-.591 1.128-.675.691-.999 20.092-14.328 22.084-15.688 3.799-2.596 7.229-5.066 11.007-7.662a343.02 343.02 0 0 0 5.571-3.888c.984-.706 1.761-1.282 2.75-1.978.96-.68 1.915-1.256 2.839-1.931 3.935 2.313 7.311 5.149 11.23 7.729 3.231 2.125 32.809 22.681 33.251 23.502.529.079.958.058.916.633.955.157 4.469 2.826 5.505 3.564l16.241 11.246c1.604.23 2.282-.094 2.43-1.785-1.384-3.867-2.195-7.734-3.524-11.591-.746-2.166-3.349-9.927-3.425-11.785-.625-.879-7.389-23.669-8.564-27.772l-8.333-27.662c.9-.701 1.716-1.319 2.579-1.889l14.938-11.298c.806-.769 1.581-1.392 2.559-1.863 1.219-1.146 2.729-2.224 4.137-3.271l25.972-19.415c1.167-.868 2.841-2.449 4.328-3.223.512-.628.837-.832 1.727-1.23 1.025-.994 7.634-6.107 8.76-6.573.847-1.229 1.789-.889 1.611-3.082-1.198-1.287-2.553-.858-4.767-.858-1.973 0-3.946-.011-5.913 0-.56-.178-.414-.047-.733-.419-.188.56.141.199-.45.435l-69.917-.095-2.119.089c-.578-1.91-9.569-27.426-10.641-30.42l-5.286-15.757c-.848-2.621-1.737-5.154-2.624-7.792-.437-1.297-.851-2.627-1.267-3.888l-1.083-2.993c-.243-.921-.049-.874.086-1.062-.936-.513-1.154-2.067-1.729-3.873-.979-3.066-3.828-10.681-4.192-12.564-.848-1.842-.916-1.476-2.912-1.518" fill="#dd1e26"/><path d="M159.336 276.146c-9.611.576-82.186-.78-83.931.277.019 1.089-.353.409 1.636 1.91l57.087 42.676c1.494 1.136 7.648 5.574 8.462 6.474l-23.839 79.166c2.475.125 2.48-.241 5.086-2.141l21.001-14.694c2.907-1.984 5.583-3.946 8.496-5.924l33.661-23.465c.984.382 7.089 4.804 8.389 5.72 7.946 5.568 17.479 12.449 25.331 17.687l16.84 11.764c2.951 2.047 5.56 3.931 8.496 5.924l6.233 4.417c1.012.764 1.397.853 3.014.712l-23.84-79.145c.694-.806 3.177-2.476 4.142-3.193l58.527-44.073c2.79-2.082 3.538-2.051 3.313-4.045l-83.191-.016c-4.395-13.506-9.05-26.756-13.543-40.19L188.872 200.8c-.359-1.099-1.107-4.375-2.112-4.652-.837.544-3.069 8.148-3.556 9.587l-16.984 50.389c-.756 2.266-6.366 19.289-6.884 20.022" fill="#030406"/><path d="M142.745 392.865c2.109 5.134 12.151 16.526 16.238 20.074 9.281 8.059 12.47 8.389 28.013 8.493 5.505.037 12.036.21 16.866-1.439 4.459-1.523 8.59-4.458 11.146-7.059l8.703-9.498c2.093-2.449 6.295-7.688 7.766-10.487-.442-.822-30.02-21.377-33.251-23.502-3.919-2.58-7.295-5.416-11.23-7.729-.924.675-1.879 1.25-2.839 1.931-.989.696-1.766 1.271-2.75 1.978a343.02 343.02 0 0 1-5.571 3.888c-3.778 2.595-7.208 5.066-11.008 7.661-1.991 1.361-21.392 14.689-22.083 15.689" fill="#fffcfb"/><path d="M186.302 215.877c.746.131.434-.345.51 1.177l.05 10.435c.395 27.704.191 55.963.335 83.682-.523.445.803.602-.908.33.277.911.065.581.68.853-.319.199.722.429-.552.099-.675 2-5.717 8.714-6.913 10.362l-21.335 29.959c-4.791 6.626-9.438 13.167-14.2 19.839-1.711 2.402-13.959 19.09-14.218 20.2.533-.487 1.444-.806 1.86-1.659-.897.424-.18.141-.39-.084l22.382-31.278c.688-.921 1.047-1.575 1.753-2.501 5.587-7.327 11.984-16.767 17.351-24.24l13.012-18.19c.293-.429.536-.953.897-.974.539.749.547 23.691.594 27.778.024 2.061.555 7.912-.212 9.424 1.358.231 2.915 1.617 4.006 2.408l32.689 23.109c2.692 1.863 20.893 15.144 22.146 15.38l-.395-1.083-.188.586-56.094-76.806c-.591-.78-1.693-1.408-1.662-2.533 1.063-.665 20.333-6.531 23.238-7.462 7.857-2.512 15.576-4.878 23.358-7.384l43.662-13.81c1.476-.45 2.528-1.115 2.737-.456.895-.251.539.121.994-.706-.832-.445-53.872-.168-63.521-.168-2.177 0-7.617.519-9.025-.35-.079.889.05.413-.481 1.183l-4.66 6.447c-1.819 2.496-3.556 4.955-5.351 7.42-.649.885-9.794 14.082-10.746 14.632-.165-8.012-.076-15.966-.113-23.962-.092-19.881-.576-40.117-.453-60.045l-.023-9.221c-.008-.298-.06-1.208-.042-1.433.102-1.167-.126-.922.536-1.194-.183-.79-.138-.832-.615-1.365-.034.047-.073.068-.086.151z" fill="#a41c20"/><path d="m245.444 390.902-21.903-66.497 56.954-41.367c-.209-.66-1.261.005-2.737.455l-43.662 13.81c-7.782 2.507-15.5 4.872-23.358 7.384-2.904.931-22.175 6.798-23.237 7.462-.032 1.125 1.07 1.753 1.661 2.533l56.094 76.806z" fill="#ed1c24"/><path d="m217.554 275.016 69.917.094c.591-.235.261.126.45-.434-.932-5.003-10.885-21.079-13.57-24.847-3.725-5.243-3.605-6.102-10.387-8.739-4.896-1.91-8.776-3.799-14.566-4.6-20.917-2.889-18.536-3.407-25.012 10.424-2.826 6.034-6.884 13.722-8.224 20.43-.947 4.752.018 4.443 1.392 7.672M86.034 274.654c-.167.816 2.187.455 3.796.455h57.449c1.85 0 7.62.477 8.693-.303 2.634-6.222 3.597-3.349-.974-14.145-3.305-7.798-5.591-12.518-9.032-19.808-1.031-2.182-1.65-4.918-3.823-5.615-3.093-.983-14.043.602-17.612 1.141-4.613.696-11.17 2.523-14.954 4.239-5.09 2.308-7.305 4.935-10.254 8.891-3.775 5.071-11.526 17.824-13.29 25.145M84.817 285.665c-.552-.795-3.328-2.637-4.207-3.328-.73-.576-1.28-1-2.162-1.628-.86-.612-1.551-1.261-2.48-1.69-1.547-.037-1.918 2.643-2.407 4.762-.463 2.025-.77 3.888-1.1 6.029-3.477 22.538-3.367 39.74 4.33 61.588 1.464 4.15 6.624 17.484 9.258 19.158 1.73.094 3.645-1.549 4.828-2.313 6.513-4.218 6.68-2.156 5.869-7.441-.314-2.047-.568-3.993-.851-6.092-1.023-7.609-1.58-18.263-.51-25.961.306-2.214 1.308-11.194.819-13.046-.298-1.125-.847-1.512-1.261-2.329l-3.163-6.981c-4.192-9.765-5.215-9.582-6.963-20.728" fill="#fffffd"/><path d="M288.962 285.607c-1.45 10.304-5.296 17.306-9.388 26.176-2.313 5.018-2.072 4.668-1.779 9.309 1.135 18.133 1.674 15.312.355 33.267-.251 3.423-1.418 6.793-1.298 10.236 11.529 5.071 10.483 9.425 14.182 1.418.832-1.805 1.654-3.673 2.543-5.468 3.826-7.677 5.893-15.244 7.787-24.643 2.104-10.429 2.544-19.148 1.816-30.09-.329-4.903-.853-9.802-1.758-14.459-.439-2.256-.984-4.464-1.444-6.651-.451-2.13-.618-4.721-2.256-5.668-1.125.466-7.734 5.579-8.76 6.573" fill="#fffcfb"/><path d="M194.62 213.192c6.026 2.193 12.507 5.144 17.646 8.179a144.783 144.783 0 0 1 7.97 5.035c2.603 1.768 4.932 3.746 7.674 5.322 6.722 3.856 10.647.952 22.212 3.595 7.196 1.643 16.285 5.981 19.444 6.588.808-1.947 1.085-4.097 1.944-6.034 1.167-2.621.193-2.637-2.112-4.971-14.025-14.177-32.131-24.548-51.933-30.111-8.177-2.298-19.64-4.265-28.766-4.04.363 1.884 3.213 9.498 4.192 12.564.575 1.806.792 3.36 1.729 3.873M179.449 212.961c.392-.476 5.217-14.59 5.581-16.191-8.143-.45-21.482 1.868-28.766 3.982-20.428 5.94-37.537 15.621-52.153 30.143-3.041 3.024-3.08 2.417-2.122 5.008.586 1.58 1.198 4.971 2.025 5.955 2.834-.581 12.978-5.039 19.467-6.703 13.48-3.46 14.77 2.47 26.301-6.348 1.23-.942 2.476-1.748 3.755-2.622 2.625-1.8 5.087-3.344 7.975-5.029 2.884-1.69 14.397-7.274 17.937-8.195" fill="#fffffd"/><path d="M75.125 275.167c2.486-.304 7.695.11 9.773-.052 1.222-.094.635.293 1.135-.461 1.764-7.321 9.514-20.074 13.29-25.145 2.948-3.956 5.165-6.583 10.254-8.891 3.784-1.716 10.34-3.543 14.954-4.239 3.568-.539 14.52-2.124 17.612-1.14 2.174.696 2.791 3.433 3.822 5.615 3.441 7.289 5.728 12.01 9.033 19.807 4.571 10.796 3.608 7.923.973 14.145.092.068-.416.507.955.241.79-.152 1.162-1.403 1.816-2.287 2.14-2.905 3.373-7.949 4.563-11.503l13.501-39.949c.56-1.69 2.531-7.044 2.643-8.347-3.54.921-15.053 6.505-17.936 8.195a124.501 124.501 0 0 0-7.976 5.029c-1.279.874-2.525 1.68-3.754 2.622-11.53 8.818-12.82 2.889-26.302 6.348-6.489 1.664-16.633 6.123-19.467 6.703-.827-.983-1.439-4.374-2.025-5.955-.958-2.59-.918-1.983 2.122-5.008 14.616-14.522 31.726-24.203 52.153-30.142 7.284-2.115 20.623-4.433 28.766-3.983.225-.549.518-1.093.756-1.533l-2.81.246c-.099 0-.139-.005-.238-.005l-12.986 1.214c-5.806.942-6.426.957-12.6 2.465l-1.63.434c-6.435 1.711-13.113 4.568-19.12 7.085l-7.944 4.187c-.408.246-.432.262-.86.497l-16.019 11.173c-.654.533-.887.811-1.494 1.35l-.524.424c-.04.031-.097.073-.136.11l-12.402 12.585c-7.266 8.624-9.169 12.146-14.553 21.351-.037.058-.223.377-.259.434z" fill="#050407"/><path d="m164.676 282.478 21.613 29.023c1.711.272.384.115.908-.33-.144-27.72.06-55.978-.335-83.682l-.05-10.435c-.076-1.523.236-1.047-.51-1.177zM151.293 325.054l-22.366 67.941.824-.183c.259-1.109 12.507-17.798 14.218-20.2 4.762-6.672 9.409-13.213 14.2-19.838l21.336-29.96c1.195-1.648 6.237-8.362 6.913-10.361l-.558.089c-5.937 1.993-11.646 4.103-17.612 6.133l-13.226 4.511c-3.781 1.235-2.787.612-3.729 1.868" fill="#f15f5a"/><path d="m185.86 312.542.557-.089c1.275.33.233.099.552-.099-.615-.273-.402.057-.68-.853l-21.613-29.023-71.512-.309c.528.696 1.452.905 2.645 1.272 12.528 3.867 25.499 8.388 37.78 12.14 7.246 2.214 51.593 16.343 52.271 16.961" fill="#ce1f26"/><path d="M151.293 325.054c.942-1.256-.052-.633 3.729-1.868l13.226-4.511c5.966-2.03 11.675-4.14 17.612-6.133-.678-.618-45.025-14.747-52.27-16.961-12.283-3.752-25.253-8.273-37.781-12.14-1.193-.367-2.117-.576-2.645-1.272-1.408-.12-.283-.131-.657.398.631.533 1.384.879 1.952 1.287l5.511 3.946c2.496 1.847 4.893 3.532 7.436 5.327l42.414 30.163c.664.461 1.541.738 1.473 1.764" fill="#a81c21"/><path d="M131.611 391.153c.714-.188 5.906-4.04 6.918-4.809 1.102-.843 2.313-1.69 3.433-2.475l31.239-22.67c1.544-1.141 13.415-9.477 13.797-10.11.767-1.513.236-7.363.212-9.425-.047-4.087-.055-27.029-.594-27.777-.361.021-.604.544-.898.973l-13.012 18.19c-5.366 7.473-11.763 16.914-17.35 24.24-.706.926-1.065 1.58-1.753 2.501l-22.382 31.279c.209.224-.507.507.39.083M208.943 281.813c-.031-.963-4.542-14.328-5.23-16.437l-16.103-49.735c-.662.272-.434.026-.536 1.193-.018.225.034 1.135.042 1.434l.023 9.22c-.123 19.928.361 40.164.453 60.045.037 7.996-.053 15.95.112 23.962.953-.549 10.098-13.747 10.747-14.632 1.794-2.464 3.532-4.924 5.35-7.42l4.661-6.447c.531-.77.402-.293.481-1.183" fill="#ed1c24"/><path d="M117.369 406.659c.748-.508 3.15-10.042 3.744-11.733.55-1.554 3.559-10.759 3.245-11.596-1.939-.738-8.109-4.391-10.045-5.626-7.206-4.605-8.279-6.227-13.515-9.89-1.986-1.387-2.757-1.895-5.34-.66a39.865 39.865 0 0 0-4.982 2.816c-2.025 1.345-3.802 2.355-2.941 4.238 2.151 4.71 12.931 17.547 17.212 21.802a46.452 46.452 0 0 0 2.08 1.941c2.92 2.585 7.164 6.672 10.542 8.708M249.62 383.231c.076 1.858 2.679 9.618 3.425 11.785 1.329 3.857 2.14 7.724 3.524 11.591 1.581-1.052 3.03-2.365 4.553-3.585l10.759-9.812c.676-.753 1.194-1.391 1.884-2.135 2.732-2.935 12.853-15.599 13.805-19.022-1.444-.534-3.543-1.947-4.976-2.81-5.202-3.135-5.71-4.433-10.1-.947-1.507 1.198-2.635 2.166-4.197 3.365-3.389 2.606-14.98 10.576-18.677 11.57M254.139 408.391l-16.241-11.246c-1.036-.738-4.55-3.407-5.505-3.564-3.062 5.867-6.78 10.163-10.953 14.91-2.009 2.281-3.909 4.301-6.701 6.306-1.698 1.219-6.238 4.532-7.005 5.824-.143.827 2.34 3.234 3.015 3.904 2.692 2.663 1.855 2.679 7.818.942 9.456-2.743 16.429-5.469 24.962-10.257 3.49-1.963 7.868-4.517 10.61-6.819M119.808 408.564c1.646.895 3.71 2.454 5.442 3.585 11.173 7.295 18.737 9.22 30.92 13.543 2.585.915 4.817 1.465 6.868-.424.877-.801 3.135-3.789 3.645-5.16-5.764-2.606-10.67-8.033-14.307-11.675-1.957-1.957-4.074-4.84-5.788-7.216-1.593-2.209-3.639-5.301-4.971-7.677-1.246.471-8.907 6.211-10.867 7.488l-8.213 5.725c-.952.691-1.973 1.094-2.729 1.811" fill="#fffcfb"/><path d="M121.019 312.83c-.85-.952-15.553-11.795-17.175-13.062l-12.991-9.712c-1.253-.948-3.488-2.826-4.401-3.166.416 5.196 5.989 18.635 8.598 23.784 2.452 4.841 5.139 4.427 11.222 3.705 2.457-.288 4.964-.476 7.403-.659 2.509-.194 4.879-.634 7.344-.89M252.799 312.746l14.59 1.45c6.188.596 9.035 1.481 11.426-3.632 3.208-6.855 7.421-16.081 8.42-23.727-1.486.775-3.16 2.355-4.327 3.224l-25.972 19.414c-1.408 1.047-2.918 2.125-4.137 3.271" fill="#fffffd"/><path d="M208.901 404.116c1.169.241 2.025.304 2.459-.733.37-.884.173-2.281-.366-2.752-1.659-1.465-3.093 1.188-2.093 3.485M209.186 397.47c2.475.785 2.656-2.098 1.779-2.967-1.36-1.356-2.716.827-1.779 2.967" fill="#fffcfb"/></g><path d="m76.404 221.853-1.587-1.366 4.043-4.699 1.588 1.371 3.202-3.721 5.596-.91 4.449 3.83-.087 5.647-3.203 3.721 1.361 1.172 1.94-1.335 3.424 2.952-7.01 8.143-3.425-2.947 1.029-2.119-1.36-1.167-3.222 3.741-5.575.927-4.445-3.826.061-5.672zm2.424 5.123-.032 1 1.133.978 1.007-.162 1.502-1.748-2.109-1.816zm5.544-6.442 2.109 1.816 1.484-1.727.007-1.015-1.132-.979-.984.184zM111.555 195.918l-1.062 4.27 7.975 3.836 2.067-.774 2.692 3.668-8.035 5.898-2.69-3.669.85-1.366-4.361-1.999-.743 3.036 1.292 1.758 1.562-.403 2.693 3.668-8.206 6.024-2.69-3.669 1.479-1.826-6.288-8.567-2.187.864-2.711-3.695 8.156-5.981 2.71 3.689-.805 1.334 2.409 3.282 1.356-6.045-1.536.382-2.711-3.689 8.059-5.913 2.711 3.689zM163.143 178.983l-1.507 2.031 2.446 1.187 1.343 5.495-3.321 4.448-8.634 2.109-4.967-2.423-.902-3.694 5.466-1.335 1.073 1.989 4.126-1.01.578-.785-.568-2.329-.84-.408-4.301 1.052-.869-3.548 4.275-1.047.555-.748-.51-2.093-.84-.414-4.129 1.01-.034 2.256-5.466 1.334-.937-3.836 3.146-4.28 8.838-2.162 4.791 2.345zM190.949 178.643l2.143 1.675.155 5.625-4.151 3.648-15.319.424-.126-4.548 2.258-.659-.293-10.623-2.292-.534-.125-4.579 15.377-.424 4.163 3.297.138 5.029zm-9.053-1.455 4.16-.115.701-.617-.055-1.978-.735-.576-4.158.115zm.207 7.447 4.157-.115.762-.649-.071-2.575-.735-.575-4.218.115zM218.695 189.831l-4.82 2.705-9.008-1.653-3.386-4.092 2.53-13.779 4.82-2.706 8.859 1.628 3.572 4.249-1.028 5.594-3.936 2.046-7.975-.157-.35 1.911.651.758 4.268.785.983-2.041 5.506 1.01zm-4.16-11.476.199-1.089-.623-.753-3.561-.654-.879.476-.427 2.324 4.639.094zM246.182 190.35l-2.41.769 1.287 2.397-2.129 5.238-5.296 1.659-8.234-3.344-2.609-4.872 1.431-3.522 5.212 2.12-.295 2.234 3.938 1.602.928-.299.903-2.218-.44-.827-4.105-1.67 1.376-3.38 4.074 1.659.893-.288.811-1.994-.44-.827-3.938-1.601-1.35 1.81-5.212-2.114 1.486-3.663 5.055-1.627 8.431 3.427 2.514 4.7zM249.096 210.936l-3.626-2.491 4.898-7.127 2.213.795 6.66-9.697 6.245-.575 11.073 7.608-2.59 3.773-1.722-.455-5.997 8.734 1.536 1.78-4.898 7.132-3.627-2.491 1.787-3.715-9.129-6.269zm11.683-2.47 6.337-9.226-2.687-1.847-1.107.078-5.05 7.353-2.352.309zM288.721 234.674l-3.349 3.077-7.191-7.829 3.355-3.077 1.512.764 1-1.648-3.056-3.329-1.711.88.554 1.486-3.354 3.077-6.071-6.615 3.35-3.077 1.999 1.293 9.89-4.94-.874-1.837 3.375-3.098 8.18 8.907-8.912 13.663zm-4.495-13.831 1.8 1.957 2.554-4.165z" fill="#fff"/><path d="m167.442 392.106 2.153-1.806h4.846l2.156 1.806v3.025l-1.886 1.549-3.8.633-.301.272v1.078h2.724l.317-1.141h2.946v3.862h-9.281v-5.034l1.853-1.444 3.817-.633.348-.268v-.648l-.413-.32h-2.2l-.317 1.157h-2.962z" fill="#231f20"/><clipPath id="aS"><path transform="matrix(1 0 0 -1 0 595.276)" d="M0 0h841.89v595.276H0z"/></clipPath><g clip-path="url(#aS)" fill="#231f20"><path d="M185.02 401.384h-4.527l-2.391-1.978v-7.175l2.31-1.93h4.705l2.313 1.93v7.175c-.809.649-1.601 1.329-2.41 1.978m-3.229-8.347-.429.335v4.925l.445.366h1.915l.445-.366v-4.925l-.429-.335zM195.902 401.384h-4.529l-2.392-1.978v-7.175l2.311-1.93h4.704l2.313 1.93v7.175c-.808.649-1.601 1.329-2.407 1.978m-3.231-8.347-.427.335v4.925l.442.366h1.916l.444-.366v-4.925l-.429-.335z"/></g><path d="m209.061 394.748-1.028.858 1.109.916v2.994l-2.266 1.867h-4.767l-2.248-1.867v-2.994l1.107-.916-1.044-.858v-2.643l2.153-1.805h4.815l2.169 1.805zm-5.937 2.203v1.376l.411.335h1.915l.398-.335v-1.376l-.382-.319h-1.931zm.031-3.595v1.031l.38.314h1.915l.38-.314v-1.031l-.38-.319h-1.915z" fill="#231f20"/><clipPath id="aT"><path transform="matrix(1 0 0 -1 0 595.276)" d="M0 0h841.89v595.276H0z"/></clipPath><g clip-path="url(#aT)" stroke-width="2" stroke-linecap="round" stroke-linejoin="round" fill="none" stroke="#231f20"><path stroke-dasharray="0,4.013" d="M-186.325 533.91h463.524"/><path d="M-190.339 533.91h0m469.543 0h0"/></g></svg>