<svg xmlns="http://www.w3.org/2000/svg" xmlns:xlink="http://www.w3.org/1999/xlink" width="1122.52" height="793.701" viewBox="0 0 841.89 595.276"><symbol id="a"><path d="M.038.074h.14v.484l.01.059L.148.57.038.491 0 .542l.22.17h.036V.074h.137V0H.038v.074z"/></symbol><symbol id="b"><path d="M.136.07C.182.07.22.083.25.11c.03.027.045.065.045.116C.295.275.28.311.25.335a.187.187 0 0 1-.122.036L.044.366v.346h.312V.638H.119V.439l.043.002A.221.221 0 0 0 .318.386C.356.35.375.298.375.231a.25.25 0 0 0-.019-.1.215.215 0 0 0-.128-.116A.29.29 0 0 0 .134 0a.488.488 0 0 0-.076.005A.308.308 0 0 0 0 .02l.021.068A.279.279 0 0 1 .136.07z"/></symbol><use xlink:href="#a" transform="matrix(12 0 0 -12 818.32 575.06)" fill="#231f20"/><use xlink:href="#b" transform="matrix(12 0 0 -12 824.944 575.203)" fill="#231f20"/><clipPath id="c"><path transform="matrix(1 0 0 -1 0 595.276)" d="M0 0h841.89v595.276H0z"/></clipPath><g clip-path="url(#c)"><path d="M141.732 545.103s0 14.173 14.173 14.173h58.488s14.174 0 14.174-14.173V193.859s0-14.173-14.174-14.173h-58.488s-14.173 0-14.173 14.173zM36 545.103s0 14.173 14.173 14.173h58.488s14.174 0 14.174-14.173V193.859s0-14.173-14.174-14.173H50.173S36 179.686 36 193.859z" fill="#e6e7e8"/><path d="M141.732 545.103s0 14.173 14.173 14.173h58.488s14.174 0 14.174-14.173v-53.764s0-14.173-14.174-14.173h-58.488s-14.173 0-14.173 14.173zM36 545.103s0 14.173 14.173 14.173h58.488s14.174 0 14.174-14.173V272.127s0-14.174-14.174-14.174H50.173S36 257.953 36 272.127z" fill="#d2232a"/></g><symbol id="d"><path d="M.273.7H.112L0 0h.101L.12.127h.135L.274 0h.111L.273.7M.187.576.24.222H.134l.053.354z"/></symbol><symbol id="e"><path d="M.394.711H.279l-.05-.24L.203.308.169.472l-.06.239H0l.152-.54L.151.165C.142.114.11.104.054.108V.01C.207 0 .25.063.276.189l.118.522z"/></symbol><symbol id="f"><path d="M.451 0v.192H.403v.602H.095L.07.283C.068.242.062.216.043.192H0V0h.107v.094h.235V0h.109M.198.694h.093V.192H.147c.018.017.028.04.031.093l.02.409z"/></symbol><symbol id="g"><path d="M.205.321.25.493V0h.099v.7H.228L.138.411.098.257V.7H0V0h.113l.092.321z"/></symbol><symbol id="h"><path d="M0 .6h.115V0h.11v.6H.34v.1H0V.6z"/></symbol><symbol id="i"><path d="M.11.547c0 .05.022.069.057.069S.224.597.224.547V.169C.224.119.202.1.167.1S.11.119.11.169v.378M0 .176C0 .064.059 0 .167 0c.108 0 .167.064.167.176V.54c0 .112-.059.176-.167.176C.059.716 0 .652 0 .54V.176z"/></symbol><symbol id="j"><path d="M.162.7H0V0h.11v.263h.052c.11 0 .164.061.164.173v.091C.326.639.272.7.162.7m0-.1C.197.6.216.584.216.534V.429C.216.379.197.363.162.363H.11V.6h.052z"/></symbol><symbol id="k"><path d="M.112 0c.006.018.01.029.01.086v.11c0 .065.022.089.072.089h.038V0h.11v.7H.176C.062.7.013.647.013.539V.484c0-.072.023-.119.072-.142C.03.319.012.266.012.193V.085A.206.206 0 0 0 0 0h.112m.12.6V.385H.189C.148.385.123.403.123.459v.069C.123.578.14.6.179.6h.053z"/></symbol><use xlink:href="#d" transform="matrix(72 0 0 -72 36.792 90)" fill="#231f20"/><use xlink:href="#e" transform="matrix(72 0 0 -72 67.68 90.792)" fill="#231f20"/><use xlink:href="#f" transform="matrix(72 0 0 -72 99.432 96.768)" fill="#231f20"/><use xlink:href="#g" transform="matrix(72 0 0 -72 138.096 90)" fill="#231f20"/><use xlink:href="#h" transform="matrix(72 0 0 -72 168.336 90)" fill="#231f20"/><use xlink:href="#i" transform="matrix(72 0 0 -72 197.424 90.576)" fill="#231f20"/><use xlink:href="#j" transform="matrix(72 0 0 -72 228.384 90)" fill="#231f20"/><use xlink:href="#g" transform="matrix(72 0 0 -72 257.328 90)" fill="#231f20"/><use xlink:href="#k" transform="matrix(72 0 0 -72 288.432 90)" fill="#231f20"/><symbol id="l"><path d="M.344.176v.055c0 .067-.02.119-.068.146.045.025.068.072.068.141V.54c0 .112-.061.176-.172.176C.061.716 0 .652 0 .54V.518C0 .449.022.402.068.377.02.35 0 .298 0 .231V.176C0 .064.061 0 .172 0c.111 0 .172.064.172.176M.11.179v.065c0 .055.023.079.062.079S.234.299.234.244V.179C.233.117.207.1.172.1S.11.117.11.179m0 .357c0 .063.027.08.062.08S.234.599.234.536V.497C.234.441.207.423.172.423.136.423.11.441.11.497v.039z"/></symbol><symbol id="m"><path d="M.11.547c0 .05.022.069.057.069S.224.597.224.547V.169C.224.119.202.1.167.1S.11.119.11.169v.378M0 .176C0 .064.059 0 .167 0c.108 0 .167.064.167.176V.54c0 .112-.059.176-.167.176C.059.716 0 .652 0 .54V.176z"/></symbol><symbol id="n"><path d="M.07.603c0 .031.013.044.036.044.022 0 .036-.013.036-.044v-.24C.142.332.128.319.106.319.083.319.07.332.07.363v.24M0 .368C0 .296.037.256.106.256s.106.04.106.112v.23C.212.67.175.71.106.71S0 .67 0 .598v-.23M.106.005h.065l.276.7H.382l-.276-.7m.311.342c0 .031.013.044.036.044.022 0 .036-.013.036-.044v-.24C.489.076.475.063.453.063.43.063.417.076.417.107v.24M.347.112C.347.04.384 0 .453 0s.106.04.106.112v.23c0 .072-.037.112-.106.112S.347.414.347.342v-.23z"/></symbol><symbol id="o"><path d="M0 0z"/></symbol><symbol id="p"><path d="M.224.269v-.1C.224.119.202.101.167.101S.11.119.11.169v.378c0 .05.022.069.057.069S.224.597.224.547V.472h.104V.54c0 .112-.056.176-.164.176C.056.716 0 .652 0 .54V.176C0 .064.056 0 .164 0c.108 0 .164.064.164.176v.093H.224z"/></symbol><symbol id="q"><path d="M.11.3h.125V0h.112v.7H.235V.4H.11v.3H0V0h.11v.3z"/></symbol><symbol id="r"><path d="M.251 0h.113L.211.388.364.7h-.11L.11.395V.7H0V0h.11v.215l.034.064L.251 0z"/></symbol><symbol id="s"><path d="M0 0h.2v.1H0V0z"/></symbol><symbol id="t"><path d="M.11.6h.125V0h.112v.7H0V0h.11v.6z"/></symbol><symbol id="u"><path d="M.11.6H.3v.1H0V0h.3v.1H.11v.205h.151v.1H.11V.6z"/></symbol><symbol id="v"><path d="M.174 0C.284 0 .34.061.34.173v.075C.34.36.284.421.174.421H.11V.6h.198v.1H0V0h.174M.11.1v.221h.064C.209.321.23.305.23.255V.166C.23.116.209.1.174.1H.11z"/></symbol><symbol id="w"><path d="M.11 0v.6h.18v.1H0V0h.11z"/></symbol><use xlink:href="#l" transform="matrix(40 0 0 -40 318.316 188.112)" fill="#231f20"/><use xlink:href="#m" transform="matrix(40 0 0 -40 335.356 188.112)" fill="#231f20"/><use xlink:href="#n" transform="matrix(40 0 0 -40 352.316 187.992)" fill="#231f20"/><use xlink:href="#o" transform="matrix(40 0 0 -40 377.036 187.792)" fill="#231f20"/><use xlink:href="#p" transform="matrix(40 0 0 -40 390.516 188.112)" fill="#231f20"/><use xlink:href="#d" transform="matrix(40 0 0 -40 406.156 187.792)" fill="#231f20"/><use xlink:href="#q" transform="matrix(40 0 0 -40 424.596 187.792)" fill="#231f20"/><use xlink:href="#r" transform="matrix(40 0 0 -40 442.676 187.792)" fill="#231f20"/><use xlink:href="#h" transform="matrix(40 0 0 -40 458.956 187.792)" fill="#231f20"/><use xlink:href="#s" transform="matrix(40 0 0 -40 475.276 175.792)" fill="#231f20"/><use xlink:href="#t" transform="matrix(40 0 0 -40 487.276 187.792)" fill="#231f20"/><use xlink:href="#u" transform="matrix(40 0 0 -40 505.356 187.792)" fill="#231f20"/><use xlink:href="#h" transform="matrix(40 0 0 -40 519.796 187.792)" fill="#231f20"/><use xlink:href="#u" transform="matrix(40 0 0 -40 536.316 187.792)" fill="#231f20"/><use xlink:href="#j" transform="matrix(40 0 0 -40 552.036 187.792)" fill="#231f20"/><use xlink:href="#v" transform="matrix(40 0 0 -40 568.156 187.792)" fill="#231f20"/><use xlink:href="#e" transform="matrix(40 0 0 -40 584.436 188.232)" fill="#231f20"/><use xlink:href="#j" transform="matrix(40 0 0 -40 603.036 187.792)" fill="#231f20"/><use xlink:href="#w" transform="matrix(40 0 0 -40 619.156 187.792)" fill="#231f20"/><symbol id="x"><path d="M0 0z"/></symbol><symbol id="y"><path d="m.301.228.005.071H.303L.26.226.082 0H0v.5h.13V.262L.124.194h.004l.041.071.18.235h.082V0h-.13v.228z"/></symbol><symbol id="z"><path d="M.496.043A.21.21 0 0 0 .414.01.504.504 0 0 0 .313 0a.377.377 0 0 0-.12.019.264.264 0 0 0-.099.063.321.321 0 0 0-.069.113A.505.505 0 0 0 0 .364C0 .433.01.49.028.536c.02.047.044.084.074.112.03.029.065.049.102.061a.347.347 0 0 0 .112.019.538.538 0 0 0 .17-.027L.459.585a.199.199 0 0 1-.055.016.488.488 0 0 1-.076.005c-.055 0-.1-.02-.134-.059-.033-.04-.05-.1-.05-.183 0-.036.004-.069.012-.099A.223.223 0 0 1 .192.189.182.182 0 0 1 .253.14.202.202 0 0 1 .338.123c.03 0 .055.003.076.009.02.006.039.014.054.023L.496.043z"/></symbol><symbol id="A"><path d="M.424.057A.26.26 0 0 0 .342.016.362.362 0 0 0 .233 0c-.08 0-.14.023-.177.07A.305.305 0 0 0 0 .264c0 .088.021.154.063.198A.233.233 0 0 0 .24.528c.025 0 .05-.003.074-.01A.162.162 0 0 0 .423.423.243.243 0 0 0 .44.326.473.473 0 0 0 .43.231h-.3A.148.148 0 0 1 .162.136C.182.115.214.104.258.104a.207.207 0 0 1 .123.038L.424.057M.238.424C.204.424.178.414.162.393A.15.15 0 0 1 .133.312h.186C.322.348.316.376.302.395.289.415.267.424.238.424z"/></symbol><symbol id="B"><path d="M0 .507a3.53 3.53 0 0 0 .191.009c.073 0 .125-.01.156-.032C.378.464.394.432.394.39a.13.13 0 0 0-.02-.068.114.114 0 0 0-.063-.048V.27A.13.13 0 0 0 .389.227.121.121 0 0 0 .413.149c0-.05-.02-.087-.058-.112A.349.349 0 0 0 .171 0 1.4 1.4 0 0 0 0 .009v.498M.127.108A.448.448 0 0 1 .183.104c.036 0 .062.005.077.015.015.01.023.025.023.046a.051.051 0 0 1-.02.042C.25.218.227.224.194.224H.127V.108m.069.196c.021 0 .039.005.052.015.014.01.021.024.021.04 0 .017-.006.03-.018.039C.24.408.219.412.188.412A.543.543 0 0 1 .127.409V.304h.069z"/></symbol><symbol id="C"><path d="M0 .7h.095L.11.64h.004a.167.167 0 0 0 .061.056.193.193 0 0 0 .087.018c.063 0 .11-.02.141-.06C.434.614.45.551.45.463A.418.418 0 0 0 .435.347.24.24 0 0 0 .39.26.19.19 0 0 0 .318.205.233.233 0 0 0 .221.186.216.216 0 0 0 .13.205V0H0v.7M.223.604a.089.089 0 0 1-.06-.019A.126.126 0 0 1 .13.528V.32A.138.138 0 0 1 .16.302.135.135 0 0 1 .204.296c.037 0 .065.013.084.039.019.027.028.07.028.131a.196.196 0 0 1-.022.102C.279.592.256.604.223.604z"/></symbol><symbol id="D"><path d="M0 .264c0 .085.02.15.062.195.041.046.1.069.174.069.04 0 .075-.006.104-.019A.192.192 0 0 0 .413.455.218.218 0 0 0 .456.372.368.368 0 0 0 .471.264c0-.085-.02-.15-.062-.196A.22.22 0 0 0 .236 0a.261.261 0 0 0-.104.019.206.206 0 0 0-.074.053.24.24 0 0 0-.044.084A.392.392 0 0 0 0 .264m.134 0C.134.242.136.222.14.203A.17.17 0 0 1 .158.154.092.092 0 0 1 .189.121.096.096 0 0 1 .236.11c.034 0 .06.012.076.037a.213.213 0 0 1 .025.117.23.23 0 0 1-.023.111C.299.404.273.418.236.418A.088.088 0 0 1 .161.382C.143.358.134.319.134.264z"/></symbol><symbol id="E"><path d="M0 .115h.251V0H0v.115z"/></symbol><symbol id="F"><path d="M.102.324v.107h.072a4.959 4.959 0 0 1 .048.006.147.147 0 0 1 .06.028.07.07 0 0 1 .025.056c0 .032-.01.054-.031.065a.155.155 0 0 1-.08.018.33.33 0 0 1-.143-.035L.018.685a.517.517 0 0 0 .199.041c.03 0 .058-.003.086-.008A.224.224 0 0 0 .378.69.152.152 0 0 0 .431.636a.162.162 0 0 0 .02-.085.175.175 0 0 0-.028-.096.155.155 0 0 0-.088-.064V.386A.17.17 0 0 0 .436.33.17.17 0 0 0 .473.215.197.197 0 0 0 .45.117.2.2 0 0 0 .389.051.252.252 0 0 0 .303.013.388.388 0 0 0 .203 0a.603.603 0 0 0-.12.011A.33.33 0 0 0 0 .037l.035.119A.415.415 0 0 1 .247.127c.015.004.029.01.041.018C.3.154.31.165.317.178c.007.013.011.03.011.048a.08.08 0 0 1-.035.071C.27.313.228.322.168.323A.237.237 0 0 1 .15.324H.102z"/></symbol><symbol id="G"><path d="M.031.479a.585.585 0 0 0 .21.039.252.252 0 0 0 .087-.013.124.124 0 0 0 .084-.09.266.266 0 0 0 .009-.072C.421.313.42.284.418.254A1.151 1.151 0 0 1 .417.083.314.314 0 0 1 .432.007H.326L.305.076H.3A.181.181 0 0 0 .244.022.169.169 0 0 0 .153 0 .186.186 0 0 0 .09.01a.147.147 0 0 0-.048.03A.144.144 0 0 0 0 .146c0 .03.007.056.02.077a.148.148 0 0 0 .059.051.281.281 0 0 0 .092.027.628.628 0 0 0 .12.005C.296.343.293.37.283.386.273.403.251.411.216.411A.465.465 0 0 1 .062.382L.031.479M.196.107c.026 0 .047.006.062.017a.127.127 0 0 1 .034.038v.065a.363.363 0 0 1-.06.001.216.216 0 0 1-.05-.009.085.085 0 0 1-.035-.02.045.045 0 0 1-.013-.033A.06.06 0 0 1 .15.122.067.067 0 0 1 .196.107z"/></symbol><symbol id="H"><path d="M.288.385H.13V0H0v.5h.418V0h-.13v.385z"/></symbol><symbol id="I"><path d="M.556 0H.461L.446.114H.11L.095 0H0v.229h.059a.415.415 0 0 1 .045.11c.009.03.016.069.022.114.006.045.009.099.009.161h.348V.229h.073V0M.353.223v.281H.248A1.178 1.178 0 0 0 .211.278.294.294 0 0 0 .189.223h.164z"/></symbol><symbol id="J"><path d="M.293.197H.13V0H0v.5h.13V.312h.163V.5h.13V0h-.13v.197z"/></symbol><symbol id="K"><path d="M.13.116A.291.291 0 0 1 .187.11c.03 0 .051.005.063.016.012.011.018.029.018.052C.268.199.262.215.25.226.238.237.218.243.19.243A.24.24 0 0 1 .13.236v-.12m0 .213A.258.258 0 0 0 .308.324.135.135 0 0 0 .363.292a.12.12 0 0 0 .03-.05.237.237 0 0 0-.003-.14.13.13 0 0 0-.039-.057.19.19 0 0 0-.07-.034A.435.435 0 0 0 .175 0 2.117 2.117 0 0 0 0 .007v.5h.13V.329m.329.178h.13v-.5h-.13v.5z"/></symbol><symbol id="L"><path d="m.301.228.005.071H.303L.26.226.082 0H0v.5h.13V.262L.124.194h.004l.041.071.18.235h.082V0h-.13v.228M.162.704A.103.103 0 0 1 .185.649.06.06 0 0 1 .228.633a.06.06 0 0 1 .044.016c.011.01.019.029.023.054L.394.678A.143.143 0 0 0 .335.581.195.195 0 0 0 .225.55c-.02 0-.04.002-.06.007a.165.165 0 0 0-.052.022.149.149 0 0 0-.039.04.151.151 0 0 0-.022.059l.11.026z"/></symbol><symbol id="M"><path d="M.258.194A.128.128 0 0 0 .222.187.599.599 0 0 0 .189.186a.165.165 0 0 0-.14.065C.016.294 0 .361 0 .45 0 .535.018.6.054.644.09.688.142.71.21.71A.248.248 0 0 0 .258.706V.9h.128V.705A.348.348 0 0 0 .445.71C.511.71.561.69.594.651.627.612.644.549.644.46A.43.43 0 0 0 .63.346.255.255 0 0 0 .591.26a.174.174 0 0 0-.15-.074.268.268 0 0 0-.055.007V0H.258v.194m.158.413c-.007 0-.013 0-.018-.002A.5.5 0 0 1 .38.602v-.31A.126.126 0 0 1 .398.289h.023c.032 0 .055.013.07.039A.28.28 0 0 1 .514.46c0 .052-.007.09-.022.112C.477.595.452.607.416.607M.223.289a.182.182 0 0 1 .041.005v.309a.189.189 0 0 1-.039.004.081.081 0 0 1-.071-.036C.138.548.13.507.13.45.13.398.137.358.152.33A.076.076 0 0 1 .223.289z"/></symbol><symbol id="N"><path d="M.346.391H.247A4.806 4.806 0 0 0 .233.25.656.656 0 0 0 .207.124.25.25 0 0 0 .16.034.1.1 0 0 0 .082 0 .164.164 0 0 0 0 .015l.016.108a.086.086 0 0 1 .03-.006c.013 0 .025.006.035.017.01.011.018.032.025.061.007.03.013.069.017.119.005.05.008.115.01.192h.343v-.5h-.13v.385z"/></symbol><symbol id="O"><path d="M.13.116A.291.291 0 0 1 .187.11c.032 0 .055.005.069.016.015.011.022.029.022.052 0 .043-.03.065-.088.065A.24.24 0 0 1 .13.236v-.12m0 .213A.28.28 0 0 0 .311.324.143.143 0 0 0 .369.292a.12.12 0 0 0 .033-.05.18.18 0 0 0 .01-.061C.412.121.394.075.358.045.322.015.261 0 .175 0A2.117 2.117 0 0 0 0 .007v.5h.13V.329z"/></symbol><symbol id="P"><path d="M.165.207H.13V0H0v.5h.13V.287l.031.014L.278.5h.139L.296.31.245.272.301.233.436 0H.287L.165.207z"/></symbol><symbol id="Q"><path d="M.248.424.266.346h.006l.013.079.076.28h.134L.343.254A2.379 2.379 0 0 0 .306.152.438.438 0 0 0 .268.071.171.171 0 0 0 .221.019.096.096 0 0 0 .161 0a.173.173 0 0 0-.083.017l.024.104a.063.063 0 0 1 .074.014c.015.013.026.036.033.07L0 .705h.156L.248.424z"/></symbol><symbol id="R"><path d="M.323.385H.134V0H0v.5h.323V.385z"/></symbol><use xlink:href="#x" transform="matrix(16 0 0 -16 317.276 206.992)" fill="#231f20"/><use xlink:href="#x" transform="matrix(16 0 0 -16 321.324 206.992)" fill="#231f20"/><use xlink:href="#x" transform="matrix(16 0 0 -16 325.372 206.992)" fill="#231f20"/><use xlink:href="#x" transform="matrix(16 0 0 -16 329.42 206.992)" fill="#231f20"/><use xlink:href="#x" transform="matrix(16 0 0 -16 333.468 206.992)" fill="#231f20"/><use xlink:href="#x" transform="matrix(16 0 0 -16 337.516 206.992)" fill="#231f20"/><use xlink:href="#x" transform="matrix(16 0 0 -16 341.564 206.992)" fill="#231f20"/><use xlink:href="#x" transform="matrix(16 0 0 -16 345.612 206.992)" fill="#231f20"/><use xlink:href="#x" transform="matrix(16 0 0 -16 349.66 206.992)" fill="#231f20"/><use xlink:href="#x" transform="matrix(16 0 0 -16 353.708 206.992)" fill="#231f20"/><use xlink:href="#x" transform="matrix(16 0 0 -16 357.756 206.992)" fill="#231f20"/><use xlink:href="#x" transform="matrix(16 0 0 -16 361.804 206.992)" fill="#231f20"/><use xlink:href="#x" transform="matrix(16 0 0 -16 365.852 206.992)" fill="#231f20"/><use xlink:href="#x" transform="matrix(16 0 0 -16 369.9 206.992)" fill="#231f20"/><use xlink:href="#x" transform="matrix(16 0 0 -16 373.948 206.992)" fill="#231f20"/><use xlink:href="#x" transform="matrix(16 0 0 -16 377.996 206.992)" fill="#231f20"/><use xlink:href="#x" transform="matrix(16 0 0 -16 382.044 206.992)" fill="#231f20"/><use xlink:href="#x" transform="matrix(16 0 0 -16 386.092 206.992)" fill="#231f20"/><use xlink:href="#y" transform="matrix(16 0 0 -16 391.052 206.992)" fill="#231f20"/><use xlink:href="#x" transform="matrix(16 0 0 -16 398.86 206.992)" fill="#231f20"/><use xlink:href="#z" transform="matrix(16 0 0 -16 403.305 207.216)" fill="#231f20"/><use xlink:href="#A" transform="matrix(16 0 0 -16 411.593 207.216)" fill="#231f20"/><use xlink:href="#B" transform="matrix(16 0 0 -16 420.105 207.12)" fill="#231f20"/><use xlink:href="#A" transform="matrix(16 0 0 -16 427.8 207.216)" fill="#231f20"/><use xlink:href="#C" transform="matrix(16 0 0 -16 436.313 210.192)" fill="#231f20"/><use xlink:href="#D" transform="matrix(16 0 0 -16 444.569 207.216)" fill="#231f20"/><use xlink:href="#E" transform="matrix(16 0 0 -16 453.497 203.312)" fill="#231f20"/><use xlink:href="#F" transform="matrix(16 0 0 -16 458.68 207.216)" fill="#231f20"/><use xlink:href="#G" transform="matrix(16 0 0 -16 467.177 207.12)" fill="#231f20"/><use xlink:href="#H" transform="matrix(16 0 0 -16 475.657 206.992)" fill="#231f20"/><use xlink:href="#G" transform="matrix(16 0 0 -16 483.625 207.12)" fill="#231f20"/><use xlink:href="#I" transform="matrix(16 0 0 -16 491.16 208.816)" fill="#231f20"/><use xlink:href="#J" transform="matrix(16 0 0 -16 501.193 206.992)" fill="#231f20"/><use xlink:href="#K" transform="matrix(16 0 0 -16 509.785 207.104)" fill="#231f20"/><use xlink:href="#L" transform="matrix(16 0 0 -16 521.033 206.992)" fill="#231f20"/><use xlink:href="#x" transform="matrix(16 0 0 -16 528.84 206.992)" fill="#231f20"/><use xlink:href="#M" transform="matrix(16 0 0 -16 533.337 210.192)" fill="#231f20"/><use xlink:href="#A" transform="matrix(16 0 0 -16 544.617 207.216)" fill="#231f20"/><use xlink:href="#I" transform="matrix(16 0 0 -16 552.007 208.816)" fill="#231f20"/><use xlink:href="#A" transform="matrix(16 0 0 -16 561.655 207.216)" fill="#231f20"/><use xlink:href="#C" transform="matrix(16 0 0 -16 570.167 210.192)" fill="#231f20"/><use xlink:href="#G" transform="matrix(16 0 0 -16 578.263 207.12)" fill="#231f20"/><use xlink:href="#N" transform="matrix(16 0 0 -16 585.56 207.088)" fill="#231f20"/><use xlink:href="#O" transform="matrix(16 0 0 -16 594.983 207.104)" fill="#231f20"/><use xlink:href="#J" transform="matrix(16 0 0 -16 602.823 206.992)" fill="#231f20"/><use xlink:href="#K" transform="matrix(16 0 0 -16 611.415 207.104)" fill="#231f20"/><use xlink:href="#L" transform="matrix(16 0 0 -16 622.663 206.992)" fill="#231f20"/><use xlink:href="#x" transform="matrix(16 0 0 -16 630.471 206.992)" fill="#231f20"/><use xlink:href="#D" transform="matrix(16 0 0 -16 635.047 207.216)" fill="#231f20"/><use xlink:href="#P" transform="matrix(16 0 0 -16 644.023 206.992)" fill="#231f20"/><use xlink:href="#C" transform="matrix(16 0 0 -16 651.847 210.192)" fill="#231f20"/><use xlink:href="#Q" transform="matrix(16 0 0 -16 659.238 210.272)" fill="#231f20"/><use xlink:href="#R" transform="matrix(16 0 0 -16 667.942 206.992)" fill="#231f20"/><symbol id="S"><path d="M.038.11h.139v.395l.015.068L.144.514.055.453 0 .528l.228.184h.073V.11h.136V0H.038v.11z"/></symbol><symbol id="T"><path d="M0 .365c0 .123.021.214.063.273.042.06.102.09.181.09.084 0 .146-.03.185-.089A.5.5 0 0 0 .488.365.477.477 0 0 0 .424.09.207.207 0 0 0 .243 0C.16 0 .098.031.059.094A.516.516 0 0 0 0 .365m.13 0C.13.284.139.221.156.176.174.132.203.11.244.11c.04 0 .068.02.086.061.019.04.028.105.028.194a.53.53 0 0 1-.026.187C.315.596.285.618.243.618.203.618.174.598.156.556A.524.524 0 0 1 .13.365z"/></symbol><symbol id="U"><path d="M0 .556c0 .03.004.056.013.077a.134.134 0 0 0 .091.083.258.258 0 0 0 .141.001A.14.14 0 0 0 .3.688.129.129 0 0 0 .337.635a.232.232 0 0 0 0-.159A.13.13 0 0 0 .3.424.14.14 0 0 0 .245.395a.269.269 0 0 0-.141 0 .135.135 0 0 0-.091.081.219.219 0 0 0-.013.08m.116 0C.116.499.136.47.175.47c.02 0 .035.006.044.018.01.013.014.035.015.068C.234.588.228.61.219.623.21.636.196.642.175.642.155.642.139.636.13.623.12.61.116.588.116.556m.29-.371c0 .03.004.056.013.077A.134.134 0 0 0 .51.345a.258.258 0 0 0 .141.001.14.14 0 0 0 .055-.029.129.129 0 0 0 .037-.053.232.232 0 0 0 0-.159.13.13 0 0 0-.037-.052.14.14 0 0 0-.055-.029.269.269 0 0 0-.141 0 .135.135 0 0 0-.091.081.219.219 0 0 0-.013.08m.116 0c0-.057.02-.086.059-.086.02 0 .035.006.044.018.01.013.014.035.015.068C.64.217.634.239.625.252.616.265.602.271.581.271.561.271.545.265.536.252.526.239.522.217.522.185m.104.543L.699.662.123 0 .05.069l.576.659z"/></symbol><symbol id="V"><path d="m.543.363.015.139H.552L.509.39.36.129H.316L.159.391.115.502H.11L.13.364V0H0v.7h.125L.312.38.345.3h.004l.03.082L.556.7H.68V0H.543v.363z"/></symbol><symbol id="W"><path d="M.378.045A.21.21 0 0 0 .305.012.315.315 0 0 0 .218 0a.247.247 0 0 0-.102.019.176.176 0 0 0-.067.053.231.231 0 0 0-.038.084A.494.494 0 0 0 0 .264c0 .085.019.15.057.195.038.046.093.069.166.069A.298.298 0 0 0 .372.496L.341.39a.257.257 0 0 1-.046.017.195.195 0 0 1-.051.006C.208.413.181.401.162.377.143.354.134.316.134.264c0-.021.002-.041.007-.059A.144.144 0 0 1 .162.158.104.104 0 0 1 .198.126.121.121 0 0 1 .251.115c.022 0 .04.003.056.008a.215.215 0 0 1 .041.021l.03-.099z"/></symbol><symbol id="X"><path d="M.605 0H.508L.493.125H0v.7h.137V.247h.241v.578h.137V.247h.09V0z"/></symbol><symbol id="Y"><path d="M.416.385H.275V0H.141v.385H0V.5h.416V.385z"/></symbol><use xlink:href="#S" transform="matrix(16 0 0 -16 318.284 238.192)" fill="#231f20"/><use xlink:href="#T" transform="matrix(16 0 0 -16 326.988 238.416)" fill="#231f20"/><use xlink:href="#U" transform="matrix(16 0 0 -16 336.236 238.416)" fill="#231f20"/><use xlink:href="#x" transform="matrix(16 0 0 -16 348.86 238.192)" fill="#231f20"/><use xlink:href="#x" transform="matrix(16 0 0 -16 353.276 238.192)" fill="#231f20"/><use xlink:href="#V" transform="matrix(16 0 0 -16 390.236 238.192)" fill="#231f20"/><use xlink:href="#D" transform="matrix(16 0 0 -16 402.604 238.416)" fill="#231f20"/><use xlink:href="#W" transform="matrix(16 0 0 -16 411.196 238.416)" fill="#231f20"/><use xlink:href="#P" transform="matrix(16 0 0 -16 418.508 238.192)" fill="#231f20"/><use xlink:href="#B" transform="matrix(16 0 0 -16 426.332 238.32)" fill="#231f20"/><use xlink:href="#G" transform="matrix(16 0 0 -16 433.868 238.32)" fill="#231f20"/><use xlink:href="#x" transform="matrix(16 0 0 -16 441.436 238.192)" fill="#231f20"/><use xlink:href="#y" transform="matrix(16 0 0 -16 446.396 238.192)" fill="#231f20"/><use xlink:href="#x" transform="matrix(16 0 0 -16 454.204 238.192)" fill="#231f20"/><use xlink:href="#X" transform="matrix(16 0 0 -16 459.212 240.192)" fill="#231f20"/><use xlink:href="#A" transform="matrix(16 0 0 -16 469.418 238.416)" fill="#231f20"/><use xlink:href="#J" transform="matrix(16 0 0 -16 477.93 238.192)" fill="#231f20"/><use xlink:href="#Y" transform="matrix(16 0 0 -16 485.626 238.192)" fill="#231f20"/><use xlink:href="#C" transform="matrix(16 0 0 -16 493.21 241.392)" fill="#231f20"/><use xlink:href="#G" transform="matrix(16 0 0 -16 501.306 238.32)" fill="#231f20"/><use xlink:href="#N" transform="matrix(16 0 0 -16 508.602 238.288)" fill="#231f20"/><use xlink:href="#O" transform="matrix(16 0 0 -16 518.026 238.304)" fill="#231f20"/><use xlink:href="#J" transform="matrix(16 0 0 -16 525.866 238.192)" fill="#231f20"/><use xlink:href="#K" transform="matrix(16 0 0 -16 534.458 238.304)" fill="#231f20"/><use xlink:href="#L" transform="matrix(16 0 0 -16 545.706 238.192)" fill="#231f20"/><use xlink:href="#x" transform="matrix(16 0 0 -16 553.514 238.192)" fill="#231f20"/><use xlink:href="#M" transform="matrix(16 0 0 -16 558.01 241.392)" fill="#231f20"/><use xlink:href="#A" transform="matrix(16 0 0 -16 569.29 238.416)" fill="#231f20"/><use xlink:href="#I" transform="matrix(16 0 0 -16 576.68 240.016)" fill="#231f20"/><use xlink:href="#A" transform="matrix(16 0 0 -16 586.329 238.416)" fill="#231f20"/><use xlink:href="#C" transform="matrix(16 0 0 -16 594.84 241.392)" fill="#231f20"/><use xlink:href="#G" transform="matrix(16 0 0 -16 602.937 238.32)" fill="#231f20"/><use xlink:href="#N" transform="matrix(16 0 0 -16 610.233 238.288)" fill="#231f20"/><use xlink:href="#O" transform="matrix(16 0 0 -16 619.657 238.304)" fill="#231f20"/><use xlink:href="#J" transform="matrix(16 0 0 -16 627.497 238.192)" fill="#231f20"/><use xlink:href="#K" transform="matrix(16 0 0 -16 636.089 238.304)" fill="#231f20"/><use xlink:href="#L" transform="matrix(16 0 0 -16 647.337 238.192)" fill="#231f20"/><use xlink:href="#x" transform="matrix(16 0 0 -16 655.145 238.192)" fill="#231f20"/><use xlink:href="#D" transform="matrix(16 0 0 -16 659.72 238.416)" fill="#231f20"/><use xlink:href="#P" transform="matrix(16 0 0 -16 668.697 238.192)" fill="#231f20"/><use xlink:href="#C" transform="matrix(16 0 0 -16 676.52 241.392)" fill="#231f20"/><use xlink:href="#Q" transform="matrix(16 0 0 -16 683.911 241.472)" fill="#231f20"/><use xlink:href="#R" transform="matrix(16 0 0 -16 692.615 238.192)" fill="#231f20"/><symbol id="Z"><path d="M.382.578H.137V0H0v.7h.519V0H.382v.578z"/></symbol><symbol id="aa"><path d="M.13.5V.386c0-.02 0-.039.002-.054a.13.13 0 0 1 .01-.037.053.053 0 0 1 .021-.021.08.08 0 0 1 .036-.007.159.159 0 0 1 .086.024V.5h.13V0h-.13v.196A.269.269 0 0 0 .239.171.219.219 0 0 0 .156.158.249.249 0 0 0 .09.166a.109.109 0 0 0-.049.028.133.133 0 0 0-.031.053A.291.291 0 0 0 0 .33V.5h.13z"/></symbol><use xlink:href="#S" transform="matrix(16 0 0 -16 318.284 262.192)" fill="#231f20"/><use xlink:href="#T" transform="matrix(16 0 0 -16 326.988 262.416)" fill="#231f20"/><use xlink:href="#U" transform="matrix(16 0 0 -16 336.236 262.416)" fill="#231f20"/><use xlink:href="#x" transform="matrix(16 0 0 -16 348.86 262.192)" fill="#231f20"/><use xlink:href="#x" transform="matrix(16 0 0 -16 353.276 262.192)" fill="#231f20"/><use xlink:href="#Z" transform="matrix(16 0 0 -16 390.236 262.192)" fill="#231f20"/><use xlink:href="#C" transform="matrix(16 0 0 -16 400.412 265.392)" fill="#231f20"/><use xlink:href="#D" transform="matrix(16 0 0 -16 408.668 262.416)" fill="#231f20"/><use xlink:href="#aa" transform="matrix(16 0 0 -16 417.26 262.192)" fill="#231f20"/><use xlink:href="#y" transform="matrix(16 0 0 -16 425.724 262.192)" fill="#231f20"/><use xlink:href="#A" transform="matrix(16 0 0 -16 434.06 262.416)" fill="#231f20"/><clipPath id="ab"><path transform="matrix(1 0 0 -1 0 595.276)" d="M0 0h841.89v595.276H0z"/></clipPath><g clip-path="url(#ab)"><path d="M493.811 421.008s-14 0-14 14v2.003s0 14 14 14H791.89s14 0 14-14v-2.003s0-14-14-14z" fill="#e6e7e8"/><path d="M493.811 421.008s-14 0-14 14v2.003s0 14 14 14h96.984s14 0 14-14v-2.003s0-14-14-14z" fill="#d2232a"/></g><use xlink:href="#D" transform="matrix(16 0 0 -16 317.804 446.543)" fill="#231f20"/><use xlink:href="#Y" transform="matrix(16 0 0 -16 325.756 446.319)" fill="#231f20"/><use xlink:href="#x" transform="matrix(16 0 0 -16 331.9 446.319)" fill="#231f20"/><symbol id="ac"><path d="M.218.497C.218.441.193.423.152.423H.109v-.1h.037c.05 0 .072-.024.072-.089V.179C.218.117.196.1.161.1S.104.119.104.169v.065H0V.176C0 .064.056 0 .164 0c.108 0 .164.064.164.176v.055c0 .071-.022.123-.077.147C.304.4.328.447.328.522V.54c0 .112-.056.176-.164.176C.056.716 0 .652 0 .54V.502h.104v.045c0 .05.022.069.057.069S.218.599.218.536V.497z"/></symbol><symbol id="ad"><path d="M0 .234V.176C0 .064.056 0 .164 0c.108 0 .164.064.164.176v.156c0 .103-.041.16-.122.16A.105.105 0 0 1 .11.441l.009.167H.31v.1H.02L0 .302h.104v.021c0 .05.022.069.057.069S.218.373.218.323V.169C.218.119.196.101.161.101S.104.119.104.169v.065H0z"/></symbol><use xlink:href="#ac" transform="matrix(40 0 0 -40 337.307 446.639)" fill="#231f20"/><use xlink:href="#ad" transform="matrix(40 0 0 -40 354.187 446.639)" fill="#231f20"/><use xlink:href="#o" transform="matrix(40 0 0 -40 369.627 446.319)" fill="#231f20"/><use xlink:href="#I" transform="matrix(16 0 0 -16 376.795 448.143)" fill="#231f20"/><use xlink:href="#D" transform="matrix(16 0 0 -16 386.443 446.543)" fill="#231f20"/><use xlink:href="#x" transform="matrix(16 0 0 -16 394.507 446.319)" fill="#231f20"/><symbol id="ae"><path d="M0 .127h.212V0H.32v.127h.052v.1H.32V.7H.2L0 .227v-.1m.101.1L.212.49V.227H.101z"/></symbol><use xlink:href="#ae" transform="matrix(40 0 0 -40 399.115 446.319)" fill="#231f20"/><use xlink:href="#ad" transform="matrix(40 0 0 -40 416.795 446.639)" fill="#231f20"/><use xlink:href="#o" transform="matrix(40 0 0 -40 432.235 446.319)" fill="#231f20"/><use xlink:href="#N" transform="matrix(16 0 0 -16 439.162 446.415)" fill="#231f20"/><use xlink:href="#A" transform="matrix(16 0 0 -16 448.202 446.543)" fill="#231f20"/><use xlink:href="#Y" transform="matrix(16 0 0 -16 455.818 446.319)" fill="#231f20"/><use xlink:href="#x" transform="matrix(16 0 0 -16 461.962 446.319)" fill="#231f20"/><symbol id="af"><path d="M.406.529A.299.299 0 0 0 .387.426a.892.892 0 0 0-.11-.199A1.65 1.65 0 0 0 .21.142L.157.101V.096L.229.11h.192V0H0v.067a2.95 2.95 0 0 1 .114.129 1.727 1.727 0 0 1 .112.158.48.48 0 0 1 .036.079c.01.025.014.05.014.072 0 .027-.008.05-.024.067C.237.59.212.599.178.599A.173.173 0 0 1 .112.585.18.18 0 0 1 .056.551L.004.643a.32.32 0 0 0 .205.071.249.249 0 0 0 .079-.012.16.16 0 0 0 .103-.093.197.197 0 0 0 .015-.08z"/></symbol><use xlink:href="#af" transform="matrix(16 0 0 -16 491.21 440.962)" fill="#fff"/><use xlink:href="#af" transform="matrix(16 0 0 -16 500.282 440.962)" fill="#fff"/><use xlink:href="#U" transform="matrix(16 0 0 -16 509.066 441.186)" fill="#fff"/><clipPath id="ag"><path transform="matrix(1 0 0 -1 0 595.276)" d="M0 0h841.89v595.276H0z"/></clipPath><g clip-path="url(#ag)"><path d="M493.811 369.737s-14 0-14 14v2.003s0 14 14 14H791.89s14 0 14-14v-2.003s0-14-14-14z" fill="#e6e7e8"/><path d="M493.811 369.737s-14 0-14 14v2.003s0 14 14 14h134.984s14 0 14-14v-2.003s0-14-14-14z" fill="#d2232a"/></g><use xlink:href="#D" transform="matrix(16 0 0 -16 317.804 395.272)" fill="#231f20"/><use xlink:href="#Y" transform="matrix(16 0 0 -16 325.756 395.048)" fill="#231f20"/><use xlink:href="#x" transform="matrix(16 0 0 -16 331.9 395.048)" fill="#231f20"/><symbol id="ah"><path d="M.218.528C.218.326 0 .292 0 .086V0h.318v.1H.11L.109.115c0 .115.219.197.219.417 0 .112-.056.176-.164.176C.056.708 0 .644 0 .532V.464h.104v.075c0 .05.022.069.057.069S.218.591.218.528z"/></symbol><use xlink:href="#ah" transform="matrix(40 0 0 -40 337.547 395.048)" fill="#231f20"/><use xlink:href="#ad" transform="matrix(40 0 0 -40 354.187 395.368)" fill="#231f20"/><use xlink:href="#o" transform="matrix(40 0 0 -40 369.627 395.048)" fill="#231f20"/><use xlink:href="#I" transform="matrix(16 0 0 -16 376.795 396.872)" fill="#231f20"/><use xlink:href="#D" transform="matrix(16 0 0 -16 386.443 395.272)" fill="#231f20"/><use xlink:href="#x" transform="matrix(16 0 0 -16 394.507 395.048)" fill="#231f20"/><use xlink:href="#ac" transform="matrix(40 0 0 -40 399.915 395.368)" fill="#231f20"/><use xlink:href="#ae" transform="matrix(40 0 0 -40 415.955 395.048)" fill="#231f20"/><use xlink:href="#o" transform="matrix(40 0 0 -40 432.235 395.048)" fill="#231f20"/><use xlink:href="#N" transform="matrix(16 0 0 -16 439.162 395.144)" fill="#231f20"/><use xlink:href="#A" transform="matrix(16 0 0 -16 448.202 395.272)" fill="#231f20"/><use xlink:href="#Y" transform="matrix(16 0 0 -16 455.818 395.048)" fill="#231f20"/><use xlink:href="#x" transform="matrix(16 0 0 -16 461.962 395.048)" fill="#231f20"/><symbol id="ai"><path d="M.163.11c.041 0 .073.011.094.033a.109.109 0 0 1 .033.08C.29.261.279.289.256.307.233.325.198.334.149.334H.077v.069l.121.165.057.045L.176.604H.008v.11H.39V.643L.249.454.205.427V.422l.042.006A.218.218 0 0 0 .313.412.171.171 0 0 0 .406.314.228.228 0 0 0 .42.231.24.24 0 0 0 .4.129.194.194 0 0 0 .346.057a.22.22 0 0 0-.08-.043A.338.338 0 0 0 .167 0c-.03 0-.06.003-.091.008A.264.264 0 0 0 0 .031l.035.108A.288.288 0 0 1 .163.11z"/></symbol><symbol id="aj"><path d="M.468.231A.24.24 0 0 0 .405.067.234.234 0 0 0 .239 0a.279.279 0 0 0-.096.016.212.212 0 0 0-.125.133A.342.342 0 0 0 0 .265a.474.474 0 0 0 .105.318.396.396 0 0 0 .25.145L.384.625A.283.283 0 0 1 .292.594a.345.345 0 0 1-.13-.127.286.286 0 0 1-.031-.081.164.164 0 0 0 .132.06c.03 0 .058-.005.083-.014A.185.185 0 0 0 .453.323.261.261 0 0 0 .468.231M.342.224c0 .075-.037.112-.11.112A.123.123 0 0 1 .164.318.103.103 0 0 1 .126.276.108.108 0 0 1 .124.257V.241a.152.152 0 0 1 .027-.09.118.118 0 0 1 .035-.03.106.106 0 0 1 .05-.011c.031 0 .057.01.076.032.02.021.03.049.03.082z"/></symbol><use xlink:href="#ai" transform="matrix(16 0 0 -16 491.354 389.914)" fill="#fff"/><use xlink:href="#aj" transform="matrix(16 0 0 -16 500.01 389.914)" fill="#fff"/><use xlink:href="#U" transform="matrix(16 0 0 -16 509.066 389.914)" fill="#fff"/><clipPath id="ak"><path transform="matrix(1 0 0 -1 0 595.276)" d="M0 0h841.89v595.276H0z"/></clipPath><g clip-path="url(#ak)"><path d="M493.811 474.382s-14 0-14 14v2.003s0 14 14 14H791.89s14 0 14-14v-2.003s0-14-14-14z" fill="#e6e7e8"/><path d="M493.811 474.382s-14 0-14 14v2.003s0 14 14 14h89.354s14 0 14-14v-2.003s0-14-14-14z" fill="#d2232a"/></g><use xlink:href="#D" transform="matrix(16 0 0 -16 317.804 499.917)" fill="#231f20"/><use xlink:href="#Y" transform="matrix(16 0 0 -16 325.756 499.693)" fill="#231f20"/><use xlink:href="#x" transform="matrix(16 0 0 -16 331.9 499.693)" fill="#231f20"/><symbol id="al"><path d="M0 .534h.085V0h.11v.7H.121C.104.653.085.612 0 .612V.534z"/></symbol><use xlink:href="#al" transform="matrix(40 0 0 -40 340.267 499.693)" fill="#231f20"/><use xlink:href="#l" transform="matrix(40 0 0 -40 353.827 500.013)" fill="#231f20"/><use xlink:href="#o" transform="matrix(40 0 0 -40 369.627 499.693)" fill="#231f20"/><use xlink:href="#I" transform="matrix(16 0 0 -16 376.795 501.517)" fill="#231f20"/><use xlink:href="#D" transform="matrix(16 0 0 -16 386.443 499.917)" fill="#231f20"/><use xlink:href="#x" transform="matrix(16 0 0 -16 394.507 499.693)" fill="#231f20"/><use xlink:href="#ah" transform="matrix(40 0 0 -40 400.155 499.693)" fill="#231f20"/><use xlink:href="#ae" transform="matrix(40 0 0 -40 415.955 499.693)" fill="#231f20"/><use xlink:href="#o" transform="matrix(40 0 0 -40 432.235 499.693)" fill="#231f20"/><use xlink:href="#N" transform="matrix(16 0 0 -16 439.162 499.79)" fill="#231f20"/><use xlink:href="#A" transform="matrix(16 0 0 -16 448.202 499.917)" fill="#231f20"/><use xlink:href="#Y" transform="matrix(16 0 0 -16 455.818 499.693)" fill="#231f20"/><use xlink:href="#af" transform="matrix(16 0 0 -16 491.21 494.336)" fill="#fff"/><use xlink:href="#T" transform="matrix(16 0 0 -16 499.818 494.56)" fill="#fff"/><use xlink:href="#U" transform="matrix(16 0 0 -16 509.066 494.56)" fill="#fff"/><clipPath id="am"><path transform="matrix(1 0 0 -1 0 595.276)" d="M0 0h841.89v595.276H0z"/></clipPath><g clip-path="url(#am)"><path d="M493.811 528.186s-14 0-14 14v2.003s0 14 14 14H791.89s14 0 14-14v-2.003s0-14-14-14z" fill="#e6e7e8"/><path d="M493.811 528.186s-14 0-14 14v2.003s0 14 14 14h72.346s14 0 14-14v-2.003s0-14-14-14z" fill="#d2232a"/></g><use xlink:href="#D" transform="matrix(16 0 0 -16 317.804 553.72)" fill="#231f20"/><use xlink:href="#Y" transform="matrix(16 0 0 -16 325.756 553.496)" fill="#231f20"/><use xlink:href="#x" transform="matrix(16 0 0 -16 331.9 553.496)" fill="#231f20"/><use xlink:href="#ae" transform="matrix(40 0 0 -40 336.507 553.496)" fill="#231f20"/><use xlink:href="#ad" transform="matrix(40 0 0 -40 354.187 553.817)" fill="#231f20"/><use xlink:href="#o" transform="matrix(40 0 0 -40 369.627 553.496)" fill="#231f20"/><use xlink:href="#I" transform="matrix(16 0 0 -16 376.795 555.32)" fill="#231f20"/><use xlink:href="#D" transform="matrix(16 0 0 -16 386.443 553.72)" fill="#231f20"/><use xlink:href="#x" transform="matrix(16 0 0 -16 394.507 553.496)" fill="#231f20"/><use xlink:href="#ad" transform="matrix(40 0 0 -40 399.955 553.817)" fill="#231f20"/><use xlink:href="#ae" transform="matrix(40 0 0 -40 415.955 553.496)" fill="#231f20"/><use xlink:href="#o" transform="matrix(40 0 0 -40 432.235 553.496)" fill="#231f20"/><use xlink:href="#N" transform="matrix(16 0 0 -16 439.162 553.592)" fill="#231f20"/><use xlink:href="#A" transform="matrix(16 0 0 -16 448.202 553.72)" fill="#231f20"/><use xlink:href="#Y" transform="matrix(16 0 0 -16 455.818 553.496)" fill="#231f20"/><use xlink:href="#x" transform="matrix(16 0 0 -16 461.962 553.496)" fill="#231f20"/><symbol id="an"><path d="M.152.115c.044 0 .078.01.101.032.023.021.035.05.035.088 0 .04-.014.07-.041.088A.206.206 0 0 1 .13.351L.051.348v.366h.344V.592H.163V.457l.041.004A.258.258 0 0 0 .292.443.192.192 0 0 0 .403.329a.255.255 0 0 0 .015-.09.254.254 0 0 0-.02-.104A.204.204 0 0 0 .342.06.232.232 0 0 0 .259.015.448.448 0 0 0 0 .028l.035.108A.274.274 0 0 1 .085.12.387.387 0 0 1 .152.115z"/></symbol><use xlink:href="#S" transform="matrix(16 0 0 -16 491.114 548.14)" fill="#fff"/><use xlink:href="#an" transform="matrix(16 0 0 -16 500.266 548.363)" fill="#fff"/><use xlink:href="#U" transform="matrix(16 0 0 -16 509.066 548.363)" fill="#fff"/><symbol id="ao"><path d="M.166.7H0V0h.173C.283 0 .34.058.34.166v.057C.34.297.317.35.258.373c.049.023.071.069.071.141v.025C.329.647.28.7.166.7M.159.315C.209.315.23.295.23.23V.169C.23.117.21.1.173.1H.11v.215h.049M.163.6C.202.6.219.578.219.528V.489C.219.433.194.415.153.415H.11V.6h.053z"/></symbol><symbol id="ap"><path d="M.218.497C.218.441.193.423.152.423H.119v-.1h.027c.05 0 .072-.024.072-.089V.179C.218.117.196.1.161.1S.104.119.104.169v.084H0V.176C0 .064.056 0 .164 0c.108 0 .164.064.164.176v.055c0 .071-.022.123-.077.147C.304.4.328.447.328.522V.54c0 .112-.056.176-.164.176C.056.716.002.654.002.542V.49h.101v.057c0 .05.023.069.058.069S.218.599.218.536V.497z"/></symbol><symbol id="aq"><path d="M.224.269v-.1C.224.119.202.101.167.101S.11.119.11.169v.378c0 .05.022.069.057.069S.224.597.224.547V.472h.104V.54c0 .112-.056.176-.164.176C.056.716 0 .652 0 .54V.176C0 .064.056 0 .164 0c.108 0 .164.064.164.176v.093H.224z"/></symbol><use xlink:href="#ao" transform="matrix(40 0 0 -40 364.072 345.93)" fill="#d2232a"/><use xlink:href="#i" transform="matrix(40 0 0 -40 380.952 346.25)" fill="#d2232a"/><use xlink:href="#ap" transform="matrix(40 0 0 -40 397.912 346.25)" fill="#d2232a"/><use xlink:href="#j" transform="matrix(40 0 0 -40 414.992 345.93)" fill="#d2232a"/><use xlink:href="#d" transform="matrix(40 0 0 -40 429.912 345.93)" fill="#d2232a"/><use xlink:href="#aq" transform="matrix(40 0 0 -40 447.992 346.25)" fill="#d2232a"/><use xlink:href="#h" transform="matrix(40 0 0 -40 463.512 345.93)" fill="#d2232a"/><symbol id="ar"><path d="M.205 0h.108v.079h.041c.11 0 .164.061.164.173v.191c0 .112-.054.173-.164.173H.313V.7H.205V.616H.164C.054.616 0 .555 0 .443V.252C0 .14.054.079.164.079h.041V0m.149.519C.389.519.409.5.409.45V.245c0-.05-.02-.07-.055-.07H.313v.344h.041M.205.175H.164c-.035 0-.055.02-.055.07V.45c0 .05.02.069.055.069h.041V.175z"/></symbol><use xlink:href="#w" transform="matrix(40 0 0 -40 364.112 145.402)" fill="#d2232a"/><use xlink:href="#u" transform="matrix(40 0 0 -40 379.672 145.402)" fill="#d2232a"/><use xlink:href="#i" transform="matrix(40 0 0 -40 395.032 145.722)" fill="#d2232a"/><use xlink:href="#w" transform="matrix(40 0 0 -40 412.272 145.402)" fill="#d2232a"/><use xlink:href="#j" transform="matrix(40 0 0 -40 427.832 145.402)" fill="#d2232a"/><use xlink:href="#d" transform="matrix(40 0 0 -40 442.752 145.402)" fill="#d2232a"/><use xlink:href="#ar" transform="matrix(40 0 0 -40 460.832 145.402)" fill="#d2232a"/><use xlink:href="#g" transform="matrix(40 0 0 -40 485.512 145.402)" fill="#d2232a"/><use xlink:href="#k" transform="matrix(40 0 0 -40 502.792 145.402)" fill="#d2232a"/><symbol id="as"><path d="M.11.6h.125V0h.112v.7H0V0h.11v.6z"/></symbol><symbol id="at"><path d="M0 0h.017c.11 0 .156.05.16.178l.012.423h.096v-.6h.112v.7H.086L.068.172C.066.107.05.1 0 .1V0z"/></symbol><use xlink:href="#as" transform="matrix(40 0 0 -40 79.6 145.402)" fill="#d2232a"/><use xlink:href="#i" transform="matrix(40 0 0 -40 97.32 145.722)" fill="#d2232a"/><use xlink:href="#at" transform="matrix(40 0 0 -40 113.28 145.442)" fill="#d2232a"/><symbol id="au"><path d="M0 .7V.6h.219L.058 0h.11L.33.604V.7H0z"/></symbol><use xlink:href="#au" transform="matrix(40 0 0 -40 52.013 227.134)" fill="#231f20"/><use xlink:href="#m" transform="matrix(40 0 0 -40 68.773 227.454)" fill="#231f20"/><use xlink:href="#n" transform="matrix(40 0 0 -40 85.733 227.334)" fill="#231f20"/><use xlink:href="#ac" transform="matrix(40 0 0 -40 159.155 227.454)" fill="#231f20"/><use xlink:href="#m" transform="matrix(40 0 0 -40 175.875 227.454)" fill="#231f20"/><use xlink:href="#n" transform="matrix(40 0 0 -40 192.835 227.334)" fill="#231f20"/><symbol id="av"><path d="M.248.203.146 0H0l.131.229.034.03-.051.038L.011.5H.15L.243.297h.043V.5H.41V.287l.038.014L.542.5H.68L.571.297.532.265l.051-.04L.704 0H.555L.453.207H.41V0H.286v.217L.248.203z"/></symbol><use xlink:href="#V" transform="matrix(16 0 0 -16 46.016 168.226)" fill="#231f20"/><use xlink:href="#Q" transform="matrix(16 0 0 -16 57.712 171.506)" fill="#231f20"/><use xlink:href="#av" transform="matrix(16 0 0 -16 65.408 168.226)" fill="#231f20"/><use xlink:href="#aa" transform="matrix(16 0 0 -16 76.848 168.226)" fill="#231f20"/><use xlink:href="#y" transform="matrix(16 0 0 -16 85.312 168.226)" fill="#231f20"/><use xlink:href="#J" transform="matrix(16 0 0 -16 94.032 168.226)" fill="#231f20"/><use xlink:href="#K" transform="matrix(16 0 0 -16 102.624 168.338)" fill="#231f20"/><symbol id="aw"><path d="M.357.7h.13V.389l.035.014L.667.7h.154L.658.393.611.359.668.317.852 0H.687L.526.304H.487V0h-.13v.316L.321.302.16 0H0l.183.307.054.039-.052.037L.014.7h.159L.318.401h.039V.7z"/></symbol><symbol id="ax"><path d="M.712 0H.618L.603.114H0v.5h.13V.229h.125v.385h.13V.229H.51v.385h.13V.229h.072V0z"/></symbol><use xlink:href="#aw" transform="matrix(16 0 0 -16 149.119 168.226)" fill="#231f20"/><use xlink:href="#A" transform="matrix(16 0 0 -16 162.719 168.45)" fill="#231f20"/><use xlink:href="#J" transform="matrix(16 0 0 -16 171.231 168.226)" fill="#231f20"/><use xlink:href="#ax" transform="matrix(16 0 0 -16 179.823 170.05)" fill="#231f20"/><use xlink:href="#y" transform="matrix(16 0 0 -16 192.351 168.226)" fill="#231f20"/><use xlink:href="#J" transform="matrix(16 0 0 -16 201.071 168.226)" fill="#231f20"/><use xlink:href="#K" transform="matrix(16 0 0 -16 209.663 168.338)" fill="#231f20"/><clipPath id="ay"><path transform="matrix(1 0 0 -1 0 595.276)" d="M0 0h841.89v595.276H0z"/></clipPath><g clip-path="url(#ay)" fill="#d2232a"><path d="M58.044 119.015a12.442 12.442 0 0 1 2.009 3.709 12.505 12.505 0 0 1 4.837 3.017v.004a12.565 12.565 0 0 1 3.693 8.913c0 3.187-1.205 6.378-3.616 8.828l-.077.081v.004a12.593 12.593 0 0 1-8.917 3.69v.007c-2.751 0-5.517-.9-7.79-2.696l-1.513 1.518 1.73 1.742a1.5 1.5 0 0 1-2.116 2.125l-1.746-1.742-1.453 1.464a1.517 1.517 0 0 1-2.133 0 1.501 1.501 0 0 1 0-2.124l1.468-1.465-1.746-1.738a1.499 1.499 0 0 1 0-2.122 1.51 1.51 0 0 1 2.132 0l1.732 1.74 1.529-1.527a12.567 12.567 0 0 1-2.024-3.705 12.737 12.737 0 0 1-4.838-3.021v-.004l-.014-.019a12.54 12.54 0 0 1-3.68-8.89c0-3.222 1.238-6.452 3.694-8.909v-.008a12.567 12.567 0 0 1 8.918-3.693c2.75 0 5.516.9 7.789 2.693l2.549-2.543h-2.875a1.505 1.505 0 0 1-1.498-1.502c0-.827.679-1.5 1.498-1.5h6.538l.092.004.139.016.124.031.016.007c.077.02.139.043.2.07l.046.023.062.027.17.112.03.035.048.035.03.019.062.058.062.07.016.019.046.047.03.045c.032.051.078.105.109.167l.03.054.017.05c.03.062.046.131.077.193v.028l.03.127.016.135.016.085V119.332a1.506 1.506 0 0 1-3.014 0v-2.863zm2.673 7.29.015.499c0 3.229-1.235 6.459-3.693 8.913a12.548 12.548 0 0 1-8.916 3.697c-.17 0-.34-.008-.511-.011a9.785 9.785 0 0 0 1.5 1.974l.077.073.015.027a9.6 9.6 0 0 0 6.769 2.786v.003a9.619 9.619 0 0 0 6.799-2.816v-.008l.063-.061a9.598 9.598 0 0 0-.063-13.511v-.004a9.796 9.796 0 0 0-2.055-1.561m-2.983.499c0-.541-.045-1.082-.14-1.615a9.563 9.563 0 0 0-8.406 2.677 9.528 9.528 0 0 0-2.812 6.792c0 .542.046 1.082.14 1.615a9.637 9.637 0 0 0 1.607.136 9.545 9.545 0 0 0 6.784-2.813 9.563 9.563 0 0 0 2.827-6.792m-1.251-4.744a10.147 10.147 0 0 0-1.53-2.013l-.046-.039-.031-.035a9.568 9.568 0 0 0-6.753-2.774 9.6 9.6 0 0 0-6.8 2.813v-.004.004a9.582 9.582 0 0 0-2.813 6.792c0 2.457.943 4.918 2.813 6.792v.008a10.195 10.195 0 0 0 2.055 1.557c0-.166-.015-.337-.015-.503 0-3.226 1.236-6.459 3.693-8.917a12.611 12.611 0 0 1 9.427-3.681m7.109-9.179v.007zM333.994 112.268c5.339 0 10.18 2.165 13.681 5.663a19.318 19.318 0 0 1 5.664 13.685 19.266 19.266 0 0 1-5.664 13.67 19.282 19.282 0 0 1-13.681 5.671 19.269 19.269 0 0 1-13.677-5.671 19.249 19.249 0 0 1-5.663-13.67 19.3 19.3 0 0 1 5.663-13.685 19.29 19.29 0 0 1 13.677-5.663m-.888 35.696v-6.268a16.509 16.509 0 0 0-5.024 1.041c-.226.076-.452.168-.666.253.126.282.268.558.417.826.976 1.768 2.155 3.138 3.463 3.942.59.099 1.198.168 1.81.206m12.461-27.921a21.364 21.364 0 0 0-.402-.397 19.58 19.58 0 0 1-2.269 1.454c1.055 2.756 1.706 6.062 1.802 9.621h5.645a16.3 16.3 0 0 0-4.776-10.678m-1.811-1.568a16.522 16.522 0 0 0-3.333-1.921 16.197 16.197 0 0 1 1.757 2.908 19.323 19.323 0 0 0 1.576-.987m-7.057-3.008a15.834 15.834 0 0 0-1.809-.199v6.269a17.037 17.037 0 0 0 5.024-1.034c.222-.092.444-.176.667-.268-.134-.283-.28-.558-.425-.819-.973-1.775-2.155-3.145-3.457-3.949m-3.593-.199c-.612.031-1.22.107-1.81.199-1.308.804-2.487 2.174-3.463 3.949-.149.261-.291.536-.425.819.222.092.44.176.674.268 1.562.582 3.257.942 5.024 1.034zm-5.537 1.286a16.662 16.662 0 0 0-3.337 1.921c.513.352 1.037.681 1.577.987.145-.314.298-.612.459-.903.398-.727.838-1.4 1.301-2.005m-4.745 3.092c-.135.13-.272.26-.41.397a16.34 16.34 0 0 0-4.764 10.678h5.641c.095-3.559.754-6.865 1.81-9.621a18.939 18.939 0 0 1-2.277-1.454m-5.174 12.858a16.376 16.376 0 0 0 4.764 10.685l.41.39a18.122 18.122 0 0 1 2.277-1.447c-1.056-2.762-1.715-6.069-1.81-9.628zm6.582 12.254c1.03.765 2.15 1.4 3.337 1.913a15.227 15.227 0 0 1-1.301-2.006c-.161-.29-.314-.588-.459-.895-.54.299-1.064.628-1.577.988m10.658 3.206a17.586 17.586 0 0 0 1.809-.206c1.302-.804 2.484-2.174 3.457-3.942.145-.268.291-.544.425-.826-.223-.085-.445-.177-.671-.253a16.527 16.527 0 0 0-5.02-1.041zm5.533-1.293a16.537 16.537 0 0 0 3.333-1.913 14.294 14.294 0 0 0-1.576-.988c-.146.307-.298.605-.459.895a15.633 15.633 0 0 1-1.298 2.006m4.742-3.092.402-.39a16.335 16.335 0 0 0 4.776-10.685h-5.645c-.096 3.559-.747 6.866-1.81 9.628.796.421 1.553.911 2.277 1.447m-3.889-21.706c-.248.099-.493.199-.738.291a18.767 18.767 0 0 1-5.648 1.155v7.402h8.021c-.092-3.276-.682-6.315-1.635-8.848m-8.17 1.446a18.736 18.736 0 0 1-6.39-1.446c-.961 2.533-1.55 5.572-1.642 8.848h8.032zm0 16.594v-7.409h-8.032c.092 3.283.689 6.314 1.642 8.855.245-.107.497-.199.739-.29a18.496 18.496 0 0 1 5.651-1.156m1.784 0c1.971.091 3.868.49 5.64 1.156.253.091.498.183.746.29.953-2.541 1.543-5.572 1.635-8.855h-8.021zM327.611 304.907c5.502 0 10.215 4.059 11.054 9.452a8.579 8.579 0 0 1 2.633-.411c2.45 0 4.68 1.007 6.29 2.608a8.861 8.861 0 0 1 2.6 6.29 8.94 8.94 0 0 1-2.398 6.08l2.113 2.105c.939.948 1.644 1.988 2.13 3.153a9.845 9.845 0 0 1 .721 3.724v2.641c0 .688-.218 1.426-.621 1.997-.436.612-1.089 1.056-1.911 1.148-.068 0-.118.009-.185.009v.008h-2.046v.713a1.64 1.64 0 0 1-1.628 1.635h-25.41a1.64 1.64 0 0 1-1.627-1.635v-1.45h-3.187c-.118 0-.235-.017-.336-.042-.872-.134-1.542-.63-2.012-1.283a4.09 4.09 0 0 1-.722-2.323v-3.456c0-1.669.302-3.245.906-4.704.604-1.46 1.509-2.785 2.684-3.968l.083-.075 3.053-3.061-.066-.076v-.008h-.018a11.169 11.169 0 0 1-3.27-7.892c0-6.155 5.032-11.179 11.17-11.179m17.092 37.891v-5.234c0-.536.453-.981.99-.981.536 0 .973.445.973.981v2.885h2.817v-2.541c0-.898-.151-1.728-.452-2.474v-.008a6.667 6.667 0 0 0-1.426-2.097l-2.465-2.449a8.868 8.868 0 0 1-3.657.864c.452 1.3.688 2.676.688 4.126v3.456a4.09 4.09 0 0 1-.722 2.323 3.126 3.126 0 0 1-1.476 1.149zm-6.055-24.934-.016.1v.06l-.017.033v.017l-.101.469v.06l-.017.042-.016.05a11.247 11.247 0 0 1-2.953 5.283h-.016v.008l-.067.076 3.136 3.136c.319.311.621.654.906.999.218.075.453.134.687.184.336.075.705.109 1.124.109a5.647 5.647 0 0 0 3.975-1.652 5.6 5.6 0 0 0 1.66-3.992 5.61 5.61 0 0 0-1.66-3.984 5.647 5.647 0 0 0-3.975-1.652c-.603 0-1.174.101-1.71.26a7.81 7.81 0 0 0-.94.394m-18.031 21.847V335.4c0-.537.453-.973.99-.973.536 0 .973.436.973.973V342.798h10.08V335.4a.973.973 0 0 1 1.946 0v4.311h4.227a.89.89 0 0 0 .084-.385v-3.456c0-1.258-.218-2.407-.672-3.463h.018-.018a7.986 7.986 0 0 0-1.04-1.829l-.016-.033-.017-.017-.016-.017-.018-.017a9.597 9.597 0 0 0-.871-.998v-.009l-3.489-3.496a11.061 11.061 0 0 1-5.167 1.266 11.04 11.04 0 0 1-5.149-1.266l-3.421 3.43-.068.075c-.888.897-1.56 1.862-1.995 2.911-.436 1.048-.655 2.205-.655 3.463v3.456c0 .15.034.285.084.385zm6.994-31.55c-4.344 0-7.916 3.564-7.916 7.925 0 4.403 3.589 7.909 7.916 7.909 4.311 0 7.917-3.481 7.917-7.909 0-4.369-3.539-7.925-7.917-7.925"/></g><path stroke-width="2" stroke-linecap="round" stroke-dasharray="0,3.984" stroke-linejoin="round" fill="none" stroke="#231f20" d="M282.575 119.087v452.197"/><path stroke-width="2" stroke-linecap="round" stroke-linejoin="round" fill="none" stroke="#231f20" d="M282.575 115.103h0m0 458.173h0"/><path stroke-width="2" stroke-linecap="round" stroke-dasharray="0,4.016" stroke-linejoin="round" fill="none" stroke="#231f20" d="M323.386 288.473h475.866"/><path stroke-width="2" stroke-linecap="round" stroke-linejoin="round" fill="none" stroke="#231f20" d="M319.37 288.473h0m481.89 0h0"/><clipPath id="az"><path transform="matrix(1 0 0 -1 0 595.276)" d="M0 0h841.89v595.276H0z"/></clipPath><g clip-path="url(#az)"><path d="M802.116 111.342c2.97-3.96-.165-1.997 11.756-5.89l41.702-14.222c18.808-6.402 36.809-13.051 55.527-19.337-2.137-1.947-141.958-46.495-164.801-53.474-38.724-11.83-79.617-26.085-119.116-38.278-3.762-1.155-6.674-1.815-8.34-4.009-4.439-.38-.892-.413-2.071 1.254 1.988 1.683 4.364 2.772 6.154 4.058l17.374 12.441c7.87 5.824 15.427 11.137 23.445 16.796l133.725 95.101c2.096 1.452 4.86 2.326 4.645 5.56" fill="#a81c21"/></g></svg>